<?xml version="1.0" encoding="UTF-8" standalone="no"?>
<!DOCTYPE svg PUBLIC "-//W3C//DTD SVG 1.1//EN"
 "http://www.w3.org/Graphics/SVG/1.1/DTD/svg11.dtd">
<!-- Generated by graphviz version 2.43.0 (0)
 -->
<!-- Title: axi_slave_write_response Pages: 1 -->
<svg width="816pt" height="367pt"
 viewBox="0.00 0.00 815.56 367.00" xmlns="http://www.w3.org/2000/svg" xmlns:xlink="http://www.w3.org/1999/xlink">
<g id="graph0" class="graph" transform="scale(1 1) rotate(0) translate(4 363)">
<title>axi_slave_write_response</title>
<polygon fill="white" stroke="transparent" points="-4,4 -4,-363 811.56,-363 811.56,4 -4,4"/>
<text text-anchor="middle" x="403.78" y="-7.8" font-family="Times,serif" font-size="14.00">axi_slave_write_response</text>
<!-- n4 -->
<g id="node1" class="node">
<title>n4</title>
<polygon fill="none" stroke="black" points="92.79,-128.54 92.79,-143.46 65.63,-154 27.23,-154 0.07,-143.46 0.07,-128.54 27.23,-118 65.63,-118 92.79,-128.54"/>
<text text-anchor="middle" x="46.43" y="-132.3" font-family="Times,serif" font-size="14.00">bready</text>
</g>
<!-- c19 -->
<g id="node8" class="node">
<title>c19</title>
<polygon fill="none" stroke="black" points="349.14,-78 349.14,-124 463.14,-124 463.14,-78 349.14,-78"/>
<text text-anchor="middle" x="362.64" y="-108.8" font-family="Times,serif" font-size="14.00">A</text>
<polyline fill="none" stroke="black" points="349.14,-101 376.14,-101 "/>
<text text-anchor="middle" x="362.64" y="-85.8" font-family="Times,serif" font-size="14.00">B</text>
<polyline fill="none" stroke="black" points="376.14,-78 376.14,-124 "/>
<text text-anchor="middle" x="406.64" y="-104.8" font-family="Times,serif" font-size="14.00">$97</text>
<text text-anchor="middle" x="406.64" y="-89.8" font-family="Times,serif" font-size="14.00">$_OR_</text>
<polyline fill="none" stroke="black" points="437.14,-78 437.14,-124 "/>
<text text-anchor="middle" x="450.14" y="-97.3" font-family="Times,serif" font-size="14.00">Y</text>
</g>
<!-- n4&#45;&gt;c19 -->
<g id="edge4" class="edge">
<title>n4:e&#45;&gt;c19:w</title>
<path fill="none" stroke="black" d="M92.86,-136C116.45,-136 107.43,-106.85 128.86,-97 214.35,-57.7 248.22,-86.79 338.09,-88.88"/>
<polygon fill="black" stroke="black" points="338.1,-92.38 348.14,-89 338.18,-85.38 338.1,-92.38"/>
</g>
<!-- c21 -->
<g id="node11" class="node">
<title>c21</title>
<polygon fill="none" stroke="black" points="153.5,-214.5 153.5,-283.5 281.5,-283.5 281.5,-214.5 153.5,-214.5"/>
<text text-anchor="middle" x="167" y="-268.3" font-family="Times,serif" font-size="14.00">A</text>
<polyline fill="none" stroke="black" points="153.5,-260.5 180.5,-260.5 "/>
<text text-anchor="middle" x="167" y="-245.3" font-family="Times,serif" font-size="14.00">B</text>
<polyline fill="none" stroke="black" points="153.5,-237.5 180.5,-237.5 "/>
<text text-anchor="middle" x="167" y="-222.3" font-family="Times,serif" font-size="14.00">S</text>
<polyline fill="none" stroke="black" points="180.5,-214.5 180.5,-283.5 "/>
<text text-anchor="middle" x="218" y="-252.8" font-family="Times,serif" font-size="14.00">$93</text>
<text text-anchor="middle" x="218" y="-237.8" font-family="Times,serif" font-size="14.00">$_MUX_</text>
<polyline fill="none" stroke="black" points="255.5,-214.5 255.5,-283.5 "/>
<text text-anchor="middle" x="268.5" y="-245.3" font-family="Times,serif" font-size="14.00">Y</text>
</g>
<!-- n4&#45;&gt;c21 -->
<g id="edge5" class="edge">
<title>n4:e&#45;&gt;c21:w</title>
<path fill="none" stroke="black" d="M92.86,-136C136.91,-136 109.91,-211.84 142.3,-224.28"/>
<polygon fill="black" stroke="black" points="142.06,-227.79 152.5,-226 143.22,-220.89 142.06,-227.79"/>
</g>
<!-- n5 -->
<g id="node2" class="node">
<title>n5</title>
<polygon fill="none" stroke="black" points="446.34,-333.54 446.34,-348.46 422.79,-359 389.49,-359 365.94,-348.46 365.94,-333.54 389.49,-323 422.79,-323 446.34,-333.54"/>
<text text-anchor="middle" x="406.14" y="-337.3" font-family="Times,serif" font-size="14.00">bresp</text>
</g>
<!-- n6 -->
<g id="node3" class="node">
<title>n6</title>
<polygon fill="none" stroke="black" points="807.77,-131.54 807.77,-146.46 782.92,-157 747.78,-157 722.93,-146.46 722.93,-131.54 747.78,-121 782.92,-121 807.77,-131.54"/>
<text text-anchor="middle" x="765.35" y="-135.3" font-family="Times,serif" font-size="14.00">bvalid</text>
</g>
<!-- n7 -->
<g id="node4" class="node">
<title>n7</title>
<polygon fill="none" stroke="black" points="433.14,-241.54 433.14,-256.46 417.32,-267 394.96,-267 379.14,-256.46 379.14,-241.54 394.96,-231 417.32,-231 433.14,-241.54"/>
<text text-anchor="middle" x="406.14" y="-245.3" font-family="Times,serif" font-size="14.00">clk</text>
</g>
<!-- c15 -->
<g id="node7" class="node">
<title>c15</title>
<polygon fill="none" stroke="black" points="506.14,-93 506.14,-185 687.14,-185 687.14,-93 506.14,-93"/>
<text text-anchor="middle" x="520.14" y="-169.8" font-family="Times,serif" font-size="14.00">C</text>
<polyline fill="none" stroke="black" points="506.14,-162 534.14,-162 "/>
<text text-anchor="middle" x="520.14" y="-146.8" font-family="Times,serif" font-size="14.00">D</text>
<polyline fill="none" stroke="black" points="506.14,-139 534.14,-139 "/>
<text text-anchor="middle" x="520.14" y="-123.8" font-family="Times,serif" font-size="14.00">E</text>
<polyline fill="none" stroke="black" points="506.14,-116 534.14,-116 "/>
<text text-anchor="middle" x="520.14" y="-100.8" font-family="Times,serif" font-size="14.00">R</text>
<polyline fill="none" stroke="black" points="534.14,-93 534.14,-185 "/>
<text text-anchor="middle" x="596.64" y="-142.8" font-family="Times,serif" font-size="14.00">$95</text>
<text text-anchor="middle" x="596.64" y="-127.8" font-family="Times,serif" font-size="14.00">$_DFFE_PP0P_</text>
<polyline fill="none" stroke="black" points="659.14,-93 659.14,-185 "/>
<text text-anchor="middle" x="673.14" y="-135.3" font-family="Times,serif" font-size="14.00">Q</text>
</g>
<!-- n7&#45;&gt;c15 -->
<g id="edge8" class="edge">
<title>n7:e&#45;&gt;c15:w</title>
<path fill="none" stroke="black" d="M434.14,-249C454.14,-249 456,-236.14 470.14,-222 486.05,-206.09 481.76,-182.86 496.05,-175.98"/>
<polygon fill="black" stroke="black" points="497,-179.36 506.14,-174 495.65,-172.49 497,-179.36"/>
</g>
<!-- n8 -->
<g id="node5" class="node">
<title>n8</title>
<polygon fill="none" stroke="black" points="433.14,-33.54 433.14,-48.46 417.32,-59 394.96,-59 379.14,-48.46 379.14,-33.54 394.96,-23 417.32,-23 433.14,-33.54"/>
<text text-anchor="middle" x="406.14" y="-37.3" font-family="Times,serif" font-size="14.00">rst</text>
</g>
<!-- n8&#45;&gt;c15 -->
<g id="edge9" class="edge">
<title>n8:e&#45;&gt;c15:w</title>
<path fill="none" stroke="black" d="M434.14,-41C454.14,-41 455.03,-54.9 470.14,-68 484.16,-80.16 484.18,-96.6 496.22,-102.11"/>
<polygon fill="black" stroke="black" points="495.66,-105.56 506.14,-104 496.97,-98.69 495.66,-105.56"/>
</g>
<!-- n9 -->
<g id="node6" class="node">
<title>n9</title>
<polygon fill="none" stroke="black" points="306.28,-116.54 306.28,-131.46 254.28,-142 180.73,-142 128.72,-131.46 128.72,-116.54 180.73,-106 254.28,-106 306.28,-116.54"/>
<text text-anchor="middle" x="217.5" y="-120.3" font-family="Times,serif" font-size="14.00">write_complete</text>
</g>
<!-- n9&#45;&gt;c19 -->
<g id="edge10" class="edge">
<title>n9:e&#45;&gt;c19:w</title>
<path fill="none" stroke="black" d="M306.14,-124C321.52,-124 326.81,-117.01 338.08,-114.18"/>
<polygon fill="black" stroke="black" points="338.62,-117.64 348.14,-113 337.8,-110.69 338.62,-117.64"/>
</g>
<!-- c22 -->
<g id="node13" class="node">
<title>c22</title>
<polygon fill="none" stroke="black" points="342.14,-143.5 342.14,-212.5 470.14,-212.5 470.14,-143.5 342.14,-143.5"/>
<text text-anchor="middle" x="355.64" y="-197.3" font-family="Times,serif" font-size="14.00">A</text>
<polyline fill="none" stroke="black" points="342.14,-189.5 369.14,-189.5 "/>
<text text-anchor="middle" x="355.64" y="-174.3" font-family="Times,serif" font-size="14.00">B</text>
<polyline fill="none" stroke="black" points="342.14,-166.5 369.14,-166.5 "/>
<text text-anchor="middle" x="355.64" y="-151.3" font-family="Times,serif" font-size="14.00">S</text>
<polyline fill="none" stroke="black" points="369.14,-143.5 369.14,-212.5 "/>
<text text-anchor="middle" x="406.64" y="-181.8" font-family="Times,serif" font-size="14.00">$94</text>
<text text-anchor="middle" x="406.64" y="-166.8" font-family="Times,serif" font-size="14.00">$_MUX_</text>
<polyline fill="none" stroke="black" points="444.14,-143.5 444.14,-212.5 "/>
<text text-anchor="middle" x="457.14" y="-174.3" font-family="Times,serif" font-size="14.00">Y</text>
</g>
<!-- n9&#45;&gt;c22 -->
<g id="edge11" class="edge">
<title>n9:e&#45;&gt;c22:w</title>
<path fill="none" stroke="black" d="M306.14,-124C323.13,-124 322.42,-144.07 332.49,-151.91"/>
<polygon fill="black" stroke="black" points="331.55,-155.29 342.14,-155 333.68,-148.62 331.55,-155.29"/>
</g>
<!-- c15&#45;&gt;n6 -->
<g id="edge7" class="edge">
<title>c15:e&#45;&gt;n6:w</title>
<path fill="none" stroke="black" d="M687.14,-139C699.14,-139 704.39,-139 713.02,-139"/>
<polygon fill="black" stroke="black" points="713.14,-142.5 723.14,-139 713.14,-135.5 713.14,-142.5"/>
</g>
<!-- c19&#45;&gt;c15 -->
<g id="edge2" class="edge">
<title>c19:e&#45;&gt;c15:w</title>
<path fill="none" stroke="black" d="M464.14,-101C482.15,-101 484.1,-118.5 496.34,-124.78"/>
<polygon fill="black" stroke="black" points="495.62,-128.21 506.14,-127 497.16,-121.38 495.62,-128.21"/>
</g>
<!-- v0 -->
<g id="node9" class="node">
<title>v0</title>
<ellipse fill="none" stroke="black" cx="46.43" cy="-287" rx="27" ry="18"/>
<text text-anchor="middle" x="46.43" y="-283.3" font-family="Times,serif" font-size="14.00">1&#39;x</text>
</g>
<!-- v0&#45;&gt;c21 -->
<g id="edge12" class="edge">
<title>v0:e&#45;&gt;c21:w</title>
<path fill="none" stroke="black" d="M74.43,-287C106.04,-287 115.3,-275 142.19,-272.47"/>
<polygon fill="black" stroke="black" points="142.67,-275.95 152.5,-272 142.35,-268.95 142.67,-275.95"/>
</g>
<!-- v1 -->
<g id="node10" class="node">
<title>v1</title>
<ellipse fill="none" stroke="black" cx="46.43" cy="-233" rx="27" ry="18"/>
<text text-anchor="middle" x="46.43" y="-229.3" font-family="Times,serif" font-size="14.00">1&#39;0</text>
</g>
<!-- v1&#45;&gt;c21 -->
<g id="edge13" class="edge">
<title>v1:e&#45;&gt;c21:w</title>
<path fill="none" stroke="black" d="M74.43,-233C106.11,-233 115.24,-245.8 142.17,-248.5"/>
<polygon fill="black" stroke="black" points="142.34,-252.02 152.5,-249 142.68,-245.02 142.34,-252.02"/>
</g>
<!-- c21&#45;&gt;c22 -->
<g id="edge3" class="edge">
<title>c21:e&#45;&gt;c22:w</title>
<path fill="none" stroke="black" d="M282.5,-249C312.67,-249 309.48,-211.26 332.09,-202.71"/>
<polygon fill="black" stroke="black" points="332.87,-206.13 342.14,-201 331.7,-199.22 332.87,-206.13"/>
</g>
<!-- v2 -->
<g id="node12" class="node">
<title>v2</title>
<ellipse fill="none" stroke="black" cx="217.5" cy="-178" rx="27" ry="18"/>
<text text-anchor="middle" x="217.5" y="-174.3" font-family="Times,serif" font-size="14.00">1&#39;1</text>
</g>
<!-- v2&#45;&gt;c22 -->
<g id="edge14" class="edge">
<title>v2:e&#45;&gt;c22:w</title>
<path fill="none" stroke="black" d="M245.5,-178C284.76,-178 297.11,-178 331.74,-178"/>
<polygon fill="black" stroke="black" points="332.14,-181.5 342.14,-178 332.14,-174.5 332.14,-181.5"/>
</g>
<!-- c22&#45;&gt;c15 -->
<g id="edge1" class="edge">
<title>c22:e&#45;&gt;c15:w</title>
<path fill="none" stroke="black" d="M470.14,-178C486.08,-178 486.78,-160.85 496.52,-153.89"/>
<polygon fill="black" stroke="black" points="497.57,-157.23 506.14,-151 495.56,-150.52 497.57,-157.23"/>
</g>
<!-- v3 -->
<g id="node14" class="node">
<title>v3</title>
<ellipse fill="none" stroke="black" cx="46.43" cy="-341" rx="30.59" ry="18"/>
<text text-anchor="middle" x="46.43" y="-337.3" font-family="Times,serif" font-size="14.00">2&#39;00</text>
</g>
<!-- x4 -->
<g id="node15" class="node">
<title>x4</title>
<path fill="none" stroke="black" d="M232.5,-359C232.5,-359 202.5,-359 202.5,-359 196.5,-359 190.5,-353 190.5,-347 190.5,-347 190.5,-335 190.5,-335 190.5,-329 196.5,-323 202.5,-323 202.5,-323 232.5,-323 232.5,-323 238.5,-323 244.5,-329 244.5,-335 244.5,-335 244.5,-347 244.5,-347 244.5,-353 238.5,-359 232.5,-359"/>
<text text-anchor="middle" x="217.5" y="-337.3" font-family="Times,serif" font-size="14.00">BUF</text>
</g>
<!-- v3&#45;&gt;x4 -->
<g id="edge15" class="edge">
<title>v3:e&#45;&gt;x4:w</title>
<path fill="none" stroke="black" stroke-width="3" d="M78.43,-341C124.23,-341 138.16,-341 179.35,-341"/>
<polygon fill="black" stroke="black" stroke-width="3" points="179.5,-344.5 189.5,-341 179.5,-337.5 179.5,-344.5"/>
</g>
<!-- x4&#45;&gt;n5 -->
<g id="edge6" class="edge">
<title>x4:e&#45;&gt;n5:w</title>
<path fill="none" stroke="black" stroke-width="3" d="M245.5,-341C295.14,-341 310.03,-341 355.05,-341"/>
<polygon fill="black" stroke="black" stroke-width="3" points="355.14,-344.5 365.14,-341 355.14,-337.5 355.14,-344.5"/>
</g>
</g>
</svg>
