<?xml version="1.0" encoding="UTF-8" standalone="no"?>
<!DOCTYPE svg PUBLIC "-//W3C//DTD SVG 1.1//EN"
 "http://www.w3.org/Graphics/SVG/1.1/DTD/svg11.dtd">
<!-- Generated by graphviz version 2.43.0 (0)
 -->
<!-- Title: i2c_slave Pages: 1 -->
<svg width="3003pt" height="546pt"
 viewBox="0.00 0.00 3003.03 545.50" xmlns="http://www.w3.org/2000/svg" xmlns:xlink="http://www.w3.org/1999/xlink">
<g id="graph0" class="graph" transform="scale(1 1) rotate(0) translate(4 541.5)">
<title>i2c_slave</title>
<polygon fill="white" stroke="transparent" points="-4,4 -4,-541.5 2999.03,-541.5 2999.03,4 -4,4"/>
<text text-anchor="middle" x="1497.51" y="-7.8" font-family="Times,serif" font-size="14.00">i2c_slave</text>
<!-- n1 -->
<g id="node1" class="node">
<title>n1</title>
<polygon fill="none" stroke="black" points="2935.77,-483.54 2935.77,-498.46 2918.96,-509 2895.2,-509 2878.39,-498.46 2878.39,-483.54 2895.2,-473 2918.96,-473 2935.77,-483.54"/>
<text text-anchor="middle" x="2907.08" y="-487.3" font-family="Times,serif" font-size="14.00">ack</text>
</g>
<!-- n2 -->
<g id="node2" class="node">
<title>n2</title>
<polygon fill="none" stroke="black" points="1828.6,-518 1741.46,-500 1828.6,-482 1915.74,-500 1828.6,-518"/>
<text text-anchor="middle" x="1828.6" y="-496.3" font-family="Times,serif" font-size="14.00">ack_enable</text>
</g>
<!-- c15 -->
<g id="node15" class="node">
<title>c15</title>
<polygon fill="none" stroke="black" points="2218.78,-445 2218.78,-537 2529.78,-537 2529.78,-445 2218.78,-445"/>
<text text-anchor="middle" x="2280.78" y="-521.8" font-family="Times,serif" font-size="14.00">ack_enable</text>
<polyline fill="none" stroke="black" points="2218.78,-514 2342.78,-514 "/>
<text text-anchor="middle" x="2280.78" y="-498.8" font-family="Times,serif" font-size="14.00">address_match</text>
<polyline fill="none" stroke="black" points="2218.78,-491 2342.78,-491 "/>
<text text-anchor="middle" x="2280.78" y="-475.8" font-family="Times,serif" font-size="14.00">rst</text>
<polyline fill="none" stroke="black" points="2218.78,-468 2342.78,-468 "/>
<text text-anchor="middle" x="2280.78" y="-452.8" font-family="Times,serif" font-size="14.00">scl</text>
<polyline fill="none" stroke="black" points="2342.78,-445 2342.78,-537 "/>
<text text-anchor="middle" x="2415.78" y="-494.8" font-family="Times,serif" font-size="14.00">ack_generator</text>
<text text-anchor="middle" x="2415.78" y="-479.8" font-family="Times,serif" font-size="14.00">i2c_ack_generator</text>
<polyline fill="none" stroke="black" points="2488.78,-445 2488.78,-537 "/>
<text text-anchor="middle" x="2509.28" y="-487.3" font-family="Times,serif" font-size="14.00">ack</text>
</g>
<!-- n2&#45;&gt;c15 -->
<g id="edge13" class="edge">
<title>n2:e&#45;&gt;c15:w</title>
<path fill="none" stroke="black" d="M1916.6,-500C2047.33,-500 2081.43,-524.7 2207.25,-525.95"/>
<polygon fill="black" stroke="black" points="2207.26,-529.45 2217.28,-526 2207.29,-522.45 2207.26,-529.45"/>
</g>
<!-- n3 -->
<g id="node3" class="node">
<title>n3</title>
<polygon fill="none" stroke="black" points="1206.95,-507 1093,-489 1206.95,-471 1320.9,-489 1206.95,-507"/>
<text text-anchor="middle" x="1206.95" y="-485.3" font-family="Times,serif" font-size="14.00">address_match</text>
</g>
<!-- n3&#45;&gt;c15 -->
<g id="edge15" class="edge">
<title>n3:e&#45;&gt;c15:w</title>
<path fill="none" stroke="black" d="M1320.93,-489C1505.26,-489 1549.79,-518.55 1733.93,-527 1817.99,-530.86 1839.19,-530.43 1923.28,-527 2050.81,-521.8 2084.42,-503.97 2207.11,-503.04"/>
<polygon fill="black" stroke="black" points="2207.29,-506.54 2217.28,-503 2207.26,-499.54 2207.29,-506.54"/>
</g>
<!-- c21 -->
<g id="node18" class="node">
<title>c21</title>
<polygon fill="none" stroke="black" points="1356.93,-192 1356.93,-330 1697.93,-330 1697.93,-192 1356.93,-192"/>
<text text-anchor="middle" x="1418.93" y="-314.8" font-family="Times,serif" font-size="14.00">address_match</text>
<polyline fill="none" stroke="black" points="1356.93,-307 1480.93,-307 "/>
<text text-anchor="middle" x="1418.93" y="-291.8" font-family="Times,serif" font-size="14.00">byte_done</text>
<polyline fill="none" stroke="black" points="1356.93,-284 1480.93,-284 "/>
<text text-anchor="middle" x="1418.93" y="-268.8" font-family="Times,serif" font-size="14.00">rst</text>
<polyline fill="none" stroke="black" points="1356.93,-261 1480.93,-261 "/>
<text text-anchor="middle" x="1418.93" y="-245.8" font-family="Times,serif" font-size="14.00">scl</text>
<polyline fill="none" stroke="black" points="1356.93,-238 1480.93,-238 "/>
<text text-anchor="middle" x="1418.93" y="-222.8" font-family="Times,serif" font-size="14.00">start_detected</text>
<polyline fill="none" stroke="black" points="1356.93,-215 1480.93,-215 "/>
<text text-anchor="middle" x="1418.93" y="-199.8" font-family="Times,serif" font-size="14.00">stop_detected</text>
<polyline fill="none" stroke="black" points="1480.93,-192 1480.93,-330 "/>
<text text-anchor="middle" x="1537.93" y="-264.8" font-family="Times,serif" font-size="14.00">fsm</text>
<text text-anchor="middle" x="1537.93" y="-249.8" font-family="Times,serif" font-size="14.00">i2c_slave_fsm</text>
<polyline fill="none" stroke="black" points="1594.93,-192 1594.93,-330 "/>
<text text-anchor="middle" x="1646.43" y="-303.3" font-family="Times,serif" font-size="14.00">ack_enable</text>
<polyline fill="none" stroke="black" points="1594.93,-284 1697.93,-284 "/>
<text text-anchor="middle" x="1646.43" y="-257.3" font-family="Times,serif" font-size="14.00">busy</text>
<polyline fill="none" stroke="black" points="1594.93,-238 1697.93,-238 "/>
<text text-anchor="middle" x="1646.43" y="-211.3" font-family="Times,serif" font-size="14.00">shift_enable</text>
</g>
<!-- n3&#45;&gt;c21 -->
<g id="edge16" class="edge">
<title>n3:e&#45;&gt;c21:w</title>
<path fill="none" stroke="black" d="M1320.93,-489C1394.39,-489 1290.8,-335.2 1346.97,-320.18"/>
<polygon fill="black" stroke="black" points="1347.41,-323.65 1356.93,-319 1346.59,-316.7 1347.41,-323.65"/>
</g>
<!-- n4 -->
<g id="node4" class="node">
<title>n4</title>
<polygon fill="none" stroke="black" points="2907.08,-272 2831,-254 2907.08,-236 2983.16,-254 2907.08,-272"/>
<text text-anchor="middle" x="2907.08" y="-250.3" font-family="Times,serif" font-size="14.00">bit_count</text>
</g>
<!-- n5 -->
<g id="node5" class="node">
<title>n5</title>
<polygon fill="none" stroke="black" points="1863.95,-255.54 1863.95,-270.46 1843.24,-281 1813.96,-281 1793.25,-270.46 1793.25,-255.54 1813.96,-245 1843.24,-245 1863.95,-255.54"/>
<text text-anchor="middle" x="1828.6" y="-259.3" font-family="Times,serif" font-size="14.00">busy</text>
</g>
<!-- n6 -->
<g id="node6" class="node">
<title>n6</title>
<polygon fill="none" stroke="black" points="2907.08,-398 2825.47,-380 2907.08,-362 2988.69,-380 2907.08,-398"/>
<text text-anchor="middle" x="2907.08" y="-376.3" font-family="Times,serif" font-size="14.00">byte_done</text>
</g>
<!-- n6&#45;&gt;c21 -->
<g id="edge20" class="edge">
<title>n6:e&#45;&gt;c21:w</title>
<path fill="none" stroke="black" d="M2990.08,-380C2998.09,-380 2994.9,-392.49 2989.08,-398 2936.19,-448.03 2898.06,-399.67 2825.28,-398 2661.94,-394.25 1470.97,-447 1356.43,-330.5 1348.87,-322.81 1343.86,-308.88 1346.89,-301.28"/>
<polygon fill="black" stroke="black" points="1348.77,-304.24 1355.43,-296 1345.08,-298.28 1348.77,-304.24"/>
</g>
<!-- n7 -->
<g id="node7" class="node">
<title>n7</title>
<polygon fill="none" stroke="black" points="196.97,-481.54 196.97,-496.46 139.28,-507 57.7,-507 0.01,-496.46 0.01,-481.54 57.7,-471 139.28,-471 196.97,-481.54"/>
<text text-anchor="middle" x="98.49" y="-485.3" font-family="Times,serif" font-size="14.00">received_address</text>
</g>
<!-- c17 -->
<g id="node16" class="node">
<title>c17</title>
<polygon fill="none" stroke="black" points="232.98,-470 232.98,-508 1056.98,-508 1056.98,-470 232.98,-470"/>
<text text-anchor="middle" x="302.98" y="-485.3" font-family="Times,serif" font-size="14.00">received_address</text>
<polyline fill="none" stroke="black" points="372.98,-470 372.98,-508 "/>
<text text-anchor="middle" x="684.48" y="-492.8" font-family="Times,serif" font-size="14.00">address_comparator</text>
<text text-anchor="middle" x="684.48" y="-477.8" font-family="Times,serif" font-size="14.00">$paramod$2e3e6b14b816cfd976e63c4621c0f86bd46c8788╲i2c_address_comparator</text>
<polyline fill="none" stroke="black" points="995.98,-470 995.98,-508 "/>
<text text-anchor="middle" x="1026.48" y="-485.3" font-family="Times,serif" font-size="14.00">match</text>
</g>
<!-- n7&#45;&gt;c17 -->
<g id="edge21" class="edge">
<title>n7:e&#45;&gt;c17:w</title>
<path fill="none" stroke="black" stroke-width="3" d="M196.98,-489C208.98,-489 214.23,-489 222.85,-489"/>
<polygon fill="black" stroke="black" stroke-width="3" points="222.98,-492.5 232.98,-489 222.98,-485.5 222.98,-492.5"/>
</g>
<!-- n8 -->
<g id="node8" class="node">
<title>n8</title>
<polygon fill="none" stroke="black" points="1233.95,-370.54 1233.95,-385.46 1218.14,-396 1195.77,-396 1179.95,-385.46 1179.95,-370.54 1195.77,-360 1218.14,-360 1233.95,-370.54"/>
<text text-anchor="middle" x="1206.95" y="-374.3" font-family="Times,serif" font-size="14.00">rst</text>
</g>
<!-- n8&#45;&gt;c15 -->
<g id="edge22" class="edge">
<title>n8:e&#45;&gt;c15:w</title>
<path fill="none" stroke="black" d="M1234.95,-378C1291.11,-378 1301.59,-401.41 1356.93,-411 1542.67,-443.18 2009.18,-477.8 2207.19,-478.97"/>
<polygon fill="black" stroke="black" points="2207.26,-482.47 2217.28,-479 2207.29,-475.47 2207.26,-482.47"/>
</g>
<!-- c20 -->
<g id="node17" class="node">
<title>c20</title>
<polygon fill="none" stroke="black" points="1959.28,-201.5 1959.28,-270.5 2789.28,-270.5 2789.28,-201.5 1959.28,-201.5"/>
<text text-anchor="middle" x="1991.28" y="-255.3" font-family="Times,serif" font-size="14.00">enable</text>
<polyline fill="none" stroke="black" points="1959.28,-247.5 2023.28,-247.5 "/>
<text text-anchor="middle" x="1991.28" y="-232.3" font-family="Times,serif" font-size="14.00">rst</text>
<polyline fill="none" stroke="black" points="1959.28,-224.5 2023.28,-224.5 "/>
<text text-anchor="middle" x="1991.28" y="-209.3" font-family="Times,serif" font-size="14.00">scl</text>
<polyline fill="none" stroke="black" points="2023.28,-201.5 2023.28,-270.5 "/>
<text text-anchor="middle" x="2364.78" y="-239.8" font-family="Times,serif" font-size="14.00">bit_counter</text>
<text text-anchor="middle" x="2364.78" y="-224.8" font-family="Times,serif" font-size="14.00">$paramod╲i2c_slave_bit_counter╲DATA_WIDTH=s32&#39;00000000000000000000000000001000</text>
<polyline fill="none" stroke="black" points="2706.28,-201.5 2706.28,-270.5 "/>
<text text-anchor="middle" x="2747.78" y="-249.8" font-family="Times,serif" font-size="14.00">bit_count</text>
<polyline fill="none" stroke="black" points="2706.28,-236.5 2789.28,-236.5 "/>
<text text-anchor="middle" x="2747.78" y="-215.3" font-family="Times,serif" font-size="14.00">done</text>
</g>
<!-- n8&#45;&gt;c20 -->
<g id="edge23" class="edge">
<title>n8:e&#45;&gt;c20:w</title>
<path fill="none" stroke="black" d="M1234.95,-378C1388.01,-378 1804.21,-450.17 1923.28,-354 1962.77,-322.11 1913,-248.13 1948.9,-237.33"/>
<polygon fill="black" stroke="black" points="1949.8,-240.74 1959.28,-236 1948.91,-233.8 1949.8,-240.74"/>
</g>
<!-- n8&#45;&gt;c21 -->
<g id="edge24" class="edge">
<title>n8:e&#45;&gt;c21:w</title>
<path fill="none" stroke="black" d="M1234.95,-378C1302.85,-378 1287.3,-283.39 1346.72,-273.78"/>
<polygon fill="black" stroke="black" points="1347.23,-277.26 1356.93,-273 1346.69,-270.28 1347.23,-277.26"/>
</g>
<!-- c23 -->
<g id="node19" class="node">
<title>c23</title>
<polygon fill="none" stroke="black" points="1966.78,-71 1966.78,-163 2781.78,-163 2781.78,-71 1966.78,-71"/>
<text text-anchor="middle" x="1990.28" y="-147.8" font-family="Times,serif" font-size="14.00">load</text>
<polyline fill="none" stroke="black" points="1966.78,-140 2013.78,-140 "/>
<text text-anchor="middle" x="1990.28" y="-124.8" font-family="Times,serif" font-size="14.00">rst</text>
<polyline fill="none" stroke="black" points="1966.78,-117 2013.78,-117 "/>
<text text-anchor="middle" x="1990.28" y="-101.8" font-family="Times,serif" font-size="14.00">scl</text>
<polyline fill="none" stroke="black" points="1966.78,-94 2013.78,-94 "/>
<text text-anchor="middle" x="1990.28" y="-78.8" font-family="Times,serif" font-size="14.00">sda</text>
<polyline fill="none" stroke="black" points="2013.78,-71 2013.78,-163 "/>
<text text-anchor="middle" x="2362.78" y="-120.8" font-family="Times,serif" font-size="14.00">shift_register</text>
<text text-anchor="middle" x="2362.78" y="-105.8" font-family="Times,serif" font-size="14.00">$paramod╲i2c_slave_shift_register╲DATA_WIDTH=s32&#39;00000000000000000000000000001000</text>
<polyline fill="none" stroke="black" points="2711.78,-71 2711.78,-163 "/>
<text text-anchor="middle" x="2746.78" y="-113.3" font-family="Times,serif" font-size="14.00">rx_data</text>
</g>
<!-- n8&#45;&gt;c23 -->
<g id="edge25" class="edge">
<title>n8:e&#45;&gt;c23:w</title>
<path fill="none" stroke="black" d="M1234.95,-378C1312.06,-378 1867.76,-343.51 1923.28,-290 1973.82,-241.29 1899.62,-139.99 1955.2,-129.83"/>
<polygon fill="black" stroke="black" points="1955.6,-133.31 1965.28,-129 1955.02,-126.33 1955.6,-133.31"/>
</g>
<!-- n9 -->
<g id="node9" class="node">
<title>n9</title>
<polygon fill="none" stroke="black" points="2956.57,-109.54 2956.57,-124.46 2927.58,-135 2886.58,-135 2857.59,-124.46 2857.59,-109.54 2886.58,-99 2927.58,-99 2956.57,-109.54"/>
<text text-anchor="middle" x="2907.08" y="-113.3" font-family="Times,serif" font-size="14.00">rx_data</text>
</g>
<!-- n10 -->
<g id="node10" class="node">
<title>n10</title>
<polygon fill="none" stroke="black" points="1233.95,-123.54 1233.95,-138.46 1218.14,-149 1195.77,-149 1179.95,-138.46 1179.95,-123.54 1195.77,-113 1218.14,-113 1233.95,-123.54"/>
<text text-anchor="middle" x="1206.95" y="-127.3" font-family="Times,serif" font-size="14.00">scl</text>
</g>
<!-- n10&#45;&gt;c15 -->
<g id="edge2" class="edge">
<title>n10:e&#45;&gt;c15:w</title>
<path fill="none" stroke="black" d="M1234.95,-131C1286.71,-131 1647.97,-168.5 1697.93,-182 1714.83,-186.57 1717.24,-192.69 1733.93,-198 1815.72,-224.03 1849.73,-191.76 1923.28,-236 1944.93,-249.02 1940.65,-262.93 1959.28,-280 2059.01,-371.4 2077.56,-451.82 2206.93,-455.84"/>
<polygon fill="black" stroke="black" points="2207.22,-459.35 2217.28,-456 2207.33,-452.35 2207.22,-459.35"/>
</g>
<!-- n10&#45;&gt;c20 -->
<g id="edge3" class="edge">
<title>n10:e&#45;&gt;c20:w</title>
<path fill="none" stroke="black" d="M1234.95,-131C1311.45,-131 1858.24,-103.73 1923.28,-144 1949.12,-160 1930.62,-201.18 1949.25,-210.91"/>
<polygon fill="black" stroke="black" points="1948.77,-214.39 1959.28,-213 1950.2,-207.54 1948.77,-214.39"/>
</g>
<!-- n10&#45;&gt;c21 -->
<g id="edge4" class="edge">
<title>n10:e&#45;&gt;c21:w</title>
<path fill="none" stroke="black" d="M1234.95,-131C1275.88,-131 1291.5,-135.56 1320.93,-164 1347.55,-189.73 1322.04,-238.23 1346.94,-247.46"/>
<polygon fill="black" stroke="black" points="1346.51,-250.94 1356.93,-249 1347.58,-244.02 1346.51,-250.94"/>
</g>
<!-- n10&#45;&gt;c23 -->
<g id="edge5" class="edge">
<title>n10:e&#45;&gt;c23:w</title>
<path fill="none" stroke="black" d="M1234.95,-131C1289.89,-131 1302.2,-115.73 1356.93,-111 1622.89,-88.02 1693.11,-104.57 1955.07,-104.99"/>
<polygon fill="black" stroke="black" points="1955.27,-108.49 1965.28,-105 1955.28,-101.49 1955.27,-108.49"/>
</g>
<!-- n11 -->
<g id="node11" class="node">
<title>n11</title>
<polygon fill="none" stroke="black" points="1857.29,-33.54 1857.29,-48.46 1840.48,-59 1816.72,-59 1799.91,-48.46 1799.91,-33.54 1816.72,-23 1840.48,-23 1857.29,-33.54"/>
<text text-anchor="middle" x="1828.6" y="-37.3" font-family="Times,serif" font-size="14.00">sda</text>
</g>
<!-- n11&#45;&gt;c23 -->
<g id="edge6" class="edge">
<title>n11:e&#45;&gt;c23:w</title>
<path fill="none" stroke="black" d="M1858.6,-41C1905.82,-41 1913.54,-76.44 1955.21,-81.42"/>
<polygon fill="black" stroke="black" points="1955.09,-84.92 1965.28,-82 1955.49,-77.93 1955.09,-84.92"/>
</g>
<!-- n12 -->
<g id="node12" class="node">
<title>n12</title>
<polygon fill="none" stroke="black" points="1828.6,-189 1733.76,-171 1828.6,-153 1923.45,-171 1828.6,-189"/>
<text text-anchor="middle" x="1828.6" y="-167.3" font-family="Times,serif" font-size="14.00">shift_enable</text>
</g>
<!-- n12&#45;&gt;c20 -->
<g id="edge8" class="edge">
<title>n12:e&#45;&gt;c20:w</title>
<path fill="none" stroke="black" d="M1923.28,-171C1961.41,-171 1925.63,-242.65 1949.32,-256.65"/>
<polygon fill="black" stroke="black" points="1948.74,-260.1 1959.28,-259 1950.35,-253.29 1948.74,-260.1"/>
</g>
<!-- n12&#45;&gt;c23 -->
<g id="edge9" class="edge">
<title>n12:e&#45;&gt;c23:w</title>
<path fill="none" stroke="black" d="M1923.28,-171C1939.76,-171 1943.64,-158.7 1955.21,-153.89"/>
<polygon fill="black" stroke="black" points="1956.09,-157.29 1965.28,-152 1954.8,-150.41 1956.09,-157.29"/>
</g>
<!-- n13 -->
<g id="node13" class="node">
<title>n13</title>
<polygon fill="none" stroke="black" points="1291.29,-237.54 1291.29,-252.46 1241.89,-263 1172.02,-263 1122.62,-252.46 1122.62,-237.54 1172.02,-227 1241.89,-227 1291.29,-237.54"/>
<text text-anchor="middle" x="1206.95" y="-241.3" font-family="Times,serif" font-size="14.00">start_detected</text>
</g>
<!-- n13&#45;&gt;c21 -->
<g id="edge10" class="edge">
<title>n13:e&#45;&gt;c21:w</title>
<path fill="none" stroke="black" d="M1291.95,-245C1318.28,-245 1325.25,-230.45 1346.73,-226.82"/>
<polygon fill="black" stroke="black" points="1347.24,-230.29 1356.93,-226 1346.68,-223.31 1347.24,-230.29"/>
</g>
<!-- n14 -->
<g id="node14" class="node">
<title>n14</title>
<polygon fill="none" stroke="black" points="1288.66,-183.54 1288.66,-198.46 1240.8,-209 1173.11,-209 1125.24,-198.46 1125.24,-183.54 1173.11,-173 1240.8,-173 1288.66,-183.54"/>
<text text-anchor="middle" x="1206.95" y="-187.3" font-family="Times,serif" font-size="14.00">stop_detected</text>
</g>
<!-- n14&#45;&gt;c21 -->
<g id="edge11" class="edge">
<title>n14:e&#45;&gt;c21:w</title>
<path fill="none" stroke="black" d="M1289.95,-191C1316.53,-191 1324.77,-200.27 1346.9,-202.51"/>
<polygon fill="black" stroke="black" points="1346.77,-206.01 1356.93,-203 1347.11,-199.02 1346.77,-206.01"/>
</g>
<!-- c15&#45;&gt;n1 -->
<g id="edge1" class="edge">
<title>c15:e&#45;&gt;n1:w</title>
<path fill="none" stroke="black" d="M2531.28,-491C2681.51,-491 2721.61,-491 2866.9,-491"/>
<polygon fill="black" stroke="black" points="2867.08,-494.5 2877.08,-491 2867.08,-487.5 2867.08,-494.5"/>
</g>
<!-- c17&#45;&gt;n3 -->
<g id="edge14" class="edge">
<title>c17:e&#45;&gt;n3:w</title>
<path fill="none" stroke="black" d="M1056.98,-489C1068.98,-489 1074.23,-489 1082.85,-489"/>
<polygon fill="black" stroke="black" points="1082.98,-492.5 1092.98,-489 1082.98,-485.5 1082.98,-492.5"/>
</g>
<!-- c20&#45;&gt;n4 -->
<g id="edge17" class="edge">
<title>c20:e&#45;&gt;n4:w</title>
<path fill="none" stroke="black" stroke-width="3" d="M2789.28,-254C2803.44,-254 2809.31,-254 2819.85,-254"/>
<polygon fill="black" stroke="black" stroke-width="3" points="2820.08,-257.5 2830.08,-254 2820.08,-250.5 2820.08,-257.5"/>
</g>
<!-- c20&#45;&gt;n6 -->
<g id="edge19" class="edge">
<title>c20:e&#45;&gt;n6:w</title>
<path fill="none" stroke="black" d="M2789.28,-219C2858.73,-219 2763.11,-363.47 2815.16,-378.7"/>
<polygon fill="black" stroke="black" points="2814.91,-382.2 2825.28,-380 2815.8,-375.26 2814.91,-382.2"/>
</g>
<!-- c21&#45;&gt;n2 -->
<g id="edge12" class="edge">
<title>c21:e&#45;&gt;n2:w</title>
<path fill="none" stroke="black" d="M1697.93,-307C1782,-307 1663.78,-483.77 1730.47,-498.96"/>
<polygon fill="black" stroke="black" points="1730.3,-502.46 1740.6,-500 1731.01,-495.5 1730.3,-502.46"/>
</g>
<!-- c21&#45;&gt;n5 -->
<g id="edge18" class="edge">
<title>c21:e&#45;&gt;n5:w</title>
<path fill="none" stroke="black" d="M1697.93,-261C1735.99,-261 1747.94,-262.67 1781.52,-262.96"/>
<polygon fill="black" stroke="black" points="1781.59,-266.46 1791.6,-263 1781.62,-259.46 1781.59,-266.46"/>
</g>
<!-- c21&#45;&gt;n12 -->
<g id="edge7" class="edge">
<title>c21:e&#45;&gt;n12:w</title>
<path fill="none" stroke="black" d="M1697.93,-215C1719.05,-215 1712.36,-184.25 1724.36,-174.16"/>
<polygon fill="black" stroke="black" points="1725.53,-177.46 1733.93,-171 1723.34,-170.82 1725.53,-177.46"/>
</g>
<!-- c23&#45;&gt;n9 -->
<g id="edge26" class="edge">
<title>c23:e&#45;&gt;n9:w</title>
<path fill="none" stroke="black" stroke-width="3" d="M2783.28,-117C2812.36,-117 2822.1,-117 2846.81,-117"/>
<polygon fill="black" stroke="black" stroke-width="3" points="2847.08,-120.5 2857.08,-117 2847.08,-113.5 2847.08,-120.5"/>
</g>
</g>
</svg>
