<?xml version="1.0" encoding="UTF-8" standalone="no"?>
<!DOCTYPE svg PUBLIC "-//W3C//DTD SVG 1.1//EN"
 "http://www.w3.org/Graphics/SVG/1.1/DTD/svg11.dtd">
<!-- Generated by graphviz version 2.43.0 (0)
 -->
<!-- Title: half_adder Pages: 1 -->
<svg width="315pt" height="143pt"
 viewBox="0.00 0.00 314.98 143.00" xmlns="http://www.w3.org/2000/svg" xmlns:xlink="http://www.w3.org/1999/xlink">
<g id="graph0" class="graph" transform="scale(1 1) rotate(0) translate(4 139)">
<title>half_adder</title>
<polygon fill="white" stroke="transparent" points="-4,4 -4,-139 310.98,-139 310.98,4 -4,4"/>
<text text-anchor="middle" x="153.49" y="-7.8" font-family="Times,serif" font-size="14.00">half_adder</text>
<!-- n1 -->
<g id="node1" class="node">
<title>n1</title>
<polygon fill="none" stroke="black" points="54,-107.04 54,-121.96 38.18,-132.5 15.82,-132.5 0,-121.96 0,-107.04 15.82,-96.5 38.18,-96.5 54,-107.04"/>
<text text-anchor="middle" x="27" y="-110.8" font-family="Times,serif" font-size="14.00">a</text>
</g>
<!-- c8 -->
<g id="node5" class="node">
<title>c8</title>
<polygon fill="none" stroke="black" points="90,-88.5 90,-134.5 195,-134.5 195,-88.5 90,-88.5"/>
<text text-anchor="middle" x="103.5" y="-119.3" font-family="Times,serif" font-size="14.00">A</text>
<polyline fill="none" stroke="black" points="90,-111.5 117,-111.5 "/>
<text text-anchor="middle" x="103.5" y="-96.3" font-family="Times,serif" font-size="14.00">B</text>
<polyline fill="none" stroke="black" points="117,-88.5 117,-134.5 "/>
<text text-anchor="middle" x="143" y="-115.3" font-family="Times,serif" font-size="14.00">$2</text>
<text text-anchor="middle" x="143" y="-100.3" font-family="Times,serif" font-size="14.00">$and</text>
<polyline fill="none" stroke="black" points="169,-88.5 169,-134.5 "/>
<text text-anchor="middle" x="182" y="-107.8" font-family="Times,serif" font-size="14.00">Y</text>
</g>
<!-- n1&#45;&gt;c8 -->
<g id="edge1" class="edge">
<title>n1:e&#45;&gt;c8:w</title>
<path fill="none" stroke="black" d="M54,-114.5C66.5,-114.5 71.26,-119.67 80.01,-122.17"/>
<polygon fill="black" stroke="black" points="79.63,-125.65 90,-123.5 80.55,-118.71 79.63,-125.65"/>
</g>
<!-- c9 -->
<g id="node6" class="node">
<title>c9</title>
<polygon fill="none" stroke="black" points="91.5,-23.5 91.5,-69.5 193.5,-69.5 193.5,-23.5 91.5,-23.5"/>
<text text-anchor="middle" x="105" y="-54.3" font-family="Times,serif" font-size="14.00">A</text>
<polyline fill="none" stroke="black" points="91.5,-46.5 118.5,-46.5 "/>
<text text-anchor="middle" x="105" y="-31.3" font-family="Times,serif" font-size="14.00">B</text>
<polyline fill="none" stroke="black" points="118.5,-23.5 118.5,-69.5 "/>
<text text-anchor="middle" x="143" y="-50.3" font-family="Times,serif" font-size="14.00">$1</text>
<text text-anchor="middle" x="143" y="-35.3" font-family="Times,serif" font-size="14.00">$xor</text>
<polyline fill="none" stroke="black" points="167.5,-23.5 167.5,-69.5 "/>
<text text-anchor="middle" x="180.5" y="-42.8" font-family="Times,serif" font-size="14.00">Y</text>
</g>
<!-- n1&#45;&gt;c9 -->
<g id="edge2" class="edge">
<title>n1:e&#45;&gt;c9:w</title>
<path fill="none" stroke="black" d="M54,-114.5C79.53,-114.5 66.2,-73.14 80.8,-61.51"/>
<polygon fill="black" stroke="black" points="81.99,-64.81 90.5,-58.5 79.91,-58.12 81.99,-64.81"/>
</g>
<!-- n2 -->
<g id="node2" class="node">
<title>n2</title>
<polygon fill="none" stroke="black" points="54,-36.04 54,-50.96 38.18,-61.5 15.82,-61.5 0,-50.96 0,-36.04 15.82,-25.5 38.18,-25.5 54,-36.04"/>
<text text-anchor="middle" x="27" y="-39.8" font-family="Times,serif" font-size="14.00">b</text>
</g>
<!-- n2&#45;&gt;c8 -->
<g id="edge3" class="edge">
<title>n2:e&#45;&gt;c8:w</title>
<path fill="none" stroke="black" d="M54,-43.5C79.43,-43.5 65.89,-84.86 80.35,-96.49"/>
<polygon fill="black" stroke="black" points="79.41,-99.86 90,-99.5 81.5,-93.18 79.41,-99.86"/>
</g>
<!-- n2&#45;&gt;c9 -->
<g id="edge4" class="edge">
<title>n2:e&#45;&gt;c9:w</title>
<path fill="none" stroke="black" d="M54,-43.5C66.66,-43.5 71.5,-38.33 80.37,-35.83"/>
<polygon fill="black" stroke="black" points="81.04,-39.27 90.5,-34.5 80.13,-32.33 81.04,-39.27"/>
</g>
<!-- n3 -->
<g id="node3" class="node">
<title>n3</title>
<polygon fill="none" stroke="black" points="306.97,-104.04 306.97,-118.96 284.72,-129.5 253.26,-129.5 231.01,-118.96 231.01,-104.04 253.26,-93.5 284.72,-93.5 306.97,-104.04"/>
<text text-anchor="middle" x="268.99" y="-107.8" font-family="Times,serif" font-size="14.00">carry</text>
</g>
<!-- n4 -->
<g id="node4" class="node">
<title>n4</title>
<polygon fill="none" stroke="black" points="302.12,-39.04 302.12,-53.96 282.71,-64.5 255.27,-64.5 235.86,-53.96 235.86,-39.04 255.27,-28.5 282.71,-28.5 302.12,-39.04"/>
<text text-anchor="middle" x="268.99" y="-42.8" font-family="Times,serif" font-size="14.00">sum</text>
</g>
<!-- c8&#45;&gt;n3 -->
<g id="edge5" class="edge">
<title>c8:e&#45;&gt;n3:w</title>
<path fill="none" stroke="black" d="M195,-111.5C207,-111.5 212.25,-111.5 220.88,-111.5"/>
<polygon fill="black" stroke="black" points="221,-115 231,-111.5 221,-108 221,-115"/>
</g>
<!-- c9&#45;&gt;n4 -->
<g id="edge6" class="edge">
<title>c9:e&#45;&gt;n4:w</title>
<path fill="none" stroke="black" d="M194.5,-46.5C208.56,-46.5 214.38,-46.5 224.83,-46.5"/>
<polygon fill="black" stroke="black" points="224.99,-50 234.99,-46.5 224.99,-43 224.99,-50"/>
</g>
</g>
</svg>
