<?xml version="1.0" encoding="UTF-8" standalone="no"?>
<!DOCTYPE svg PUBLIC "-//W3C//DTD SVG 1.1//EN"
 "http://www.w3.org/Graphics/SVG/1.1/DTD/svg11.dtd">
<!-- Generated by graphviz version 2.43.0 (0)
 -->
<!-- Title: i2c_clock_generator Pages: 1 -->
<svg width="1252pt" height="339pt"
 viewBox="0.00 0.00 1252.05 339.00" xmlns="http://www.w3.org/2000/svg" xmlns:xlink="http://www.w3.org/1999/xlink">
<g id="graph0" class="graph" transform="scale(1 1) rotate(0) translate(4 335)">
<title>i2c_clock_generator</title>
<polygon fill="white" stroke="transparent" points="-4,4 -4,-335 1248.05,-335 1248.05,4 -4,4"/>
<text text-anchor="middle" x="622.02" y="-7.8" font-family="Times,serif" font-size="14.00">i2c_clock_generator</text>
<!-- n5 -->
<g id="node1" class="node">
<title>n5</title>
<polygon fill="none" stroke="black" points="54,-239.54 54,-254.46 38.18,-265 15.82,-265 0,-254.46 0,-239.54 15.82,-229 38.18,-229 54,-239.54"/>
<text text-anchor="middle" x="27" y="-243.3" font-family="Times,serif" font-size="14.00">clk</text>
</g>
<!-- c19 -->
<g id="node8" class="node">
<title>c19</title>
<polygon fill="none" stroke="black" points="865.16,-229 865.16,-321 1010.16,-321 1010.16,-229 865.16,-229"/>
<text text-anchor="middle" x="893.16" y="-305.8" font-family="Times,serif" font-size="14.00">ARST</text>
<polyline fill="none" stroke="black" points="865.16,-298 921.16,-298 "/>
<text text-anchor="middle" x="893.16" y="-282.8" font-family="Times,serif" font-size="14.00">CLK</text>
<polyline fill="none" stroke="black" points="865.16,-275 921.16,-275 "/>
<text text-anchor="middle" x="893.16" y="-259.8" font-family="Times,serif" font-size="14.00">D</text>
<polyline fill="none" stroke="black" points="865.16,-252 921.16,-252 "/>
<text text-anchor="middle" x="893.16" y="-236.8" font-family="Times,serif" font-size="14.00">EN</text>
<polyline fill="none" stroke="black" points="921.16,-229 921.16,-321 "/>
<text text-anchor="middle" x="951.66" y="-278.8" font-family="Times,serif" font-size="14.00">$11</text>
<text text-anchor="middle" x="951.66" y="-263.8" font-family="Times,serif" font-size="14.00">$adffe</text>
<polyline fill="none" stroke="black" points="982.16,-229 982.16,-321 "/>
<text text-anchor="middle" x="996.16" y="-271.3" font-family="Times,serif" font-size="14.00">Q</text>
</g>
<!-- n5&#45;&gt;c19 -->
<g id="edge8" class="edge">
<title>n5:e&#45;&gt;c19:w</title>
<path fill="none" stroke="black" d="M54,-247C72.52,-247 72.32,-262.49 90,-268 195.66,-300.94 227.62,-287 338.29,-287 338.29,-287 338.29,-287 505.08,-287 661.68,-287 703.35,-287 855.01,-287"/>
<polygon fill="black" stroke="black" points="855.16,-290.5 865.16,-287 855.16,-283.5 855.16,-290.5"/>
</g>
<!-- c22 -->
<g id="node11" class="node">
<title>c22</title>
<polygon fill="none" stroke="black" points="90,-189.5 90,-258.5 227,-258.5 227,-189.5 90,-189.5"/>
<text text-anchor="middle" x="118" y="-243.3" font-family="Times,serif" font-size="14.00">ARST</text>
<polyline fill="none" stroke="black" points="90,-235.5 146,-235.5 "/>
<text text-anchor="middle" x="118" y="-220.3" font-family="Times,serif" font-size="14.00">CLK</text>
<polyline fill="none" stroke="black" points="90,-212.5 146,-212.5 "/>
<text text-anchor="middle" x="118" y="-197.3" font-family="Times,serif" font-size="14.00">D</text>
<polyline fill="none" stroke="black" points="146,-189.5 146,-258.5 "/>
<text text-anchor="middle" x="172.5" y="-227.8" font-family="Times,serif" font-size="14.00">$10</text>
<text text-anchor="middle" x="172.5" y="-212.8" font-family="Times,serif" font-size="14.00">$adff</text>
<polyline fill="none" stroke="black" points="199,-189.5 199,-258.5 "/>
<text text-anchor="middle" x="213" y="-220.3" font-family="Times,serif" font-size="14.00">Q</text>
</g>
<!-- n5&#45;&gt;c22 -->
<g id="edge9" class="edge">
<title>n5:e&#45;&gt;c22:w</title>
<path fill="none" stroke="black" d="M54,-247C68.83,-247 70.87,-232.96 80.11,-226.82"/>
<polygon fill="black" stroke="black" points="81.34,-230.11 90,-224 79.42,-223.38 81.34,-230.11"/>
</g>
<!-- n6 -->
<g id="node2" class="node">
<title>n6</title>
<polygon fill="none" stroke="black" points="339.29,-259 263.21,-241 339.29,-223 415.37,-241 339.29,-259"/>
<text text-anchor="middle" x="339.29" y="-237.3" font-family="Times,serif" font-size="14.00">clk_count</text>
</g>
<!-- c13 -->
<g id="node7" class="node">
<title>c13</title>
<polygon fill="none" stroke="black" points="451.58,-187 451.58,-233 556.58,-233 556.58,-187 451.58,-187"/>
<text text-anchor="middle" x="465.08" y="-217.8" font-family="Times,serif" font-size="14.00">A</text>
<polyline fill="none" stroke="black" points="451.58,-210 478.58,-210 "/>
<text text-anchor="middle" x="465.08" y="-194.8" font-family="Times,serif" font-size="14.00">B</text>
<polyline fill="none" stroke="black" points="478.58,-187 478.58,-233 "/>
<text text-anchor="middle" x="504.58" y="-213.8" font-family="Times,serif" font-size="14.00">$2</text>
<text text-anchor="middle" x="504.58" y="-198.8" font-family="Times,serif" font-size="14.00">$add</text>
<polyline fill="none" stroke="black" points="530.58,-187 530.58,-233 "/>
<text text-anchor="middle" x="543.58" y="-206.3" font-family="Times,serif" font-size="14.00">Y</text>
</g>
<!-- n6&#45;&gt;c13 -->
<g id="edge11" class="edge">
<title>n6:e&#45;&gt;c13:w</title>
<path fill="none" stroke="black" stroke-width="3" d="M415.58,-241C429.57,-241 432.63,-229.63 441.67,-224.48"/>
<polygon fill="black" stroke="black" stroke-width="3" points="442.73,-227.83 451.58,-222 441.03,-221.04 442.73,-227.83"/>
</g>
<!-- c20 -->
<g id="node9" class="node">
<title>c20</title>
<polygon fill="none" stroke="black" points="456.08,-122 456.08,-168 552.08,-168 552.08,-122 456.08,-122"/>
<text text-anchor="middle" x="469.58" y="-152.8" font-family="Times,serif" font-size="14.00">A</text>
<polyline fill="none" stroke="black" points="456.08,-145 483.08,-145 "/>
<text text-anchor="middle" x="469.58" y="-129.8" font-family="Times,serif" font-size="14.00">B</text>
<polyline fill="none" stroke="black" points="483.08,-122 483.08,-168 "/>
<text text-anchor="middle" x="504.58" y="-148.8" font-family="Times,serif" font-size="14.00">$3</text>
<text text-anchor="middle" x="504.58" y="-133.8" font-family="Times,serif" font-size="14.00">$ge</text>
<polyline fill="none" stroke="black" points="526.08,-122 526.08,-168 "/>
<text text-anchor="middle" x="539.08" y="-141.3" font-family="Times,serif" font-size="14.00">Y</text>
</g>
<!-- n6&#45;&gt;c20 -->
<g id="edge12" class="edge">
<title>n6:e&#45;&gt;c20:w</title>
<path fill="none" stroke="black" stroke-width="3" d="M415.58,-241C452.81,-241 421.42,-172.61 445.25,-159.25"/>
<polygon fill="black" stroke="black" stroke-width="3" points="446.11,-162.64 455.08,-157 444.55,-155.82 446.11,-162.64"/>
</g>
<!-- n7 -->
<g id="node3" class="node">
<title>n7</title>
<polygon fill="none" stroke="black" points="405.55,-125.54 405.55,-140.46 366.73,-151 311.85,-151 273.03,-140.46 273.03,-125.54 311.85,-115 366.73,-115 405.55,-125.54"/>
<text text-anchor="middle" x="339.29" y="-129.3" font-family="Times,serif" font-size="14.00">clk_divider</text>
</g>
<!-- n7&#45;&gt;c20 -->
<g id="edge13" class="edge">
<title>n7:e&#45;&gt;c20:w</title>
<path fill="none" stroke="black" stroke-width="3" d="M406.29,-133C424.08,-133 430.92,-133 444.78,-133"/>
<polygon fill="black" stroke="black" stroke-width="3" points="445.08,-136.5 455.08,-133 445.08,-129.5 445.08,-136.5"/>
</g>
<!-- n8 -->
<g id="node4" class="node">
<title>n8</title>
<polygon fill="none" stroke="black" points="54,-305.54 54,-320.46 38.18,-331 15.82,-331 0,-320.46 0,-305.54 15.82,-295 38.18,-295 54,-305.54"/>
<text text-anchor="middle" x="27" y="-309.3" font-family="Times,serif" font-size="14.00">rst</text>
</g>
<!-- n8&#45;&gt;c19 -->
<g id="edge14" class="edge">
<title>n8:e&#45;&gt;c19:w</title>
<path fill="none" stroke="black" d="M54,-313C180.46,-313 211.83,-325 338.29,-325 338.29,-325 338.29,-325 505.08,-325 661.81,-325 703.22,-310.64 855,-310.02"/>
<polygon fill="black" stroke="black" points="855.17,-313.52 865.16,-310 855.15,-306.52 855.17,-313.52"/>
</g>
<!-- n8&#45;&gt;c22 -->
<g id="edge15" class="edge">
<title>n8:e&#45;&gt;c22:w</title>
<path fill="none" stroke="black" d="M54,-313C83.24,-313 63.29,-262.47 80.23,-249.84"/>
<polygon fill="black" stroke="black" points="81.37,-253.15 90,-247 79.42,-246.43 81.37,-253.15"/>
</g>
<!-- n9 -->
<g id="node5" class="node">
<title>n9</title>
<polygon fill="none" stroke="black" points="1100.16,-284.54 1100.16,-299.46 1084.34,-310 1061.98,-310 1046.16,-299.46 1046.16,-284.54 1061.98,-274 1084.34,-274 1100.16,-284.54"/>
<text text-anchor="middle" x="1073.16" y="-288.3" font-family="Times,serif" font-size="14.00">scl</text>
</g>
<!-- c21 -->
<g id="node10" class="node">
<title>c21</title>
<polygon fill="none" stroke="black" points="1136.16,-250 1136.16,-288 1237.16,-288 1237.16,-250 1136.16,-250"/>
<text text-anchor="middle" x="1149.16" y="-265.3" font-family="Times,serif" font-size="14.00">A</text>
<polyline fill="none" stroke="black" points="1162.16,-250 1162.16,-288 "/>
<text text-anchor="middle" x="1186.66" y="-272.8" font-family="Times,serif" font-size="14.00">$4</text>
<text text-anchor="middle" x="1186.66" y="-257.8" font-family="Times,serif" font-size="14.00">$not</text>
<polyline fill="none" stroke="black" points="1211.16,-250 1211.16,-288 "/>
<text text-anchor="middle" x="1224.16" y="-265.3" font-family="Times,serif" font-size="14.00">Y</text>
</g>
<!-- n9&#45;&gt;c21 -->
<g id="edge17" class="edge">
<title>n9:e&#45;&gt;c21:w</title>
<path fill="none" stroke="black" d="M1100.16,-292C1114.99,-292 1117.03,-277.96 1126.27,-271.82"/>
<polygon fill="black" stroke="black" points="1127.5,-275.11 1136.16,-269 1125.58,-268.38 1127.5,-275.11"/>
</g>
<!-- v0 -->
<g id="node6" class="node">
<title>v0</title>
<ellipse fill="none" stroke="black" cx="339.29" cy="-187" rx="27" ry="18"/>
<text text-anchor="middle" x="339.29" y="-183.3" font-family="Times,serif" font-size="14.00">1</text>
</g>
<!-- v0&#45;&gt;c13 -->
<g id="edge18" class="edge">
<title>v0:e&#45;&gt;c13:w</title>
<path fill="none" stroke="black" stroke-width="3" d="M367.29,-187C401.38,-187 411.82,-195.96 441.29,-197.71"/>
<polygon fill="black" stroke="black" stroke-width="3" points="441.48,-201.21 451.58,-198 441.68,-194.22 441.48,-201.21"/>
</g>
<!-- x1 -->
<g id="node14" class="node">
<title>x1</title>
<path fill="none" stroke="black" d="M676.37,-179C676.37,-179 745.37,-179 745.37,-179 751.37,-179 757.37,-185 757.37,-191 757.37,-191 757.37,-203 757.37,-203 757.37,-209 751.37,-215 745.37,-215 745.37,-215 676.37,-215 676.37,-215 670.37,-215 664.37,-209 664.37,-203 664.37,-203 664.37,-191 664.37,-191 664.37,-185 670.37,-179 676.37,-179"/>
<text text-anchor="middle" x="710.87" y="-193.3" font-family="Times,serif" font-size="14.00">15:0 &#45; 15:0</text>
</g>
<!-- c13&#45;&gt;x1 -->
<g id="edge3" class="edge">
<title>c13:e&#45;&gt;x1:w</title>
<path fill="none" stroke="black" stroke-width="3" d="M556.58,-210C600.64,-210 613.43,-198.86 652.85,-197.2"/>
<polygon fill="black" stroke="black" stroke-width="3" points="652.94,-200.7 662.87,-197 652.8,-193.7 652.94,-200.7"/>
</g>
<!-- c19&#45;&gt;n9 -->
<g id="edge16" class="edge">
<title>c19:e&#45;&gt;n9:w</title>
<path fill="none" stroke="black" d="M1010.16,-275C1023.84,-275 1027.31,-285.17 1036.37,-289.78"/>
<polygon fill="black" stroke="black" points="1035.63,-293.2 1046.16,-292 1037.18,-286.37 1035.63,-293.2"/>
</g>
<!-- n3 -->
<g id="node15" class="node">
<title>n3</title>
<ellipse fill="black" stroke="black" cx="710.87" cy="-145" rx="1.8" ry="1.8"/>
</g>
<!-- c20&#45;&gt;n3 -->
<g id="edge4" class="edge">
<title>c20:e&#45;&gt;n3:w</title>
<path fill="none" stroke="black" d="M553.08,-145C618.38,-145 637.19,-145 697.77,-145"/>
<polygon fill="black" stroke="black" points="697.87,-148.5 707.87,-145 697.87,-141.5 697.87,-148.5"/>
</g>
<!-- c21&#45;&gt;c19 -->
<g id="edge7" class="edge">
<title>c21:e&#45;&gt;c19:w</title>
<path fill="none" stroke="black" d="M1238.66,-269C1247.34,-269 1243.95,-282.52 1237.66,-288.5 1204.95,-319.57 1179.4,-301.36 1136.16,-288.5 1117.85,-283.05 1117.09,-273.85 1100.16,-265 1061.91,-245 1052.52,-236.76 1010.16,-228.5 946.69,-216.12 911.04,-183.44 864.66,-228.5 856.92,-236.02 851.99,-250.02 855.07,-257.67"/>
<polygon fill="black" stroke="black" points="853.32,-260.7 863.66,-263 857.01,-254.75 853.32,-260.7"/>
</g>
<!-- c22&#45;&gt;n6 -->
<g id="edge10" class="edge">
<title>c22:e&#45;&gt;n6:w</title>
<path fill="none" stroke="black" stroke-width="3" d="M227,-224C240.69,-224 244.15,-234.17 253.21,-238.78"/>
<polygon fill="black" stroke="black" stroke-width="3" points="252.47,-242.2 263,-241 254.02,-235.37 252.47,-242.2"/>
</g>
<!-- v2 -->
<g id="node12" class="node">
<title>v2</title>
<ellipse fill="none" stroke="black" cx="710.87" cy="-41" rx="118.08" ry="18"/>
<text text-anchor="middle" x="710.87" y="-37.3" font-family="Times,serif" font-size="14.00">16&#39;0000000000000000</text>
</g>
<!-- c24 -->
<g id="node13" class="node">
<title>c24</title>
<polygon fill="none" stroke="black" points="883.16,-92.5 883.16,-161.5 992.16,-161.5 992.16,-92.5 883.16,-92.5"/>
<text text-anchor="middle" x="896.66" y="-146.3" font-family="Times,serif" font-size="14.00">A</text>
<polyline fill="none" stroke="black" points="883.16,-138.5 910.16,-138.5 "/>
<text text-anchor="middle" x="896.66" y="-123.3" font-family="Times,serif" font-size="14.00">B</text>
<polyline fill="none" stroke="black" points="883.16,-115.5 910.16,-115.5 "/>
<text text-anchor="middle" x="896.66" y="-100.3" font-family="Times,serif" font-size="14.00">S</text>
<polyline fill="none" stroke="black" points="910.16,-92.5 910.16,-161.5 "/>
<text text-anchor="middle" x="938.16" y="-130.8" font-family="Times,serif" font-size="14.00">$5</text>
<text text-anchor="middle" x="938.16" y="-115.8" font-family="Times,serif" font-size="14.00">$mux</text>
<polyline fill="none" stroke="black" points="966.16,-92.5 966.16,-161.5 "/>
<text text-anchor="middle" x="979.16" y="-123.3" font-family="Times,serif" font-size="14.00">Y</text>
</g>
<!-- v2&#45;&gt;c24 -->
<g id="edge19" class="edge">
<title>v2:e&#45;&gt;c24:w</title>
<path fill="none" stroke="black" stroke-width="3" d="M829.16,-41C869.92,-41 842.88,-112.24 871.45,-125.04"/>
<polygon fill="black" stroke="black" stroke-width="3" points="871.18,-128.55 881.66,-127 872.5,-121.68 871.18,-128.55"/>
</g>
<!-- c24&#45;&gt;c22 -->
<g id="edge2" class="edge">
<title>c24:e&#45;&gt;c22:w</title>
<path fill="none" stroke="black" stroke-width="3" d="M993.66,-127C1009.22,-127 1003.82,-151.15 992.66,-162 957.76,-195.92 930.44,-173.53 883.16,-162 856.89,-155.6 855.14,-141.46 829.16,-134 652.07,-83.18 599.77,-109.92 415.58,-106 347.78,-104.56 329.13,-91 263,-106 229.02,-113.71 112.53,-168.4 86.59,-191.13"/>
<polygon fill="black" stroke="black" stroke-width="3" points="83.16,-191.85 88.5,-201 90.03,-190.52 83.16,-191.85"/>
</g>
<!-- x1&#45;&gt;c24 -->
<g id="edge1" class="edge">
<title>x1:e&#45;&gt;c24:w</title>
<path fill="none" stroke="black" stroke-width="3" d="M771.06,-196.26C814.68,-190.76 825.86,-156.23 869.49,-150.74"/>
<polygon fill="none" stroke="black" stroke-width="3" points="770.85,-196.27 765.1,-200.63 758.87,-197 764.62,-192.64 770.85,-196.27"/>
<polygon fill="none" stroke="black" stroke-width="3" points="869.68,-150.72 875.43,-146.37 881.66,-150 875.91,-154.36 869.68,-150.72"/>
</g>
<!-- n3&#45;&gt;c19 -->
<g id="edge5" class="edge">
<title>n3:e&#45;&gt;c19:w</title>
<path fill="none" stroke="black" d="M713.87,-145C766.3,-145 787.57,-138.08 829.16,-170 853.66,-188.81 835.69,-228.96 855.22,-238.12"/>
<polygon fill="black" stroke="black" points="854.68,-241.58 865.16,-240 855.99,-234.7 854.68,-241.58"/>
</g>
<!-- n3&#45;&gt;c24 -->
<g id="edge6" class="edge">
<title>n3:e&#45;&gt;c24:w</title>
<path fill="none" stroke="black" d="M713.87,-145C787.04,-145 803.42,-107.75 871.26,-104.26"/>
<polygon fill="black" stroke="black" points="871.75,-107.75 881.66,-104 871.57,-100.75 871.75,-107.75"/>
</g>
</g>
</svg>
