<?xml version="1.0" encoding="UTF-8" standalone="no"?>
<!DOCTYPE svg PUBLIC "-//W3C//DTD SVG 1.1//EN"
 "http://www.w3.org/Graphics/SVG/1.1/DTD/svg11.dtd">
<!-- Generated by graphviz version 2.43.0 (0)
 -->
<!-- Title: i2c_master Pages: 1 -->
<svg width="2971pt" height="547pt"
 viewBox="0.00 0.00 2970.97 546.82" xmlns="http://www.w3.org/2000/svg" xmlns:xlink="http://www.w3.org/1999/xlink">
<g id="graph0" class="graph" transform="scale(1 1) rotate(0) translate(4 542.82)">
<title>i2c_master</title>
<polygon fill="white" stroke="transparent" points="-4,4 -4,-542.82 2966.97,-542.82 2966.97,4 -4,4"/>
<text text-anchor="middle" x="1481.48" y="-7.8" font-family="Times,serif" font-size="14.00">i2c_master</text>
<!-- n1 -->
<g id="node1" class="node">
<title>n1</title>
<polygon fill="none" stroke="black" points="579.58,-418.82 492.44,-400.82 579.58,-382.82 666.72,-400.82 579.58,-418.82"/>
<text text-anchor="middle" x="579.58" y="-397.12" font-family="Times,serif" font-size="14.00">ack_enable</text>
</g>
<!-- c19 -->
<g id="node19" class="node">
<title>c19</title>
<polygon fill="none" stroke="black" points="702.9,-233.82 702.9,-325.82 1040.9,-325.82 1040.9,-233.82 702.9,-233.82"/>
<text text-anchor="middle" x="750.4" y="-310.62" font-family="Times,serif" font-size="14.00">ack_enable</text>
<polyline fill="none" stroke="black" points="702.9,-302.82 797.9,-302.82 "/>
<text text-anchor="middle" x="750.4" y="-287.62" font-family="Times,serif" font-size="14.00">rst</text>
<polyline fill="none" stroke="black" points="702.9,-279.82 797.9,-279.82 "/>
<text text-anchor="middle" x="750.4" y="-264.62" font-family="Times,serif" font-size="14.00">scl</text>
<polyline fill="none" stroke="black" points="702.9,-256.82 797.9,-256.82 "/>
<text text-anchor="middle" x="750.4" y="-241.62" font-family="Times,serif" font-size="14.00">sda</text>
<polyline fill="none" stroke="black" points="797.9,-233.82 797.9,-325.82 "/>
<text text-anchor="middle" x="865.4" y="-283.62" font-family="Times,serif" font-size="14.00">ack</text>
<text text-anchor="middle" x="865.4" y="-268.62" font-family="Times,serif" font-size="14.00">i2c_ack_detector</text>
<polyline fill="none" stroke="black" points="932.9,-233.82 932.9,-325.82 "/>
<text text-anchor="middle" x="986.9" y="-276.12" font-family="Times,serif" font-size="14.00">ack_received</text>
</g>
<!-- n1&#45;&gt;c19 -->
<g id="edge2" class="edge">
<title>n1:e&#45;&gt;c19:w</title>
<path fill="none" stroke="black" d="M666.9,-400.82C704.29,-400.82 669.77,-330.8 693.12,-317.12"/>
<polygon fill="black" stroke="black" points="693.96,-320.52 702.9,-314.82 692.36,-313.7 693.96,-320.52"/>
</g>
<!-- n2 -->
<g id="node2" class="node">
<title>n2</title>
<polygon fill="none" stroke="black" points="1176.17,-312.82 1077.13,-294.82 1176.17,-276.82 1275.2,-294.82 1176.17,-312.82"/>
<text text-anchor="middle" x="1176.17" y="-291.12" font-family="Times,serif" font-size="14.00">ack_received</text>
</g>
<!-- c23 -->
<g id="node22" class="node">
<title>c23</title>
<polygon fill="none" stroke="black" points="1311.43,-225.82 1311.43,-363.82 1671.43,-363.82 1671.43,-225.82 1311.43,-225.82"/>
<text text-anchor="middle" x="1365.43" y="-346.62" font-family="Times,serif" font-size="14.00">ack_received</text>
<polyline fill="none" stroke="black" points="1311.43,-336.82 1419.43,-336.82 "/>
<text text-anchor="middle" x="1365.43" y="-319.12" font-family="Times,serif" font-size="14.00">done</text>
<polyline fill="none" stroke="black" points="1311.43,-308.82 1419.43,-308.82 "/>
<text text-anchor="middle" x="1365.43" y="-291.62" font-family="Times,serif" font-size="14.00">rst</text>
<polyline fill="none" stroke="black" points="1311.43,-281.82 1419.43,-281.82 "/>
<text text-anchor="middle" x="1365.43" y="-264.12" font-family="Times,serif" font-size="14.00">scl</text>
<polyline fill="none" stroke="black" points="1311.43,-253.82 1419.43,-253.82 "/>
<text text-anchor="middle" x="1365.43" y="-236.12" font-family="Times,serif" font-size="14.00">start</text>
<polyline fill="none" stroke="black" points="1419.43,-225.82 1419.43,-363.82 "/>
<text text-anchor="middle" x="1483.43" y="-298.62" font-family="Times,serif" font-size="14.00">fsm</text>
<text text-anchor="middle" x="1483.43" y="-283.62" font-family="Times,serif" font-size="14.00">i2c_master_fsm</text>
<polyline fill="none" stroke="black" points="1547.43,-225.82 1547.43,-363.82 "/>
<text text-anchor="middle" x="1609.43" y="-348.62" font-family="Times,serif" font-size="14.00">ack_enable</text>
<polyline fill="none" stroke="black" points="1547.43,-340.82 1671.43,-340.82 "/>
<text text-anchor="middle" x="1609.43" y="-325.62" font-family="Times,serif" font-size="14.00">busy</text>
<polyline fill="none" stroke="black" points="1547.43,-317.82 1671.43,-317.82 "/>
<text text-anchor="middle" x="1609.43" y="-302.62" font-family="Times,serif" font-size="14.00">load</text>
<polyline fill="none" stroke="black" points="1547.43,-294.82 1671.43,-294.82 "/>
<text text-anchor="middle" x="1609.43" y="-279.62" font-family="Times,serif" font-size="14.00">shift</text>
<polyline fill="none" stroke="black" points="1547.43,-271.82 1671.43,-271.82 "/>
<text text-anchor="middle" x="1609.43" y="-256.62" font-family="Times,serif" font-size="14.00">start_condition</text>
<polyline fill="none" stroke="black" points="1547.43,-248.82 1671.43,-248.82 "/>
<text text-anchor="middle" x="1609.43" y="-233.62" font-family="Times,serif" font-size="14.00">stop_condition</text>
</g>
<!-- n2&#45;&gt;c23 -->
<g id="edge23" class="edge">
<title>n2:e&#45;&gt;c23:w</title>
<path fill="none" stroke="black" d="M1275.43,-294.82C1300.86,-294.82 1287.32,-336.18 1301.79,-347.81"/>
<polygon fill="black" stroke="black" points="1300.85,-351.18 1311.43,-350.82 1302.93,-344.5 1300.85,-351.18"/>
</g>
<!-- n3 -->
<g id="node3" class="node">
<title>n3</title>
<polygon fill="none" stroke="black" points="2886.68,-230.82 2810.59,-212.82 2886.68,-194.82 2962.76,-212.82 2886.68,-230.82"/>
<text text-anchor="middle" x="2886.68" y="-209.12" font-family="Times,serif" font-size="14.00">bit_count</text>
</g>
<!-- n4 -->
<g id="node4" class="node">
<title>n4</title>
<polygon fill="none" stroke="black" points="1856.76,-421.37 1856.76,-436.28 1836.05,-446.82 1806.77,-446.82 1786.06,-436.28 1786.06,-421.37 1806.77,-410.82 1836.05,-410.82 1856.76,-421.37"/>
<text text-anchor="middle" x="1821.41" y="-425.12" font-family="Times,serif" font-size="14.00">busy</text>
</g>
<!-- n5 -->
<g id="node5" class="node">
<title>n5</title>
<polygon fill="none" stroke="black" points="93.13,-173.37 93.13,-188.28 77.31,-198.82 54.94,-198.82 39.13,-188.28 39.13,-173.37 54.94,-162.82 77.31,-162.82 93.13,-173.37"/>
<text text-anchor="middle" x="66.13" y="-177.12" font-family="Times,serif" font-size="14.00">clk</text>
</g>
<!-- c20 -->
<g id="node20" class="node">
<title>c20</title>
<polygon fill="none" stroke="black" points="168.26,-107.32 168.26,-176.32 456.26,-176.32 456.26,-107.32 168.26,-107.32"/>
<text text-anchor="middle" x="215.26" y="-161.12" font-family="Times,serif" font-size="14.00">clk</text>
<polyline fill="none" stroke="black" points="168.26,-153.32 262.26,-153.32 "/>
<text text-anchor="middle" x="215.26" y="-138.12" font-family="Times,serif" font-size="14.00">clk_divider</text>
<polyline fill="none" stroke="black" points="168.26,-130.32 262.26,-130.32 "/>
<text text-anchor="middle" x="215.26" y="-115.12" font-family="Times,serif" font-size="14.00">rst</text>
<polyline fill="none" stroke="black" points="262.26,-107.32 262.26,-176.32 "/>
<text text-anchor="middle" x="341.26" y="-145.62" font-family="Times,serif" font-size="14.00">clock_gen</text>
<text text-anchor="middle" x="341.26" y="-130.62" font-family="Times,serif" font-size="14.00">i2c_clock_generator</text>
<polyline fill="none" stroke="black" points="420.26,-107.32 420.26,-176.32 "/>
<text text-anchor="middle" x="438.26" y="-138.12" font-family="Times,serif" font-size="14.00">scl</text>
</g>
<!-- n5&#45;&gt;c20 -->
<g id="edge26" class="edge">
<title>n5:e&#45;&gt;c20:w</title>
<path fill="none" stroke="black" d="M94.13,-180.82C124.15,-180.82 132.76,-168.13 158.1,-165.35"/>
<polygon fill="black" stroke="black" points="158.45,-168.84 168.26,-164.82 158.09,-161.85 158.45,-168.84"/>
</g>
<!-- n6 -->
<g id="node6" class="node">
<title>n6</title>
<polygon fill="none" stroke="black" points="132.39,-119.37 132.39,-134.28 93.57,-144.82 38.68,-144.82 -0.13,-134.28 -0.13,-119.37 38.68,-108.82 93.57,-108.82 132.39,-119.37"/>
<text text-anchor="middle" x="66.13" y="-123.12" font-family="Times,serif" font-size="14.00">clk_divider</text>
</g>
<!-- n6&#45;&gt;c20 -->
<g id="edge27" class="edge">
<title>n6:e&#45;&gt;c20:w</title>
<path fill="none" stroke="black" stroke-width="3" d="M132.26,-126.82C145.53,-126.82 149.42,-135.61 158.29,-139.74"/>
<polygon fill="black" stroke="black" stroke-width="3" points="157.75,-143.2 168.26,-141.82 159.19,-136.35 157.75,-143.2"/>
</g>
<!-- n7 -->
<g id="node7" class="node">
<title>n7</title>
<polygon fill="none" stroke="black" points="1869.09,-513.37 1869.09,-528.28 1841.16,-538.82 1801.66,-538.82 1773.73,-528.28 1773.73,-513.37 1801.66,-502.82 1841.16,-502.82 1869.09,-513.37"/>
<text text-anchor="middle" x="1821.41" y="-517.12" font-family="Times,serif" font-size="14.00">data_in</text>
</g>
<!-- c24 -->
<g id="node23" class="node">
<title>c24</title>
<polygon fill="none" stroke="black" points="1971.39,-411.32 1971.39,-526.32 2774.39,-526.32 2774.39,-411.32 1971.39,-411.32"/>
<text text-anchor="middle" x="2005.39" y="-511.12" font-family="Times,serif" font-size="14.00">data_in</text>
<polyline fill="none" stroke="black" points="1971.39,-503.32 2039.39,-503.32 "/>
<text text-anchor="middle" x="2005.39" y="-488.12" font-family="Times,serif" font-size="14.00">load</text>
<polyline fill="none" stroke="black" points="1971.39,-480.32 2039.39,-480.32 "/>
<text text-anchor="middle" x="2005.39" y="-465.12" font-family="Times,serif" font-size="14.00">rst</text>
<polyline fill="none" stroke="black" points="1971.39,-457.32 2039.39,-457.32 "/>
<text text-anchor="middle" x="2005.39" y="-442.12" font-family="Times,serif" font-size="14.00">scl</text>
<polyline fill="none" stroke="black" points="1971.39,-434.32 2039.39,-434.32 "/>
<text text-anchor="middle" x="2005.39" y="-419.12" font-family="Times,serif" font-size="14.00">shift</text>
<polyline fill="none" stroke="black" points="2039.39,-411.32 2039.39,-526.32 "/>
<text text-anchor="middle" x="2366.89" y="-472.62" font-family="Times,serif" font-size="14.00">shift_register</text>
<text text-anchor="middle" x="2366.89" y="-457.62" font-family="Times,serif" font-size="14.00">$paramod╲i2c_shift_register╲DATA_WIDTH=s32&#39;00000000000000000000000000001000</text>
<polyline fill="none" stroke="black" points="2694.39,-411.32 2694.39,-526.32 "/>
<text text-anchor="middle" x="2734.39" y="-494.12" font-family="Times,serif" font-size="14.00">sda</text>
<polyline fill="none" stroke="black" points="2694.39,-469.32 2774.39,-469.32 "/>
<text text-anchor="middle" x="2734.39" y="-436.62" font-family="Times,serif" font-size="14.00">shift_reg</text>
</g>
<!-- n7&#45;&gt;c24 -->
<g id="edge28" class="edge">
<title>n7:e&#45;&gt;c24:w</title>
<path fill="none" stroke="black" stroke-width="3" d="M1870.41,-520.82C1911.68,-520.82 1924.39,-515.77 1960.97,-514.94"/>
<polygon fill="black" stroke="black" stroke-width="3" points="1961.42,-518.43 1971.39,-514.82 1961.35,-511.43 1961.42,-518.43"/>
</g>
<!-- n8 -->
<g id="node8" class="node">
<title>n8</title>
<polygon fill="none" stroke="black" points="2886.68,-176.82 2839.92,-158.82 2886.68,-140.82 2933.43,-158.82 2886.68,-176.82"/>
<text text-anchor="middle" x="2886.68" y="-155.12" font-family="Times,serif" font-size="14.00">done</text>
</g>
<!-- n8&#45;&gt;c23 -->
<g id="edge30" class="edge">
<title>n8:e&#45;&gt;c23:w</title>
<path fill="none" stroke="black" d="M2934.68,-158.82C2942.69,-158.82 2939.29,-171.11 2933.68,-176.82 2914.42,-196.41 2835.53,-174.75 2810.39,-185.82 2790.24,-194.69 2794.07,-209.98 2774.39,-219.82 2332.14,-440.81 2165.82,-363.85 1671.43,-364.32 1511.43,-364.47 1425.93,-476.09 1311.43,-364.32 1301.33,-354.45 1295.3,-335.37 1301.3,-326.97"/>
<polygon fill="black" stroke="black" points="1302.78,-330.14 1310.43,-322.82 1299.88,-323.77 1302.78,-330.14"/>
</g>
<!-- n9 -->
<g id="node9" class="node">
<title>n9</title>
<polygon fill="none" stroke="black" points="1821.41,-354.82 1778.01,-336.82 1821.41,-318.82 1864.81,-336.82 1821.41,-354.82"/>
<text text-anchor="middle" x="1821.41" y="-333.12" font-family="Times,serif" font-size="14.00">load</text>
</g>
<!-- n9&#45;&gt;c24 -->
<g id="edge32" class="edge">
<title>n9:e&#45;&gt;c24:w</title>
<path fill="none" stroke="black" d="M1866.41,-336.82C1908.53,-336.82 1911.68,-367 1935.39,-401.82 1957.36,-434.09 1933.69,-481.79 1961.12,-490.45"/>
<polygon fill="black" stroke="black" points="1961.01,-493.96 1971.39,-491.82 1961.94,-487.03 1961.01,-493.96"/>
</g>
<!-- n10 -->
<g id="node10" class="node">
<title>n10</title>
<polygon fill="none" stroke="black" points="93.13,-289.37 93.13,-304.28 77.31,-314.82 54.94,-314.82 39.13,-304.28 39.13,-289.37 54.94,-278.82 77.31,-278.82 93.13,-289.37"/>
<text text-anchor="middle" x="66.13" y="-293.12" font-family="Times,serif" font-size="14.00">rst</text>
</g>
<!-- n10&#45;&gt;c19 -->
<g id="edge3" class="edge">
<title>n10:e&#45;&gt;c19:w</title>
<path fill="none" stroke="black" d="M94.13,-296.82C361.27,-296.82 430.57,-291.95 692.69,-291.82"/>
<polygon fill="black" stroke="black" points="692.9,-295.32 702.9,-291.82 692.9,-288.32 692.9,-295.32"/>
</g>
<!-- n10&#45;&gt;c20 -->
<g id="edge4" class="edge">
<title>n10:e&#45;&gt;c20:w</title>
<path fill="none" stroke="black" d="M94.13,-296.82C137.16,-296.82 115.71,-247.55 132.26,-207.82 147.19,-171.97 129.41,-127.65 158.27,-119.98"/>
<polygon fill="black" stroke="black" points="158.73,-123.45 168.26,-118.82 157.92,-116.5 158.73,-123.45"/>
</g>
<!-- c22 -->
<g id="node21" class="node">
<title>c22</title>
<polygon fill="none" stroke="black" points="1979.39,-141.32 1979.39,-210.32 2766.39,-210.32 2766.39,-141.32 1979.39,-141.32"/>
<text text-anchor="middle" x="2011.39" y="-195.12" font-family="Times,serif" font-size="14.00">enable</text>
<polyline fill="none" stroke="black" points="1979.39,-187.32 2043.39,-187.32 "/>
<text text-anchor="middle" x="2011.39" y="-172.12" font-family="Times,serif" font-size="14.00">rst</text>
<polyline fill="none" stroke="black" points="1979.39,-164.32 2043.39,-164.32 "/>
<text text-anchor="middle" x="2011.39" y="-149.12" font-family="Times,serif" font-size="14.00">scl</text>
<polyline fill="none" stroke="black" points="2043.39,-141.32 2043.39,-210.32 "/>
<text text-anchor="middle" x="2363.39" y="-179.62" font-family="Times,serif" font-size="14.00">counter</text>
<text text-anchor="middle" x="2363.39" y="-164.62" font-family="Times,serif" font-size="14.00">$paramod╲i2c_bit_counter╲DATA_WIDTH=s32&#39;00000000000000000000000000001000</text>
<polyline fill="none" stroke="black" points="2683.39,-141.32 2683.39,-210.32 "/>
<text text-anchor="middle" x="2724.89" y="-189.62" font-family="Times,serif" font-size="14.00">bit_count</text>
<polyline fill="none" stroke="black" points="2683.39,-176.32 2766.39,-176.32 "/>
<text text-anchor="middle" x="2724.89" y="-155.12" font-family="Times,serif" font-size="14.00">done</text>
</g>
<!-- n10&#45;&gt;c22 -->
<g id="edge5" class="edge">
<title>n10:e&#45;&gt;c22:w</title>
<path fill="none" stroke="black" d="M94.13,-296.82C184.08,-296.82 403.39,-237.73 492.26,-223.82 1028.22,-139.91 1165.2,-125.57 1707.43,-108.82 1808.7,-105.69 1846.61,-60.01 1935.39,-108.82 1962.78,-123.89 1947.28,-164.92 1968,-174.02"/>
<polygon fill="black" stroke="black" points="1967.42,-177.47 1977.89,-175.82 1968.68,-170.58 1967.42,-177.47"/>
</g>
<!-- n10&#45;&gt;c23 -->
<g id="edge6" class="edge">
<title>n10:e&#45;&gt;c23:w</title>
<path fill="none" stroke="black" d="M94.13,-296.82C127.58,-296.82 135.14,-305.11 168.26,-309.82 349.88,-335.68 395.12,-354.82 578.58,-354.82 578.58,-354.82 578.58,-354.82 872.9,-354.82 1052.4,-354.82 1107.04,-383.99 1275.43,-321.82 1290.04,-316.43 1291.72,-303.36 1301.48,-298.08"/>
<polygon fill="black" stroke="black" points="1302.46,-301.45 1311.43,-295.82 1300.91,-294.62 1302.46,-301.45"/>
</g>
<!-- n10&#45;&gt;c24 -->
<g id="edge7" class="edge">
<title>n10:e&#45;&gt;c24:w</title>
<path fill="none" stroke="black" d="M94.13,-296.82C133.38,-296.82 132.76,-328.08 168.26,-344.82 341.27,-426.43 387.28,-474.82 578.58,-474.82 578.58,-474.82 578.58,-474.82 1492.43,-474.82 1701.89,-474.82 1756.75,-469.01 1961.22,-468.83"/>
<polygon fill="black" stroke="black" points="1961.39,-472.33 1971.39,-468.82 1961.38,-465.33 1961.39,-472.33"/>
</g>
<!-- n11 -->
<g id="node11" class="node">
<title>n11</title>
<polygon fill="none" stroke="black" points="606.58,-134.37 606.58,-149.28 590.76,-159.82 568.39,-159.82 552.58,-149.28 552.58,-134.37 568.39,-123.82 590.76,-123.82 606.58,-134.37"/>
<text text-anchor="middle" x="579.58" y="-138.12" font-family="Times,serif" font-size="14.00">scl</text>
</g>
<!-- n11&#45;&gt;c19 -->
<g id="edge9" class="edge">
<title>n11:e&#45;&gt;c19:w</title>
<path fill="none" stroke="black" d="M607.58,-141.82C622.94,-141.82 670.96,-238.29 694.48,-262.41"/>
<polygon fill="black" stroke="black" points="692.59,-265.35 702.9,-267.82 696.38,-259.47 692.59,-265.35"/>
</g>
<!-- n11&#45;&gt;c22 -->
<g id="edge10" class="edge">
<title>n11:e&#45;&gt;c22:w</title>
<path fill="none" stroke="black" d="M607.58,-141.82C651.61,-141.82 659.77,-123.71 702.9,-114.82 910.24,-72.08 963.47,-52.82 1175.17,-52.82 1175.17,-52.82 1175.17,-52.82 1492.43,-52.82 1689.59,-52.82 1768.08,27.49 1935.39,-76.82 1964.76,-95.14 1944.62,-141.5 1967.75,-151.07"/>
<polygon fill="black" stroke="black" points="1967.44,-154.57 1977.89,-152.82 1968.63,-147.67 1967.44,-154.57"/>
</g>
<!-- n11&#45;&gt;c23 -->
<g id="edge11" class="edge">
<title>n11:e&#45;&gt;c23:w</title>
<path fill="none" stroke="black" d="M607.58,-141.82C763.22,-141.82 1136.8,-262.71 1301.38,-267.66"/>
<polygon fill="black" stroke="black" points="1301.38,-271.17 1311.43,-267.82 1301.49,-264.17 1301.38,-271.17"/>
</g>
<!-- n11&#45;&gt;c24 -->
<g id="edge12" class="edge">
<title>n11:e&#45;&gt;c24:w</title>
<path fill="none" stroke="black" d="M607.58,-141.82C859.9,-141.82 922.84,-128.82 1175.17,-128.82 1175.17,-128.82 1175.17,-128.82 1492.43,-128.82 1590.96,-128.82 1863.08,-80.9 1935.39,-147.82 1981.57,-190.56 1913.29,-417.86 1961.41,-443.47"/>
<polygon fill="black" stroke="black" points="1960.85,-446.94 1971.39,-445.82 1962.45,-440.12 1960.85,-446.94"/>
</g>
<!-- n12 -->
<g id="node12" class="node">
<title>n12</title>
<polygon fill="none" stroke="black" points="2915.36,-490.37 2915.36,-505.28 2898.56,-515.82 2874.79,-515.82 2857.99,-505.28 2857.99,-490.37 2874.79,-479.82 2898.56,-479.82 2915.36,-490.37"/>
<text text-anchor="middle" x="2886.68" y="-494.12" font-family="Times,serif" font-size="14.00">sda</text>
</g>
<!-- n13 -->
<g id="node13" class="node">
<title>n13</title>
<polygon fill="none" stroke="black" points="623.31,-243.37 623.31,-258.28 597.69,-268.82 561.46,-268.82 535.84,-258.28 535.84,-243.37 561.46,-232.82 597.69,-232.82 623.31,-243.37"/>
<text text-anchor="middle" x="579.58" y="-247.12" font-family="Times,serif" font-size="14.00">sda_in</text>
</g>
<!-- n13&#45;&gt;c19 -->
<g id="edge14" class="edge">
<title>n13:e&#45;&gt;c19:w</title>
<path fill="none" stroke="black" d="M624.58,-250.82C655.81,-250.82 665.9,-246.02 692.67,-245.01"/>
<polygon fill="black" stroke="black" points="692.96,-248.5 702.9,-244.82 692.83,-241.5 692.96,-248.5"/>
</g>
<!-- n14 -->
<g id="node14" class="node">
<title>n14</title>
<polygon fill="none" stroke="black" points="1821.41,-300.82 1776.33,-282.82 1821.41,-264.82 1866.49,-282.82 1821.41,-300.82"/>
<text text-anchor="middle" x="1821.41" y="-279.12" font-family="Times,serif" font-size="14.00">shift</text>
</g>
<!-- n14&#45;&gt;c22 -->
<g id="edge16" class="edge">
<title>n14:e&#45;&gt;c22:w</title>
<path fill="none" stroke="black" d="M1867.41,-282.82C1899.92,-282.82 1909.59,-275.6 1935.39,-255.82 1957.33,-239 1949.22,-207.97 1968.02,-200.48"/>
<polygon fill="black" stroke="black" points="1968.6,-203.93 1977.89,-198.82 1967.44,-197.03 1968.6,-203.93"/>
</g>
<!-- n14&#45;&gt;c24 -->
<g id="edge17" class="edge">
<title>n14:e&#45;&gt;c24:w</title>
<path fill="none" stroke="black" d="M1867.41,-282.82C1899.92,-282.82 1913.21,-286.05 1935.39,-309.82 1968.67,-345.51 1926,-411.97 1961.31,-421.64"/>
<polygon fill="black" stroke="black" points="1961.04,-425.13 1971.39,-422.82 1961.86,-418.18 1961.04,-425.13"/>
</g>
<!-- n15 -->
<g id="node15" class="node">
<title>n15</title>
<polygon fill="none" stroke="black" points="2886.68,-457.82 2813.11,-439.82 2886.68,-421.82 2960.24,-439.82 2886.68,-457.82"/>
<text text-anchor="middle" x="2886.68" y="-436.12" font-family="Times,serif" font-size="14.00">shift_reg</text>
</g>
<!-- n16 -->
<g id="node16" class="node">
<title>n16</title>
<polygon fill="none" stroke="black" points="1211.92,-167.37 1211.92,-182.28 1190.98,-192.82 1161.35,-192.82 1140.41,-182.28 1140.41,-167.37 1161.35,-156.82 1190.98,-156.82 1211.92,-167.37"/>
<text text-anchor="middle" x="1176.17" y="-171.12" font-family="Times,serif" font-size="14.00">start</text>
</g>
<!-- n16&#45;&gt;c23 -->
<g id="edge19" class="edge">
<title>n16:e&#45;&gt;c23:w</title>
<path fill="none" stroke="black" d="M1213.17,-174.82C1244.28,-174.82 1249.9,-189.04 1275.43,-206.82 1289.91,-216.9 1290.3,-232.39 1301.58,-237.84"/>
<polygon fill="black" stroke="black" points="1300.94,-241.28 1311.43,-239.82 1302.32,-234.42 1300.94,-241.28"/>
</g>
<!-- n17 -->
<g id="node17" class="node">
<title>n17</title>
<polygon fill="none" stroke="black" points="1821.41,-246.82 1707.46,-228.82 1821.41,-210.82 1935.36,-228.82 1821.41,-246.82"/>
<text text-anchor="middle" x="1821.41" y="-225.12" font-family="Times,serif" font-size="14.00">start_condition</text>
</g>
<!-- n18 -->
<g id="node18" class="node">
<title>n18</title>
<polygon fill="none" stroke="black" points="1821.41,-192.82 1711.31,-174.82 1821.41,-156.82 1931.51,-174.82 1821.41,-192.82"/>
<text text-anchor="middle" x="1821.41" y="-171.12" font-family="Times,serif" font-size="14.00">stop_condition</text>
</g>
<!-- c19&#45;&gt;n2 -->
<g id="edge22" class="edge">
<title>c19:e&#45;&gt;n2:w</title>
<path fill="none" stroke="black" d="M1040.9,-279.82C1054.17,-279.82 1058.06,-288.61 1066.93,-292.74"/>
<polygon fill="black" stroke="black" points="1066.39,-296.2 1076.9,-294.82 1067.83,-289.35 1066.39,-296.2"/>
</g>
<!-- c20&#45;&gt;n11 -->
<g id="edge8" class="edge">
<title>c20:e&#45;&gt;n11:w</title>
<path fill="none" stroke="black" d="M456.26,-141.82C494.98,-141.82 507.16,-141.82 541.32,-141.82"/>
<polygon fill="black" stroke="black" points="541.58,-145.32 551.58,-141.82 541.58,-138.32 541.58,-145.32"/>
</g>
<!-- c22&#45;&gt;n3 -->
<g id="edge24" class="edge">
<title>c22:e&#45;&gt;n3:w</title>
<path fill="none" stroke="black" stroke-width="3" d="M2767.89,-193.82C2784.53,-193.82 2788.51,-206.12 2800.21,-210.93"/>
<polygon fill="black" stroke="black" stroke-width="3" points="2799.91,-214.44 2810.39,-212.82 2801.19,-207.55 2799.91,-214.44"/>
</g>
<!-- c22&#45;&gt;n8 -->
<g id="edge29" class="edge">
<title>c22:e&#45;&gt;n8:w</title>
<path fill="none" stroke="black" d="M2767.89,-158.82C2795.66,-158.82 2805.05,-158.82 2828.51,-158.82"/>
<polygon fill="black" stroke="black" points="2828.68,-162.32 2838.68,-158.82 2828.68,-155.32 2828.68,-162.32"/>
</g>
<!-- c23&#45;&gt;n1 -->
<g id="edge1" class="edge">
<title>c23:e&#45;&gt;n1:w</title>
<path fill="none" stroke="black" d="M1672.43,-352.82C1677.56,-352.82 1675.12,-360.75 1671.43,-364.32 1510.8,-519.81 890.37,-412.76 666.9,-418.82 589.45,-420.92 548.86,-472.06 492.58,-418.82 490.21,-416.58 488.28,-413.19 487.36,-409.96"/>
<polygon fill="black" stroke="black" points="490.56,-411.37 491.58,-400.82 484.21,-408.43 490.56,-411.37"/>
</g>
<!-- c23&#45;&gt;n4 -->
<g id="edge25" class="edge">
<title>c23:e&#45;&gt;n4:w</title>
<path fill="none" stroke="black" d="M1671.43,-329.82C1705.24,-329.82 1682.38,-374.13 1707.43,-396.82 1732.22,-419.26 1744.78,-427.26 1774.22,-428.61"/>
<polygon fill="black" stroke="black" points="1774.34,-432.11 1784.41,-428.82 1774.49,-425.11 1774.34,-432.11"/>
</g>
<!-- c23&#45;&gt;n9 -->
<g id="edge31" class="edge">
<title>c23:e&#45;&gt;n9:w</title>
<path fill="none" stroke="black" d="M1671.43,-306.82C1716.36,-306.82 1726.49,-332.53 1766.24,-336.35"/>
<polygon fill="black" stroke="black" points="1766.26,-339.85 1776.41,-336.82 1766.58,-332.86 1766.26,-339.85"/>
</g>
<!-- c23&#45;&gt;n14 -->
<g id="edge15" class="edge">
<title>c23:e&#45;&gt;n14:w</title>
<path fill="none" stroke="black" d="M1671.43,-282.82C1714.04,-282.82 1727.18,-282.82 1765.18,-282.82"/>
<polygon fill="black" stroke="black" points="1765.41,-286.32 1775.41,-282.82 1765.41,-279.32 1765.41,-286.32"/>
</g>
<!-- c23&#45;&gt;n17 -->
<g id="edge20" class="edge">
<title>c23:e&#45;&gt;n17:w</title>
<path fill="none" stroke="black" d="M1671.43,-259.82C1688.43,-259.82 1687.71,-239.75 1697.78,-231.91"/>
<polygon fill="black" stroke="black" points="1698.98,-235.2 1707.43,-228.82 1696.84,-228.53 1698.98,-235.2"/>
</g>
<!-- c23&#45;&gt;n18 -->
<g id="edge21" class="edge">
<title>c23:e&#45;&gt;n18:w</title>
<path fill="none" stroke="black" d="M1671.43,-236.82C1699.91,-236.82 1683.48,-189.35 1700.73,-177.49"/>
<polygon fill="black" stroke="black" points="1701.7,-180.85 1710.41,-174.82 1699.84,-174.1 1701.7,-180.85"/>
</g>
<!-- c24&#45;&gt;n12 -->
<g id="edge13" class="edge">
<title>c24:e&#45;&gt;n12:w</title>
<path fill="none" stroke="black" d="M2774.39,-497.82C2807.24,-497.82 2817.96,-497.82 2846.32,-497.82"/>
<polygon fill="black" stroke="black" points="2846.68,-501.32 2856.68,-497.82 2846.68,-494.32 2846.68,-501.32"/>
</g>
<!-- c24&#45;&gt;n15 -->
<g id="edge18" class="edge">
<title>c24:e&#45;&gt;n15:w</title>
<path fill="none" stroke="black" stroke-width="3" d="M2774.39,-439.82C2786.94,-439.82 2792.37,-439.82 2801.47,-439.82"/>
<polygon fill="black" stroke="black" stroke-width="3" points="2801.68,-443.32 2811.68,-439.82 2801.68,-436.32 2801.68,-443.32"/>
</g>
</g>
</svg>
