<?xml version="1.0" encoding="UTF-8" standalone="no"?>
<!DOCTYPE svg PUBLIC "-//W3C//DTD SVG 1.1//EN"
 "http://www.w3.org/Graphics/SVG/1.1/DTD/svg11.dtd">
<!-- Generated by graphviz version 2.43.0 (0)
 -->
<!-- Title: two_bit_branch_predictor Pages: 1 -->
<svg width="2048pt" height="720pt"
 viewBox="0.00 0.00 2048.12 720.16" xmlns="http://www.w3.org/2000/svg" xmlns:xlink="http://www.w3.org/1999/xlink">
<g id="graph0" class="graph" transform="scale(1 1) rotate(0) translate(4 716.16)">
<title>two_bit_branch_predictor</title>
<polygon fill="white" stroke="transparent" points="-4,4 -4,-716.16 2044.12,-716.16 2044.12,4 -4,4"/>
<text text-anchor="middle" x="1020.06" y="-7.8" font-family="Times,serif" font-size="14.00">two_bit_branch_predictor</text>
<!-- n14 -->
<g id="node1" class="node">
<title>n14</title>
<polygon fill="none" stroke="black" points="229.51,-249.54 229.51,-264.46 162.24,-275 67.1,-275 -0.17,-264.46 -0.17,-249.54 67.1,-239 162.24,-239 229.51,-249.54"/>
<text text-anchor="middle" x="114.67" y="-253.3" font-family="Times,serif" font-size="14.00">branch_taken_actual</text>
</g>
<!-- x0 -->
<g id="node10" class="node">
<title>x0</title>
<path fill="none" stroke="black" d="M294.34,-549C294.34,-549 345.34,-549 345.34,-549 351.34,-549 357.34,-555 357.34,-561 357.34,-561 357.34,-583 357.34,-583 357.34,-589 351.34,-595 345.34,-595 345.34,-595 294.34,-595 294.34,-595 288.34,-595 282.34,-589 282.34,-583 282.34,-583 282.34,-561 282.34,-561 282.34,-555 288.34,-549 294.34,-549"/>
<text text-anchor="middle" x="319.84" y="-579.8" font-family="Times,serif" font-size="14.00">0:0 &#45; 1:1</text>
<polyline fill="none" stroke="black" points="282.34,-572 357.34,-572 "/>
<text text-anchor="middle" x="319.84" y="-556.8" font-family="Times,serif" font-size="14.00">0:0 &#45; 0:0</text>
</g>
<!-- n14&#45;&gt;x0 -->
<g id="edge19" class="edge">
<title>n14:e&#45;&gt;x0:w</title>
<path fill="none" stroke="black" d="M229.34,-257C293.9,-257 221.39,-527.77 270.96,-557.38"/>
<polygon fill="black" stroke="black" points="270.28,-560.82 280.84,-560 272.07,-554.05 270.28,-560.82"/>
</g>
<!-- x2 -->
<g id="node13" class="node">
<title>x2</title>
<path fill="none" stroke="black" d="M1771.23,-239C1771.23,-239 1822.23,-239 1822.23,-239 1828.23,-239 1834.23,-245 1834.23,-251 1834.23,-251 1834.23,-273 1834.23,-273 1834.23,-279 1828.23,-285 1822.23,-285 1822.23,-285 1771.23,-285 1771.23,-285 1765.23,-285 1759.23,-279 1759.23,-273 1759.23,-273 1759.23,-251 1759.23,-251 1759.23,-245 1765.23,-239 1771.23,-239"/>
<text text-anchor="middle" x="1796.73" y="-269.8" font-family="Times,serif" font-size="14.00">0:0 &#45; 1:1</text>
<polyline fill="none" stroke="black" points="1759.23,-262 1834.23,-262 "/>
<text text-anchor="middle" x="1796.73" y="-246.8" font-family="Times,serif" font-size="14.00">0:0 &#45; 0:0</text>
</g>
<!-- n14&#45;&gt;x2 -->
<g id="edge20" class="edge">
<title>n14:e&#45;&gt;x2:w</title>
<path fill="none" stroke="black" d="M229.34,-257C347.16,-257 375.94,-238 493.76,-238 493.76,-238 493.76,-238 806.68,-238 1226.66,-238 1334.11,-249.81 1749.06,-250"/>
<polygon fill="black" stroke="black" points="1749.23,-253.5 1759.23,-250 1749.23,-246.5 1749.23,-253.5"/>
</g>
<!-- c35 -->
<g id="node22" class="node">
<title>c35</title>
<polygon fill="none" stroke="black" points="265.34,-374.5 265.34,-443.5 374.34,-443.5 374.34,-374.5 265.34,-374.5"/>
<text text-anchor="middle" x="278.84" y="-428.3" font-family="Times,serif" font-size="14.00">A</text>
<polyline fill="none" stroke="black" points="265.34,-420.5 292.34,-420.5 "/>
<text text-anchor="middle" x="278.84" y="-405.3" font-family="Times,serif" font-size="14.00">B</text>
<polyline fill="none" stroke="black" points="265.34,-397.5 292.34,-397.5 "/>
<text text-anchor="middle" x="278.84" y="-382.3" font-family="Times,serif" font-size="14.00">S</text>
<polyline fill="none" stroke="black" points="292.34,-374.5 292.34,-443.5 "/>
<text text-anchor="middle" x="320.34" y="-412.8" font-family="Times,serif" font-size="14.00">$12</text>
<text text-anchor="middle" x="320.34" y="-397.8" font-family="Times,serif" font-size="14.00">$mux</text>
<polyline fill="none" stroke="black" points="348.34,-374.5 348.34,-443.5 "/>
<text text-anchor="middle" x="361.34" y="-405.3" font-family="Times,serif" font-size="14.00">Y</text>
</g>
<!-- n14&#45;&gt;c35 -->
<g id="edge15" class="edge">
<title>n14:e&#45;&gt;c35:w</title>
<path fill="none" stroke="black" d="M229.34,-257C284.91,-257 216.22,-369.44 255.28,-384.37"/>
<polygon fill="black" stroke="black" points="254.91,-387.85 265.34,-386 256.03,-380.94 254.91,-387.85"/>
</g>
<!-- c37 -->
<g id="node27" class="node">
<title>c37</title>
<polygon fill="none" stroke="black" points="265.34,-281.5 265.34,-350.5 374.34,-350.5 374.34,-281.5 265.34,-281.5"/>
<text text-anchor="middle" x="278.84" y="-335.3" font-family="Times,serif" font-size="14.00">A</text>
<polyline fill="none" stroke="black" points="265.34,-327.5 292.34,-327.5 "/>
<text text-anchor="middle" x="278.84" y="-312.3" font-family="Times,serif" font-size="14.00">B</text>
<polyline fill="none" stroke="black" points="265.34,-304.5 292.34,-304.5 "/>
<text text-anchor="middle" x="278.84" y="-289.3" font-family="Times,serif" font-size="14.00">S</text>
<polyline fill="none" stroke="black" points="292.34,-281.5 292.34,-350.5 "/>
<text text-anchor="middle" x="320.34" y="-319.8" font-family="Times,serif" font-size="14.00">$15</text>
<text text-anchor="middle" x="320.34" y="-304.8" font-family="Times,serif" font-size="14.00">$mux</text>
<polyline fill="none" stroke="black" points="348.34,-281.5 348.34,-350.5 "/>
<text text-anchor="middle" x="361.34" y="-312.3" font-family="Times,serif" font-size="14.00">Y</text>
</g>
<!-- n14&#45;&gt;c37 -->
<g id="edge16" class="edge">
<title>n14:e&#45;&gt;c37:w</title>
<path fill="none" stroke="black" d="M229.34,-257C247.72,-257 245.06,-280.77 255.55,-289.68"/>
<polygon fill="black" stroke="black" points="254.74,-293.1 265.34,-293 256.99,-286.47 254.74,-293.1"/>
</g>
<!-- c39 -->
<g id="node31" class="node">
<title>c39</title>
<polygon fill="none" stroke="black" points="265.34,-140.5 265.34,-209.5 374.34,-209.5 374.34,-140.5 265.34,-140.5"/>
<text text-anchor="middle" x="278.84" y="-194.3" font-family="Times,serif" font-size="14.00">A</text>
<polyline fill="none" stroke="black" points="265.34,-186.5 292.34,-186.5 "/>
<text text-anchor="middle" x="278.84" y="-171.3" font-family="Times,serif" font-size="14.00">B</text>
<polyline fill="none" stroke="black" points="265.34,-163.5 292.34,-163.5 "/>
<text text-anchor="middle" x="278.84" y="-148.3" font-family="Times,serif" font-size="14.00">S</text>
<polyline fill="none" stroke="black" points="292.34,-140.5 292.34,-209.5 "/>
<text text-anchor="middle" x="320.34" y="-178.8" font-family="Times,serif" font-size="14.00">$3</text>
<text text-anchor="middle" x="320.34" y="-163.8" font-family="Times,serif" font-size="14.00">$mux</text>
<polyline fill="none" stroke="black" points="348.34,-140.5 348.34,-209.5 "/>
<text text-anchor="middle" x="361.34" y="-171.3" font-family="Times,serif" font-size="14.00">Y</text>
</g>
<!-- n14&#45;&gt;c39 -->
<g id="edge17" class="edge">
<title>n14:e&#45;&gt;c39:w</title>
<path fill="none" stroke="black" d="M229.34,-257C274.63,-257 225.53,-168.52 255.34,-154"/>
<polygon fill="black" stroke="black" points="256.22,-157.4 265.34,-152 254.85,-150.53 256.22,-157.4"/>
</g>
<!-- c42 -->
<g id="node40" class="node">
<title>c42</title>
<polygon fill="none" stroke="black" points="265.34,-42.5 265.34,-111.5 374.34,-111.5 374.34,-42.5 265.34,-42.5"/>
<text text-anchor="middle" x="278.84" y="-96.3" font-family="Times,serif" font-size="14.00">A</text>
<polyline fill="none" stroke="black" points="265.34,-88.5 292.34,-88.5 "/>
<text text-anchor="middle" x="278.84" y="-73.3" font-family="Times,serif" font-size="14.00">B</text>
<polyline fill="none" stroke="black" points="265.34,-65.5 292.34,-65.5 "/>
<text text-anchor="middle" x="278.84" y="-50.3" font-family="Times,serif" font-size="14.00">S</text>
<polyline fill="none" stroke="black" points="292.34,-42.5 292.34,-111.5 "/>
<text text-anchor="middle" x="320.34" y="-80.8" font-family="Times,serif" font-size="14.00">$8</text>
<text text-anchor="middle" x="320.34" y="-65.8" font-family="Times,serif" font-size="14.00">$mux</text>
<polyline fill="none" stroke="black" points="348.34,-42.5 348.34,-111.5 "/>
<text text-anchor="middle" x="361.34" y="-73.3" font-family="Times,serif" font-size="14.00">Y</text>
</g>
<!-- n14&#45;&gt;c42 -->
<g id="edge18" class="edge">
<title>n14:e&#45;&gt;c42:w</title>
<path fill="none" stroke="black" d="M229.34,-257C317.21,-257 185.39,-70.31 255.24,-55"/>
<polygon fill="black" stroke="black" points="255.73,-58.46 265.34,-54 255.04,-51.5 255.73,-58.46"/>
</g>
<!-- n15 -->
<g id="node2" class="node">
<title>n15</title>
<polygon fill="none" stroke="black" points="832.68,-550.54 832.68,-565.46 816.86,-576 794.49,-576 778.68,-565.46 778.68,-550.54 794.49,-540 816.86,-540 832.68,-550.54"/>
<text text-anchor="middle" x="805.68" y="-554.3" font-family="Times,serif" font-size="14.00">clk</text>
</g>
<!-- c25 -->
<g id="node7" class="node">
<title>c25</title>
<polygon fill="none" stroke="black" points="921.18,-468 921.18,-560 1065.18,-560 1065.18,-468 921.18,-468"/>
<text text-anchor="middle" x="949.18" y="-544.8" font-family="Times,serif" font-size="14.00">CLK</text>
<polyline fill="none" stroke="black" points="921.18,-537 977.18,-537 "/>
<text text-anchor="middle" x="949.18" y="-521.8" font-family="Times,serif" font-size="14.00">D</text>
<polyline fill="none" stroke="black" points="921.18,-514 977.18,-514 "/>
<text text-anchor="middle" x="949.18" y="-498.8" font-family="Times,serif" font-size="14.00">EN</text>
<polyline fill="none" stroke="black" points="921.18,-491 977.18,-491 "/>
<text text-anchor="middle" x="949.18" y="-475.8" font-family="Times,serif" font-size="14.00">SRST</text>
<polyline fill="none" stroke="black" points="977.18,-468 977.18,-560 "/>
<text text-anchor="middle" x="1007.18" y="-517.8" font-family="Times,serif" font-size="14.00">$25</text>
<text text-anchor="middle" x="1007.18" y="-502.8" font-family="Times,serif" font-size="14.00">$sdffe</text>
<polyline fill="none" stroke="black" points="1037.18,-468 1037.18,-560 "/>
<text text-anchor="middle" x="1051.18" y="-510.3" font-family="Times,serif" font-size="14.00">Q</text>
</g>
<!-- n15&#45;&gt;c25 -->
<g id="edge21" class="edge">
<title>n15:e&#45;&gt;c25:w</title>
<path fill="none" stroke="black" d="M833.68,-558C869.11,-558 880.07,-550.61 910.92,-549.22"/>
<polygon fill="black" stroke="black" points="911.26,-552.72 921.18,-549 911.1,-545.72 911.26,-552.72"/>
</g>
<!-- n16 -->
<g id="node3" class="node">
<title>n16</title>
<polygon fill="none" stroke="black" points="1723.43,-521.54 1723.43,-536.46 1676.33,-547 1609.73,-547 1562.64,-536.46 1562.64,-521.54 1609.73,-511 1676.33,-511 1723.43,-521.54"/>
<text text-anchor="middle" x="1643.03" y="-525.3" font-family="Times,serif" font-size="14.00">predict_taken</text>
</g>
<!-- n17 -->
<g id="node4" class="node">
<title>n17</title>
<polygon fill="none" stroke="black" points="1222.51,-535 1101.35,-517 1222.51,-499 1343.66,-517 1222.51,-535"/>
<text text-anchor="middle" x="1222.51" y="-513.3" font-family="Times,serif" font-size="14.00">prediction_state</text>
</g>
<!-- c33 -->
<g id="node19" class="node">
<title>c33</title>
<polygon fill="none" stroke="black" points="1379.83,-446 1379.83,-492 1526.83,-492 1526.83,-446 1379.83,-446"/>
<text text-anchor="middle" x="1393.33" y="-476.8" font-family="Times,serif" font-size="14.00">A</text>
<polyline fill="none" stroke="black" points="1379.83,-469 1406.83,-469 "/>
<text text-anchor="middle" x="1393.33" y="-453.8" font-family="Times,serif" font-size="14.00">B</text>
<polyline fill="none" stroke="black" points="1406.83,-446 1406.83,-492 "/>
<text text-anchor="middle" x="1453.83" y="-472.8" font-family="Times,serif" font-size="14.00">$10_CMP0</text>
<text text-anchor="middle" x="1453.83" y="-457.8" font-family="Times,serif" font-size="14.00">$eq</text>
<polyline fill="none" stroke="black" points="1500.83,-446 1500.83,-492 "/>
<text text-anchor="middle" x="1513.83" y="-465.3" font-family="Times,serif" font-size="14.00">Y</text>
</g>
<!-- n17&#45;&gt;c33 -->
<g id="edge24" class="edge">
<title>n17:e&#45;&gt;c33:w</title>
<path fill="none" stroke="black" stroke-width="3" d="M1343.83,-517C1362.22,-517 1359.56,-493.23 1370.05,-484.32"/>
<polygon fill="black" stroke="black" stroke-width="3" points="1371.49,-487.53 1379.83,-481 1369.24,-480.9 1371.49,-487.53"/>
</g>
<!-- c36 -->
<g id="node24" class="node">
<title>c36</title>
<polygon fill="none" stroke="black" points="1379.83,-566 1379.83,-612 1526.83,-612 1526.83,-566 1379.83,-566"/>
<text text-anchor="middle" x="1393.33" y="-596.8" font-family="Times,serif" font-size="14.00">A</text>
<polyline fill="none" stroke="black" points="1379.83,-589 1406.83,-589 "/>
<text text-anchor="middle" x="1393.33" y="-573.8" font-family="Times,serif" font-size="14.00">B</text>
<polyline fill="none" stroke="black" points="1406.83,-566 1406.83,-612 "/>
<text text-anchor="middle" x="1453.83" y="-592.8" font-family="Times,serif" font-size="14.00">$14_CMP0</text>
<text text-anchor="middle" x="1453.83" y="-577.8" font-family="Times,serif" font-size="14.00">$eq</text>
<polyline fill="none" stroke="black" points="1500.83,-566 1500.83,-612 "/>
<text text-anchor="middle" x="1513.83" y="-585.3" font-family="Times,serif" font-size="14.00">Y</text>
</g>
<!-- n17&#45;&gt;c36 -->
<g id="edge25" class="edge">
<title>n17:e&#45;&gt;c36:w</title>
<path fill="none" stroke="black" stroke-width="3" d="M1343.83,-517C1380.33,-517 1347.52,-584.8 1369.94,-598.58"/>
<polygon fill="black" stroke="black" stroke-width="3" points="1369.29,-602.02 1379.83,-601 1370.95,-595.22 1369.29,-602.02"/>
</g>
<!-- c38 -->
<g id="node28" class="node">
<title>c38</title>
<polygon fill="none" stroke="black" points="1380.33,-631 1380.33,-669 1526.33,-669 1526.33,-631 1380.33,-631"/>
<text text-anchor="middle" x="1393.33" y="-646.3" font-family="Times,serif" font-size="14.00">A</text>
<polyline fill="none" stroke="black" points="1406.33,-631 1406.33,-669 "/>
<text text-anchor="middle" x="1453.33" y="-653.8" font-family="Times,serif" font-size="14.00">$17_CMP0</text>
<text text-anchor="middle" x="1453.33" y="-638.8" font-family="Times,serif" font-size="14.00">$logic_not</text>
<polyline fill="none" stroke="black" points="1500.33,-631 1500.33,-669 "/>
<text text-anchor="middle" x="1513.33" y="-646.3" font-family="Times,serif" font-size="14.00">Y</text>
</g>
<!-- n17&#45;&gt;c38 -->
<g id="edge26" class="edge">
<title>n17:e&#45;&gt;c38:w</title>
<path fill="none" stroke="black" stroke-width="3" d="M1343.83,-517C1401.01,-517 1329.43,-632.92 1369.5,-648.32"/>
<polygon fill="black" stroke="black" stroke-width="3" points="1369.4,-651.85 1379.83,-650 1370.53,-644.94 1369.4,-651.85"/>
</g>
<!-- c41 -->
<g id="node37" class="node">
<title>c41</title>
<polygon fill="none" stroke="black" points="1384.33,-381 1384.33,-427 1522.33,-427 1522.33,-381 1384.33,-381"/>
<text text-anchor="middle" x="1397.83" y="-411.8" font-family="Times,serif" font-size="14.00">A</text>
<polyline fill="none" stroke="black" points="1384.33,-404 1411.33,-404 "/>
<text text-anchor="middle" x="1397.83" y="-388.8" font-family="Times,serif" font-size="14.00">B</text>
<polyline fill="none" stroke="black" points="1411.33,-381 1411.33,-427 "/>
<text text-anchor="middle" x="1453.83" y="-407.8" font-family="Times,serif" font-size="14.00">$6_CMP0</text>
<text text-anchor="middle" x="1453.83" y="-392.8" font-family="Times,serif" font-size="14.00">$eq</text>
<polyline fill="none" stroke="black" points="1496.33,-381 1496.33,-427 "/>
<text text-anchor="middle" x="1509.33" y="-400.3" font-family="Times,serif" font-size="14.00">Y</text>
</g>
<!-- n17&#45;&gt;c41 -->
<g id="edge27" class="edge">
<title>n17:e&#45;&gt;c41:w</title>
<path fill="none" stroke="black" stroke-width="3" d="M1343.83,-517C1388.08,-517 1343.76,-431.89 1373.48,-417.93"/>
<polygon fill="black" stroke="black" stroke-width="3" points="1374.19,-421.35 1383.33,-416 1372.85,-414.48 1374.19,-421.35"/>
</g>
<!-- x20 -->
<g id="node41" class="node">
<title>x20</title>
<path fill="none" stroke="black" d="M1427.83,-511C1427.83,-511 1478.83,-511 1478.83,-511 1484.83,-511 1490.83,-517 1490.83,-523 1490.83,-523 1490.83,-535 1490.83,-535 1490.83,-541 1484.83,-547 1478.83,-547 1478.83,-547 1427.83,-547 1427.83,-547 1421.83,-547 1415.83,-541 1415.83,-535 1415.83,-535 1415.83,-523 1415.83,-523 1415.83,-517 1421.83,-511 1427.83,-511"/>
<text text-anchor="middle" x="1453.33" y="-525.3" font-family="Times,serif" font-size="14.00">1:1 &#45; 0:0</text>
</g>
<!-- n17&#45;&gt;x20 -->
<g id="edge28" class="edge">
<title>n17:e&#45;&gt;x20:w</title>
<path fill="none" stroke="black" d="M1343.83,-517C1371.89,-517 1380.58,-526.35 1404.1,-528.54"/>
<polygon fill="black" stroke="black" points="1404.19,-532.05 1414.33,-529 1404.5,-525.06 1404.19,-532.05"/>
</g>
<!-- n18 -->
<g id="node5" class="node">
<title>n18</title>
<polygon fill="none" stroke="black" points="832.68,-438.54 832.68,-453.46 816.86,-464 794.49,-464 778.68,-453.46 778.68,-438.54 794.49,-428 816.86,-428 832.68,-438.54"/>
<text text-anchor="middle" x="805.68" y="-442.3" font-family="Times,serif" font-size="14.00">rst</text>
</g>
<!-- n18&#45;&gt;c25 -->
<g id="edge29" class="edge">
<title>n18:e&#45;&gt;c25:w</title>
<path fill="none" stroke="black" d="M833.68,-446C871.51,-446 878.53,-473.34 910.82,-478.25"/>
<polygon fill="black" stroke="black" points="910.95,-481.77 921.18,-479 911.46,-474.79 910.95,-481.77"/>
</g>
<!-- n19 -->
<g id="node6" class="node">
<title>n19</title>
<polygon fill="none" stroke="black" points="579.1,-457.54 579.1,-472.46 529.69,-483 459.82,-483 410.42,-472.46 410.42,-457.54 459.82,-447 529.69,-447 579.1,-457.54"/>
<text text-anchor="middle" x="494.76" y="-461.3" font-family="Times,serif" font-size="14.00">update_enable</text>
</g>
<!-- x5 -->
<g id="node17" class="node">
<title>x5</title>
<path fill="none" stroke="black" d="M627.18,-456C627.18,-456 678.18,-456 678.18,-456 684.18,-456 690.18,-462 690.18,-468 690.18,-468 690.18,-536 690.18,-536 690.18,-542 684.18,-548 678.18,-548 678.18,-548 627.18,-548 627.18,-548 621.18,-548 615.18,-542 615.18,-536 615.18,-536 615.18,-468 615.18,-468 615.18,-462 621.18,-456 627.18,-456"/>
<text text-anchor="middle" x="652.68" y="-532.8" font-family="Times,serif" font-size="14.00">0:0 &#45; 3:3</text>
<polyline fill="none" stroke="black" points="615.18,-525 690.18,-525 "/>
<text text-anchor="middle" x="652.68" y="-509.8" font-family="Times,serif" font-size="14.00">0:0 &#45; 2:2</text>
<polyline fill="none" stroke="black" points="615.18,-502 690.18,-502 "/>
<text text-anchor="middle" x="652.68" y="-486.8" font-family="Times,serif" font-size="14.00">0:0 &#45; 1:1</text>
<polyline fill="none" stroke="black" points="615.18,-479 690.18,-479 "/>
<text text-anchor="middle" x="652.68" y="-463.8" font-family="Times,serif" font-size="14.00">0:0 &#45; 0:0</text>
</g>
<!-- n19&#45;&gt;x5 -->
<g id="edge30" class="edge">
<title>n19:e&#45;&gt;x5:w</title>
<path fill="none" stroke="black" d="M579.18,-465C591.2,-465 596.42,-466.12 605.04,-466.69"/>
<polygon fill="black" stroke="black" points="605.07,-470.19 615.18,-467 605.29,-463.19 605.07,-470.19"/>
</g>
<!-- c25&#45;&gt;n17 -->
<g id="edge23" class="edge">
<title>c25:e&#45;&gt;n17:w</title>
<path fill="none" stroke="black" stroke-width="3" d="M1065.18,-514C1077.22,-514 1082.42,-515.69 1091.04,-516.53"/>
<polygon fill="black" stroke="black" stroke-width="3" points="1091.03,-520.03 1101.18,-517 1091.35,-513.04 1091.03,-520.03"/>
</g>
<!-- v1 -->
<g id="node8" class="node">
<title>v1</title>
<ellipse fill="none" stroke="black" cx="319.84" cy="-512" rx="30.59" ry="18"/>
<text text-anchor="middle" x="319.84" y="-508.3" font-family="Times,serif" font-size="14.00">2&#39;10</text>
</g>
<!-- c29 -->
<g id="node9" class="node">
<title>c29</title>
<polygon fill="none" stroke="black" points="446.26,-502 446.26,-548 543.26,-548 543.26,-502 446.26,-502"/>
<text text-anchor="middle" x="459.76" y="-532.8" font-family="Times,serif" font-size="14.00">A</text>
<polyline fill="none" stroke="black" points="446.26,-525 473.26,-525 "/>
<text text-anchor="middle" x="459.76" y="-509.8" font-family="Times,serif" font-size="14.00">B</text>
<polyline fill="none" stroke="black" points="473.26,-502 473.26,-548 "/>
<text text-anchor="middle" x="495.26" y="-528.8" font-family="Times,serif" font-size="14.00">$27</text>
<text text-anchor="middle" x="495.26" y="-513.8" font-family="Times,serif" font-size="14.00">$ne</text>
<polyline fill="none" stroke="black" points="517.26,-502 517.26,-548 "/>
<text text-anchor="middle" x="530.26" y="-521.3" font-family="Times,serif" font-size="14.00">Y</text>
</g>
<!-- v1&#45;&gt;c29 -->
<g id="edge46" class="edge">
<title>v1:e&#45;&gt;c29:w</title>
<path fill="none" stroke="black" stroke-width="3" d="M351.84,-512C389.59,-512 401.46,-512.84 434.76,-512.98"/>
<polygon fill="black" stroke="black" stroke-width="3" points="434.75,-516.48 444.76,-513 434.77,-509.48 434.75,-516.48"/>
</g>
<!-- c29&#45;&gt;x5 -->
<g id="edge7" class="edge">
<title>c29:e&#45;&gt;x5:w</title>
<path fill="none" stroke="black" d="M544.76,-525C576.02,-525 579.73,-496.99 605.19,-491.09"/>
<polygon fill="black" stroke="black" points="605.61,-494.56 615.18,-490 604.86,-487.6 605.61,-494.56"/>
</g>
<!-- x0&#45;&gt;c29 -->
<g id="edge1" class="edge">
<title>x0:e&#45;&gt;c29:w</title>
<path fill="none" stroke="black" stroke-width="3" d="M371.11,-570.84C397.63,-565.5 406.06,-543.41 432.64,-538.13"/>
<polygon fill="none" stroke="black" stroke-width="3" points="370.78,-570.87 365.19,-575.42 358.84,-572 364.43,-567.45 370.78,-570.87"/>
<polygon fill="none" stroke="black" stroke-width="3" points="432.81,-538.12 438.41,-533.58 444.76,-537 439.16,-541.54 432.81,-538.12"/>
</g>
<!-- v3 -->
<g id="node11" class="node">
<title>v3</title>
<ellipse fill="none" stroke="black" cx="1796.73" cy="-164" rx="30.59" ry="18"/>
<text text-anchor="middle" x="1796.73" y="-160.3" font-family="Times,serif" font-size="14.00">2&#39;11</text>
</g>
<!-- c30 -->
<g id="node12" class="node">
<title>c30</title>
<polygon fill="none" stroke="black" points="1903.23,-187 1903.23,-233 2000.23,-233 2000.23,-187 1903.23,-187"/>
<text text-anchor="middle" x="1916.73" y="-217.8" font-family="Times,serif" font-size="14.00">A</text>
<polyline fill="none" stroke="black" points="1903.23,-210 1930.23,-210 "/>
<text text-anchor="middle" x="1916.73" y="-194.8" font-family="Times,serif" font-size="14.00">B</text>
<polyline fill="none" stroke="black" points="1930.23,-187 1930.23,-233 "/>
<text text-anchor="middle" x="1952.23" y="-213.8" font-family="Times,serif" font-size="14.00">$29</text>
<text text-anchor="middle" x="1952.23" y="-198.8" font-family="Times,serif" font-size="14.00">$ne</text>
<polyline fill="none" stroke="black" points="1974.23,-187 1974.23,-233 "/>
<text text-anchor="middle" x="1987.23" y="-206.3" font-family="Times,serif" font-size="14.00">Y</text>
</g>
<!-- v3&#45;&gt;c30 -->
<g id="edge55" class="edge">
<title>v3:e&#45;&gt;c30:w</title>
<path fill="none" stroke="black" stroke-width="3" d="M1828.73,-164C1860.75,-164 1865.26,-191.21 1891.47,-196.95"/>
<polygon fill="black" stroke="black" stroke-width="3" points="1891.42,-200.46 1901.73,-198 1892.14,-193.5 1891.42,-200.46"/>
</g>
<!-- c30&#45;&gt;x5 -->
<g id="edge31" class="edge">
<title>c30:e&#45;&gt;x5:w</title>
<path fill="none" stroke="black" d="M2001.73,-210C2012.18,-210 2008.28,-226.27 2000.73,-233.5 1969.44,-263.48 1946.52,-235.46 1903.23,-233.5 1787.68,-228.27 1759.7,-210 1644.03,-210 1452.33,-210 1452.33,-210 1452.33,-210 1116.5,-210 962.57,-180.45 726.18,-419 684.13,-461.43 737.74,-512.36 690.18,-548.5 663.46,-568.8 638.75,-571.88 614.68,-548.5 606.94,-540.98 602.01,-526.98 605.09,-519.33"/>
<polygon fill="black" stroke="black" points="607.03,-522.25 613.68,-514 603.33,-516.3 607.03,-522.25"/>
</g>
<!-- x2&#45;&gt;c30 -->
<g id="edge2" class="edge">
<title>x2:e&#45;&gt;c30:w</title>
<path fill="none" stroke="black" stroke-width="3" d="M1846.33,-260.07C1865.68,-253.3 1870.3,-230.65 1889.68,-223.91"/>
<polygon fill="none" stroke="black" stroke-width="3" points="1846.08,-260.11 1840.79,-265.01 1834.23,-262 1839.53,-257.11 1846.08,-260.11"/>
<polygon fill="none" stroke="black" stroke-width="3" points="1889.88,-223.88 1895.18,-218.99 1901.73,-222 1896.43,-226.89 1889.88,-223.88"/>
</g>
<!-- c31 -->
<g id="node14" class="node">
<title>c31</title>
<polygon fill="none" stroke="black" points="1870.23,-651 1870.23,-689 2033.23,-689 2033.23,-651 1870.23,-651"/>
<text text-anchor="middle" x="1883.23" y="-666.3" font-family="Times,serif" font-size="14.00">A</text>
<polyline fill="none" stroke="black" points="1896.23,-651 1896.23,-689 "/>
<text text-anchor="middle" x="1951.73" y="-673.8" font-family="Times,serif" font-size="14.00">$31</text>
<text text-anchor="middle" x="1951.73" y="-658.8" font-family="Times,serif" font-size="14.00">$reduce_bool</text>
<polyline fill="none" stroke="black" points="2007.23,-651 2007.23,-689 "/>
<text text-anchor="middle" x="2020.23" y="-666.3" font-family="Times,serif" font-size="14.00">Y</text>
</g>
<!-- c31&#45;&gt;x5 -->
<g id="edge32" class="edge">
<title>c31:e&#45;&gt;x5:w</title>
<path fill="none" stroke="black" d="M2034.73,-670C2043.41,-670 2040.02,-683.52 2033.73,-689.5 1981.05,-739.55 1942.89,-690.28 1870.23,-689.5 1359.67,-684.03 1223.36,-701.2 726.18,-585 675.4,-573.13 647.08,-589.35 614.68,-548.5 614.38,-548.12 614.08,-547.72 613.79,-547.29"/>
<polygon fill="black" stroke="black" points="617.29,-546.96 613.68,-537 610.29,-547.04 617.29,-546.96"/>
</g>
<!-- x4 -->
<g id="node15" class="node">
<title>x4</title>
<path fill="none" stroke="black" d="M1771.23,-559C1771.23,-559 1822.23,-559 1822.23,-559 1828.23,-559 1834.23,-565 1834.23,-571 1834.23,-571 1834.23,-639 1834.23,-639 1834.23,-645 1828.23,-651 1822.23,-651 1822.23,-651 1771.23,-651 1771.23,-651 1765.23,-651 1759.23,-645 1759.23,-639 1759.23,-639 1759.23,-571 1759.23,-571 1759.23,-565 1765.23,-559 1771.23,-559"/>
<text text-anchor="middle" x="1796.73" y="-635.8" font-family="Times,serif" font-size="14.00">0:0 &#45; 3:3</text>
<polyline fill="none" stroke="black" points="1759.23,-628 1834.23,-628 "/>
<text text-anchor="middle" x="1796.73" y="-612.8" font-family="Times,serif" font-size="14.00">0:0 &#45; 2:2</text>
<polyline fill="none" stroke="black" points="1759.23,-605 1834.23,-605 "/>
<text text-anchor="middle" x="1796.73" y="-589.8" font-family="Times,serif" font-size="14.00">0:0 &#45; 1:1</text>
<polyline fill="none" stroke="black" points="1759.23,-582 1834.23,-582 "/>
<text text-anchor="middle" x="1796.73" y="-566.8" font-family="Times,serif" font-size="14.00">0:0 &#45; 0:0</text>
</g>
<!-- x4&#45;&gt;c31 -->
<g id="edge3" class="edge">
<title>x4:e&#45;&gt;c31:w</title>
<path fill="none" stroke="black" stroke-width="3" d="M1845.57,-609.26C1856.81,-621.01 1847.67,-653.77 1858.79,-665.63"/>
<polygon fill="none" stroke="black" stroke-width="3" points="1845.46,-609.22 1838.44,-610.86 1834.23,-605 1841.25,-603.37 1845.46,-609.22"/>
<polygon fill="none" stroke="black" stroke-width="3" points="1859.02,-665.72 1866.05,-664.12 1870.23,-670 1863.2,-671.6 1859.02,-665.72"/>
</g>
<!-- c32 -->
<g id="node16" class="node">
<title>c32</title>
<polygon fill="none" stroke="black" points="726.18,-483 726.18,-521 885.18,-521 885.18,-483 726.18,-483"/>
<text text-anchor="middle" x="739.18" y="-498.3" font-family="Times,serif" font-size="14.00">A</text>
<polyline fill="none" stroke="black" points="752.18,-483 752.18,-521 "/>
<text text-anchor="middle" x="805.68" y="-505.8" font-family="Times,serif" font-size="14.00">$33</text>
<text text-anchor="middle" x="805.68" y="-490.8" font-family="Times,serif" font-size="14.00">$reduce_and</text>
<polyline fill="none" stroke="black" points="859.18,-483 859.18,-521 "/>
<text text-anchor="middle" x="872.18" y="-498.3" font-family="Times,serif" font-size="14.00">Y</text>
</g>
<!-- c32&#45;&gt;c25 -->
<g id="edge33" class="edge">
<title>c32:e&#45;&gt;c25:w</title>
<path fill="none" stroke="black" d="M885.18,-502C897.18,-502 902.43,-502 911.05,-502"/>
<polygon fill="black" stroke="black" points="911.18,-505.5 921.18,-502 911.18,-498.5 911.18,-505.5"/>
</g>
<!-- x5&#45;&gt;c32 -->
<g id="edge4" class="edge">
<title>x5:e&#45;&gt;c32:w</title>
<path fill="none" stroke="black" stroke-width="3" d="M702.39,-502C706.47,-502 709.91,-502 713.99,-502"/>
<polygon fill="none" stroke="black" stroke-width="3" points="702.18,-502 696.18,-506 690.18,-502 696.18,-498 702.18,-502"/>
<polygon fill="none" stroke="black" stroke-width="3" points="714.18,-502 720.18,-498 726.18,-502 720.18,-506 714.18,-502"/>
</g>
<!-- v6 -->
<g id="node18" class="node">
<title>v6</title>
<ellipse fill="none" stroke="black" cx="1222.51" cy="-457" rx="30.59" ry="18"/>
<text text-anchor="middle" x="1222.51" y="-453.3" font-family="Times,serif" font-size="14.00">2&#39;10</text>
</g>
<!-- v6&#45;&gt;c33 -->
<g id="edge56" class="edge">
<title>v6:e&#45;&gt;c33:w</title>
<path fill="none" stroke="black" stroke-width="3" d="M1254.51,-457C1306.62,-457 1322.16,-457 1369.56,-457"/>
<polygon fill="black" stroke="black" stroke-width="3" points="1369.83,-460.5 1379.83,-457 1369.83,-453.5 1369.83,-460.5"/>
</g>
<!-- n5 -->
<g id="node43" class="node">
<title>n5</title>
<ellipse fill="black" stroke="black" cx="1643.03" cy="-469" rx="1.8" ry="1.8"/>
</g>
<!-- c33&#45;&gt;n5 -->
<g id="edge34" class="edge">
<title>c33:e&#45;&gt;n5:w</title>
<path fill="none" stroke="black" d="M1526.83,-469C1573.61,-469 1587.77,-469 1629.95,-469"/>
<polygon fill="black" stroke="black" points="1630.03,-472.5 1640.03,-469 1630.03,-465.5 1630.03,-472.5"/>
</g>
<!-- v7 -->
<g id="node20" class="node">
<title>v7</title>
<ellipse fill="none" stroke="black" cx="114.67" cy="-473" rx="30.59" ry="18"/>
<text text-anchor="middle" x="114.67" y="-469.3" font-family="Times,serif" font-size="14.00">2&#39;00</text>
</g>
<!-- v7&#45;&gt;c35 -->
<g id="edge57" class="edge">
<title>v7:e&#45;&gt;c35:w</title>
<path fill="none" stroke="black" stroke-width="3" d="M146.67,-473C185.32,-473 192.94,-459.01 229.34,-446 241.72,-441.58 246.18,-435.72 255.3,-433.22"/>
<polygon fill="black" stroke="black" stroke-width="3" points="255.83,-436.68 265.34,-432 254.99,-429.73 255.83,-436.68"/>
</g>
<!-- v8 -->
<g id="node21" class="node">
<title>v8</title>
<ellipse fill="none" stroke="black" cx="114.67" cy="-419" rx="30.59" ry="18"/>
<text text-anchor="middle" x="114.67" y="-415.3" font-family="Times,serif" font-size="14.00">2&#39;10</text>
</g>
<!-- v8&#45;&gt;c35 -->
<g id="edge58" class="edge">
<title>v8:e&#45;&gt;c35:w</title>
<path fill="none" stroke="black" stroke-width="3" d="M146.67,-419C196.08,-419 210.53,-410.28 255.3,-409.13"/>
<polygon fill="black" stroke="black" stroke-width="3" points="255.38,-412.63 265.34,-409 255.3,-405.63 255.38,-412.63"/>
</g>
<!-- x15 -->
<g id="node34" class="node">
<title>x15</title>
<path fill="none" stroke="black" d="M469.26,-267C469.26,-267 520.26,-267 520.26,-267 526.26,-267 532.26,-273 532.26,-279 532.26,-279 532.26,-347 532.26,-347 532.26,-353 526.26,-359 520.26,-359 520.26,-359 469.26,-359 469.26,-359 463.26,-359 457.26,-353 457.26,-347 457.26,-347 457.26,-279 457.26,-279 457.26,-273 463.26,-267 469.26,-267"/>
<text text-anchor="middle" x="494.76" y="-343.8" font-family="Times,serif" font-size="14.00">1:0 &#45; 7:6</text>
<polyline fill="none" stroke="black" points="457.26,-336 532.26,-336 "/>
<text text-anchor="middle" x="494.76" y="-320.8" font-family="Times,serif" font-size="14.00">1:0 &#45; 5:4</text>
<polyline fill="none" stroke="black" points="457.26,-313 532.26,-313 "/>
<text text-anchor="middle" x="494.76" y="-297.8" font-family="Times,serif" font-size="14.00">1:0 &#45; 3:2</text>
<polyline fill="none" stroke="black" points="457.26,-290 532.26,-290 "/>
<text text-anchor="middle" x="494.76" y="-274.8" font-family="Times,serif" font-size="14.00">1:0 &#45; 1:0</text>
</g>
<!-- c35&#45;&gt;x15 -->
<g id="edge37" class="edge">
<title>c35:e&#45;&gt;x15:w</title>
<path fill="none" stroke="black" stroke-width="3" d="M374.34,-409C422.47,-409 406.7,-337.01 445.35,-326.32"/>
<polygon fill="black" stroke="black" stroke-width="3" points="446.28,-329.73 455.76,-325 445.4,-322.79 446.28,-329.73"/>
</g>
<!-- v9 -->
<g id="node23" class="node">
<title>v9</title>
<ellipse fill="none" stroke="black" cx="1222.51" cy="-577" rx="30.59" ry="18"/>
<text text-anchor="middle" x="1222.51" y="-573.3" font-family="Times,serif" font-size="14.00">2&#39;01</text>
</g>
<!-- v9&#45;&gt;c36 -->
<g id="edge59" class="edge">
<title>v9:e&#45;&gt;c36:w</title>
<path fill="none" stroke="black" stroke-width="3" d="M1254.51,-577C1306.62,-577 1322.16,-577 1369.56,-577"/>
<polygon fill="black" stroke="black" stroke-width="3" points="1369.83,-580.5 1379.83,-577 1369.83,-573.5 1369.83,-580.5"/>
</g>
<!-- n7 -->
<g id="node44" class="node">
<title>n7</title>
<ellipse fill="black" stroke="black" cx="1643.03" cy="-589" rx="1.8" ry="1.8"/>
</g>
<!-- c36&#45;&gt;n7 -->
<g id="edge38" class="edge">
<title>c36:e&#45;&gt;n7:w</title>
<path fill="none" stroke="black" d="M1526.83,-589C1573.61,-589 1587.77,-589 1629.95,-589"/>
<polygon fill="black" stroke="black" points="1630.03,-592.5 1640.03,-589 1630.03,-585.5 1630.03,-592.5"/>
</g>
<!-- v10 -->
<g id="node25" class="node">
<title>v10</title>
<ellipse fill="none" stroke="black" cx="114.67" cy="-365" rx="27" ry="18"/>
<text text-anchor="middle" x="114.67" y="-361.3" font-family="Times,serif" font-size="14.00">2&#39;x</text>
</g>
<!-- v10&#45;&gt;c37 -->
<g id="edge47" class="edge">
<title>v10:e&#45;&gt;c37:w</title>
<path fill="none" stroke="black" stroke-width="3" d="M142.67,-365C194.81,-365 207.98,-342.24 255.09,-339.31"/>
<polygon fill="black" stroke="black" stroke-width="3" points="255.45,-342.8 265.34,-339 255.24,-335.8 255.45,-342.8"/>
</g>
<!-- v11 -->
<g id="node26" class="node">
<title>v11</title>
<ellipse fill="none" stroke="black" cx="114.67" cy="-311" rx="30.59" ry="18"/>
<text text-anchor="middle" x="114.67" y="-307.3" font-family="Times,serif" font-size="14.00">2&#39;01</text>
</g>
<!-- v11&#45;&gt;c37 -->
<g id="edge48" class="edge">
<title>v11:e&#45;&gt;c37:w</title>
<path fill="none" stroke="black" stroke-width="3" d="M146.67,-311C195.95,-311 210.64,-315.36 255.32,-315.94"/>
<polygon fill="black" stroke="black" stroke-width="3" points="255.32,-319.44 265.34,-316 255.36,-312.44 255.32,-319.44"/>
</g>
<!-- c37&#45;&gt;x15 -->
<g id="edge41" class="edge">
<title>c37:e&#45;&gt;x15:w</title>
<path fill="none" stroke="black" stroke-width="3" d="M374.34,-316C409.57,-316 415.88,-342.28 445.69,-347.21"/>
<polygon fill="black" stroke="black" stroke-width="3" points="445.51,-350.71 455.76,-348 446.06,-343.73 445.51,-350.71"/>
</g>
<!-- n9 -->
<g id="node45" class="node">
<title>n9</title>
<ellipse fill="black" stroke="black" cx="1643.03" cy="-645" rx="1.8" ry="1.8"/>
</g>
<!-- c38&#45;&gt;n9 -->
<g id="edge42" class="edge">
<title>c38:e&#45;&gt;n9:w</title>
<path fill="none" stroke="black" d="M1526.83,-650C1573.65,-650 1587.73,-645.68 1629.95,-645.07"/>
<polygon fill="black" stroke="black" points="1630.06,-648.57 1640.03,-645 1630.01,-641.57 1630.06,-648.57"/>
</g>
<!-- v12 -->
<g id="node29" class="node">
<title>v12</title>
<ellipse fill="none" stroke="black" cx="114.67" cy="-203" rx="30.59" ry="18"/>
<text text-anchor="middle" x="114.67" y="-199.3" font-family="Times,serif" font-size="14.00">2&#39;10</text>
</g>
<!-- v12&#45;&gt;c39 -->
<g id="edge49" class="edge">
<title>v12:e&#45;&gt;c39:w</title>
<path fill="none" stroke="black" stroke-width="3" d="M146.67,-203C195.95,-203 210.64,-198.64 255.32,-198.06"/>
<polygon fill="black" stroke="black" stroke-width="3" points="255.36,-201.56 265.34,-198 255.32,-194.56 255.36,-201.56"/>
</g>
<!-- v13 -->
<g id="node30" class="node">
<title>v13</title>
<ellipse fill="none" stroke="black" cx="114.67" cy="-149" rx="27" ry="18"/>
<text text-anchor="middle" x="114.67" y="-145.3" font-family="Times,serif" font-size="14.00">2&#39;x</text>
</g>
<!-- v13&#45;&gt;c39 -->
<g id="edge50" class="edge">
<title>v13:e&#45;&gt;c39:w</title>
<path fill="none" stroke="black" stroke-width="3" d="M142.67,-149C194.81,-149 207.98,-171.76 255.09,-174.69"/>
<polygon fill="black" stroke="black" stroke-width="3" points="255.24,-178.2 265.34,-175 255.45,-171.2 255.24,-178.2"/>
</g>
<!-- c39&#45;&gt;x15 -->
<g id="edge8" class="edge">
<title>c39:e&#45;&gt;x15:w</title>
<path fill="none" stroke="black" stroke-width="3" d="M374.34,-175C428.93,-175 401.56,-265.15 445.59,-276.77"/>
<polygon fill="black" stroke="black" stroke-width="3" points="445.41,-280.27 455.76,-278 446.25,-273.33 445.41,-280.27"/>
</g>
<!-- v14 -->
<g id="node32" class="node">
<title>v14</title>
<ellipse fill="none" stroke="black" cx="1796.73" cy="-522" rx="27" ry="18"/>
<text text-anchor="middle" x="1796.73" y="-518.3" font-family="Times,serif" font-size="14.00">2&#39;x</text>
</g>
<!-- c40 -->
<g id="node33" class="node">
<title>c40</title>
<polygon fill="none" stroke="black" points="1892.73,-372.5 1892.73,-441.5 2010.73,-441.5 2010.73,-372.5 1892.73,-372.5"/>
<text text-anchor="middle" x="1906.23" y="-426.3" font-family="Times,serif" font-size="14.00">A</text>
<polyline fill="none" stroke="black" points="1892.73,-418.5 1919.73,-418.5 "/>
<text text-anchor="middle" x="1906.23" y="-403.3" font-family="Times,serif" font-size="14.00">B</text>
<polyline fill="none" stroke="black" points="1892.73,-395.5 1919.73,-395.5 "/>
<text text-anchor="middle" x="1906.23" y="-380.3" font-family="Times,serif" font-size="14.00">S</text>
<polyline fill="none" stroke="black" points="1919.73,-372.5 1919.73,-441.5 "/>
<text text-anchor="middle" x="1952.23" y="-410.8" font-family="Times,serif" font-size="14.00">$5</text>
<text text-anchor="middle" x="1952.23" y="-395.8" font-family="Times,serif" font-size="14.00">$pmux</text>
<polyline fill="none" stroke="black" points="1984.73,-372.5 1984.73,-441.5 "/>
<text text-anchor="middle" x="1997.73" y="-403.3" font-family="Times,serif" font-size="14.00">Y</text>
</g>
<!-- v14&#45;&gt;c40 -->
<g id="edge51" class="edge">
<title>v14:e&#45;&gt;c40:w</title>
<path fill="none" stroke="black" stroke-width="3" d="M1824.73,-522C1871.56,-522 1845.75,-443.15 1881.8,-431.45"/>
<polygon fill="black" stroke="black" stroke-width="3" points="1882.34,-434.9 1891.73,-430 1881.33,-427.98 1882.34,-434.9"/>
</g>
<!-- c40&#45;&gt;c25 -->
<g id="edge9" class="edge">
<title>c40:e&#45;&gt;c25:w</title>
<path fill="none" stroke="black" stroke-width="3" d="M2011.73,-407C2027.29,-407 2021.89,-431.15 2010.73,-442 1973.12,-478.55 1941.23,-461.97 1892.73,-442 1858.87,-428.06 1866.81,-400.71 1834.23,-384 1757.96,-344.88 1729.75,-352 1644.03,-352 1452.33,-352 1452.33,-352 1452.33,-352 1374.19,-352 1160,-319.55 1101.18,-371 1036.64,-427.44 1131.21,-505.83 1065.18,-560.5 1015.88,-601.31 967.08,-605.09 921.18,-560.5 913.44,-552.98 908.51,-538.98 911.59,-531.33"/>
<polygon fill="black" stroke="black" stroke-width="3" points="913.53,-534.25 920.18,-526 909.83,-528.3 913.53,-534.25"/>
</g>
<!-- x15&#45;&gt;c40 -->
<g id="edge5" class="edge">
<title>x15:e&#45;&gt;c40:w</title>
<path fill="none" stroke="black" stroke-width="3" d="M545.8,-313C656.33,-313.07 688.38,-314 804.68,-314 804.68,-314 804.68,-314 1644.03,-314 1730.32,-314 1757.62,-313.3 1834.23,-353 1861.1,-366.93 1858.3,-397.05 1879.59,-405.03"/>
<polygon fill="none" stroke="black" stroke-width="3" points="545.76,-313 539.76,-317 533.76,-313 539.76,-309 545.76,-313"/>
<polygon fill="none" stroke="black" stroke-width="3" points="1879.89,-405.08 1886.45,-402.09 1891.73,-407 1885.17,-409.99 1879.89,-405.08"/>
</g>
<!-- x16 -->
<g id="node35" class="node">
<title>x16</title>
<path fill="none" stroke="black" d="M1771.23,-393C1771.23,-393 1822.23,-393 1822.23,-393 1828.23,-393 1834.23,-399 1834.23,-405 1834.23,-405 1834.23,-473 1834.23,-473 1834.23,-479 1828.23,-485 1822.23,-485 1822.23,-485 1771.23,-485 1771.23,-485 1765.23,-485 1759.23,-479 1759.23,-473 1759.23,-473 1759.23,-405 1759.23,-405 1759.23,-399 1765.23,-393 1771.23,-393"/>
<text text-anchor="middle" x="1796.73" y="-469.8" font-family="Times,serif" font-size="14.00">0:0 &#45; 3:3</text>
<polyline fill="none" stroke="black" points="1759.23,-462 1834.23,-462 "/>
<text text-anchor="middle" x="1796.73" y="-446.8" font-family="Times,serif" font-size="14.00">0:0 &#45; 2:2</text>
<polyline fill="none" stroke="black" points="1759.23,-439 1834.23,-439 "/>
<text text-anchor="middle" x="1796.73" y="-423.8" font-family="Times,serif" font-size="14.00">0:0 &#45; 1:1</text>
<polyline fill="none" stroke="black" points="1759.23,-416 1834.23,-416 "/>
<text text-anchor="middle" x="1796.73" y="-400.8" font-family="Times,serif" font-size="14.00">0:0 &#45; 0:0</text>
</g>
<!-- x16&#45;&gt;c40 -->
<g id="edge6" class="edge">
<title>x16:e&#45;&gt;c40:w</title>
<path fill="none" stroke="black" stroke-width="3" d="M1845.98,-436.35C1863.66,-427.08 1862.24,-396.18 1879.79,-386.76"/>
<polygon fill="none" stroke="black" stroke-width="3" points="1845.94,-436.36 1840.96,-441.58 1834.23,-439 1839.2,-433.78 1845.94,-436.36"/>
<polygon fill="none" stroke="black" stroke-width="3" points="1880.04,-386.7 1884.98,-381.45 1891.73,-384 1886.78,-389.25 1880.04,-386.7"/>
</g>
<!-- v17 -->
<g id="node36" class="node">
<title>v17</title>
<ellipse fill="none" stroke="black" cx="1222.51" cy="-398" rx="30.59" ry="18"/>
<text text-anchor="middle" x="1222.51" y="-394.3" font-family="Times,serif" font-size="14.00">2&#39;11</text>
</g>
<!-- v17&#45;&gt;c41 -->
<g id="edge52" class="edge">
<title>v17:e&#45;&gt;c41:w</title>
<path fill="none" stroke="black" stroke-width="3" d="M1254.51,-398C1308.24,-398 1324.07,-392.73 1373.07,-392.07"/>
<polygon fill="black" stroke="black" stroke-width="3" points="1373.36,-395.57 1383.33,-392 1373.31,-388.57 1373.36,-395.57"/>
</g>
<!-- n12 -->
<g id="node42" class="node">
<title>n12</title>
<ellipse fill="black" stroke="black" cx="1643.03" cy="-404" rx="1.8" ry="1.8"/>
</g>
<!-- c41&#45;&gt;n12 -->
<g id="edge10" class="edge">
<title>c41:e&#45;&gt;n12:w</title>
<path fill="none" stroke="black" d="M1523.33,-404C1571.65,-404 1586.21,-404 1629.92,-404"/>
<polygon fill="black" stroke="black" points="1630.03,-407.5 1640.03,-404 1630.03,-400.5 1630.03,-407.5"/>
</g>
<!-- v18 -->
<g id="node38" class="node">
<title>v18</title>
<ellipse fill="none" stroke="black" cx="114.67" cy="-95" rx="30.59" ry="18"/>
<text text-anchor="middle" x="114.67" y="-91.3" font-family="Times,serif" font-size="14.00">2&#39;01</text>
</g>
<!-- v18&#45;&gt;c42 -->
<g id="edge53" class="edge">
<title>v18:e&#45;&gt;c42:w</title>
<path fill="none" stroke="black" stroke-width="3" d="M146.67,-95C195.95,-95 210.64,-99.36 255.32,-99.94"/>
<polygon fill="black" stroke="black" stroke-width="3" points="255.32,-103.44 265.34,-100 255.36,-96.44 255.32,-103.44"/>
</g>
<!-- v19 -->
<g id="node39" class="node">
<title>v19</title>
<ellipse fill="none" stroke="black" cx="114.67" cy="-41" rx="30.59" ry="18"/>
<text text-anchor="middle" x="114.67" y="-37.3" font-family="Times,serif" font-size="14.00">2&#39;11</text>
</g>
<!-- v19&#45;&gt;c42 -->
<g id="edge54" class="edge">
<title>v19:e&#45;&gt;c42:w</title>
<path fill="none" stroke="black" stroke-width="3" d="M146.67,-41C171.21,-41 224.31,-69.56 255.1,-75.8"/>
<polygon fill="black" stroke="black" stroke-width="3" points="255,-79.31 265.34,-77 255.81,-72.36 255,-79.31"/>
</g>
<!-- c42&#45;&gt;x15 -->
<g id="edge14" class="edge">
<title>c42:e&#45;&gt;x15:w</title>
<path fill="none" stroke="black" stroke-width="3" d="M374.34,-77C476.65,-77 358.47,-285.95 445.71,-300.23"/>
<polygon fill="black" stroke="black" stroke-width="3" points="445.52,-303.73 455.76,-301 446.05,-296.75 445.52,-303.73"/>
</g>
<!-- x20&#45;&gt;n16 -->
<g id="edge22" class="edge">
<title>x20:e&#45;&gt;n16:w</title>
<path fill="none" stroke="black" d="M1492.33,-529C1520,-529 1529.34,-529 1552.71,-529"/>
<polygon fill="black" stroke="black" points="1552.83,-532.5 1562.83,-529 1552.83,-525.5 1552.83,-532.5"/>
</g>
<!-- n12&#45;&gt;x2 -->
<g id="edge12" class="edge">
<title>n12:e&#45;&gt;x2:w</title>
<path fill="none" stroke="black" d="M1646.03,-404C1719.05,-404 1686.11,-285.9 1749.2,-274.83"/>
<polygon fill="black" stroke="black" points="1749.55,-278.31 1759.23,-274 1748.98,-271.34 1749.55,-278.31"/>
</g>
<!-- n12&#45;&gt;x4 -->
<g id="edge13" class="edge">
<title>n12:e&#45;&gt;x4:w</title>
<path fill="none" stroke="black" d="M1646.03,-404C1687.9,-404 1698.37,-424.31 1723.23,-458 1751.97,-496.95 1713.54,-559.77 1749.16,-568.88"/>
<polygon fill="black" stroke="black" points="1748.91,-572.38 1759.23,-570 1749.68,-565.42 1748.91,-572.38"/>
</g>
<!-- n12&#45;&gt;x16 -->
<g id="edge11" class="edge">
<title>n12:e&#45;&gt;x16:w</title>
<path fill="none" stroke="black" d="M1646.03,-404C1692.81,-404 1706.97,-404 1749.15,-404"/>
<polygon fill="black" stroke="black" points="1749.23,-407.5 1759.23,-404 1749.23,-400.5 1749.23,-407.5"/>
</g>
<!-- n5&#45;&gt;x4 -->
<g id="edge36" class="edge">
<title>n5:e&#45;&gt;x4:w</title>
<path fill="none" stroke="black" d="M1646.03,-469C1683.35,-469 1697.21,-475.26 1723.23,-502 1750.72,-530.25 1722.23,-582.03 1749.02,-591.5"/>
<polygon fill="black" stroke="black" points="1748.83,-595 1759.23,-593 1749.85,-588.08 1748.83,-595"/>
</g>
<!-- n5&#45;&gt;x16 -->
<g id="edge35" class="edge">
<title>n5:e&#45;&gt;x16:w</title>
<path fill="none" stroke="black" d="M1646.03,-469C1696.13,-469 1704.58,-432.39 1749.14,-427.53"/>
<polygon fill="black" stroke="black" points="1749.43,-431.02 1759.23,-427 1749.06,-424.03 1749.43,-431.02"/>
</g>
<!-- n7&#45;&gt;x4 -->
<g id="edge40" class="edge">
<title>n7:e&#45;&gt;x4:w</title>
<path fill="none" stroke="black" d="M1646.03,-589C1694.32,-589 1705.9,-613.3 1749.17,-616.63"/>
<polygon fill="black" stroke="black" points="1749.11,-620.13 1759.23,-617 1749.37,-613.13 1749.11,-620.13"/>
</g>
<!-- n7&#45;&gt;x16 -->
<g id="edge39" class="edge">
<title>n7:e&#45;&gt;x16:w</title>
<path fill="none" stroke="black" d="M1646.03,-589C1683.35,-589 1697.84,-583.34 1723.23,-556 1754.05,-522.82 1717.05,-462.08 1748.94,-452.33"/>
<polygon fill="black" stroke="black" points="1749.76,-455.76 1759.23,-451 1748.86,-448.81 1749.76,-455.76"/>
</g>
<!-- n9&#45;&gt;x0 -->
<g id="edge43" class="edge">
<title>n9:e&#45;&gt;x0:w</title>
<path fill="none" stroke="black" d="M1646.03,-645C1701.12,-645 1581.18,-669.99 1526.83,-679 1393.58,-701.09 1358.58,-698 1223.51,-698 651.68,-698 651.68,-698 651.68,-698 570.18,-698 234.33,-596.13 270.67,-584.99"/>
<polygon fill="black" stroke="black" points="271.22,-588.45 280.84,-584 270.55,-581.48 271.22,-588.45"/>
</g>
<!-- n9&#45;&gt;x4 -->
<g id="edge45" class="edge">
<title>n9:e&#45;&gt;x4:w</title>
<path fill="none" stroke="black" d="M1646.03,-645C1692.85,-645 1706.93,-640.68 1749.14,-640.07"/>
<polygon fill="black" stroke="black" points="1749.26,-643.57 1759.23,-640 1749.21,-636.57 1749.26,-643.57"/>
</g>
<!-- n9&#45;&gt;x16 -->
<g id="edge44" class="edge">
<title>n9:e&#45;&gt;x16:w</title>
<path fill="none" stroke="black" d="M1646.03,-645C1685.75,-645 1698.86,-631.36 1723.23,-600 1756.6,-557.07 1708.28,-484.48 1749.1,-475.03"/>
<polygon fill="black" stroke="black" points="1749.63,-478.49 1759.23,-474 1748.93,-471.53 1749.63,-478.49"/>
</g>
</g>
</svg>
