<?xml version="1.0" encoding="UTF-8" standalone="no"?>
<!DOCTYPE svg PUBLIC "-//W3C//DTD SVG 1.1//EN"
 "http://www.w3.org/Graphics/SVG/1.1/DTD/svg11.dtd">
<!-- Generated by graphviz version 2.43.0 (0)
 -->
<!-- Title: dma_control_register Pages: 1 -->
<svg width="458pt" height="284pt"
 viewBox="0.00 0.00 457.59 284.00" xmlns="http://www.w3.org/2000/svg" xmlns:xlink="http://www.w3.org/1999/xlink">
<g id="graph0" class="graph" transform="scale(1 1) rotate(0) translate(4 280)">
<title>dma_control_register</title>
<polygon fill="white" stroke="transparent" points="-4,4 -4,-280 453.59,-280 453.59,4 -4,4"/>
<text text-anchor="middle" x="224.8" y="-7.8" font-family="Times,serif" font-size="14.00">dma_control_register</text>
<!-- n1 -->
<g id="node1" class="node">
<title>n1</title>
<polygon fill="none" stroke="black" points="448.87,-232.54 448.87,-247.46 415.5,-258 368.31,-258 334.94,-247.46 334.94,-232.54 368.31,-222 415.5,-222 448.87,-232.54"/>
<text text-anchor="middle" x="391.91" y="-236.3" font-family="Times,serif" font-size="14.00">busy_reg</text>
</g>
<!-- n2 -->
<g id="node2" class="node">
<title>n2</title>
<polygon fill="none" stroke="black" points="89.61,-142.54 89.61,-157.46 73.79,-168 51.43,-168 35.61,-157.46 35.61,-142.54 51.43,-132 73.79,-132 89.61,-142.54"/>
<text text-anchor="middle" x="62.61" y="-146.3" font-family="Times,serif" font-size="14.00">clk</text>
</g>
<!-- c13 -->
<g id="node9" class="node">
<title>c13</title>
<polygon fill="none" stroke="black" points="161.22,-29.5 161.22,-98.5 298.22,-98.5 298.22,-29.5 161.22,-29.5"/>
<text text-anchor="middle" x="189.22" y="-83.3" font-family="Times,serif" font-size="14.00">ARST</text>
<polyline fill="none" stroke="black" points="161.22,-75.5 217.22,-75.5 "/>
<text text-anchor="middle" x="189.22" y="-60.3" font-family="Times,serif" font-size="14.00">CLK</text>
<polyline fill="none" stroke="black" points="161.22,-52.5 217.22,-52.5 "/>
<text text-anchor="middle" x="189.22" y="-37.3" font-family="Times,serif" font-size="14.00">D</text>
<polyline fill="none" stroke="black" points="217.22,-29.5 217.22,-98.5 "/>
<text text-anchor="middle" x="243.72" y="-67.8" font-family="Times,serif" font-size="14.00">$2</text>
<text text-anchor="middle" x="243.72" y="-52.8" font-family="Times,serif" font-size="14.00">$adff</text>
<polyline fill="none" stroke="black" points="270.22,-29.5 270.22,-98.5 "/>
<text text-anchor="middle" x="284.22" y="-60.3" font-family="Times,serif" font-size="14.00">Q</text>
</g>
<!-- n2&#45;&gt;c13 -->
<g id="edge2" class="edge">
<title>n2:e&#45;&gt;c13:w</title>
<path fill="none" stroke="black" d="M90.61,-150C110.12,-150 112.24,-137.56 125.22,-123 142.95,-103.12 133.9,-73.35 151.22,-65.79"/>
<polygon fill="black" stroke="black" points="152,-69.21 161.22,-64 150.76,-62.32 152,-69.21"/>
</g>
<!-- c14 -->
<g id="node10" class="node">
<title>c14</title>
<polygon fill="none" stroke="black" points="161.22,-205.5 161.22,-274.5 298.22,-274.5 298.22,-205.5 161.22,-205.5"/>
<text text-anchor="middle" x="189.22" y="-259.3" font-family="Times,serif" font-size="14.00">ARST</text>
<polyline fill="none" stroke="black" points="161.22,-251.5 217.22,-251.5 "/>
<text text-anchor="middle" x="189.22" y="-236.3" font-family="Times,serif" font-size="14.00">CLK</text>
<polyline fill="none" stroke="black" points="161.22,-228.5 217.22,-228.5 "/>
<text text-anchor="middle" x="189.22" y="-213.3" font-family="Times,serif" font-size="14.00">D</text>
<polyline fill="none" stroke="black" points="217.22,-205.5 217.22,-274.5 "/>
<text text-anchor="middle" x="243.72" y="-243.8" font-family="Times,serif" font-size="14.00">$3</text>
<text text-anchor="middle" x="243.72" y="-228.8" font-family="Times,serif" font-size="14.00">$adff</text>
<polyline fill="none" stroke="black" points="270.22,-205.5 270.22,-274.5 "/>
<text text-anchor="middle" x="284.22" y="-236.3" font-family="Times,serif" font-size="14.00">Q</text>
</g>
<!-- n2&#45;&gt;c14 -->
<g id="edge3" class="edge">
<title>n2:e&#45;&gt;c14:w</title>
<path fill="none" stroke="black" d="M90.61,-150C110.12,-150 112.45,-162.25 125.22,-177 143.69,-198.33 132.71,-230.57 151.28,-238.29"/>
<polygon fill="black" stroke="black" points="150.77,-241.76 161.22,-240 151.96,-234.86 150.77,-241.76"/>
</g>
<!-- c15 -->
<g id="node11" class="node">
<title>c15</title>
<polygon fill="none" stroke="black" points="161.22,-117.5 161.22,-186.5 298.22,-186.5 298.22,-117.5 161.22,-117.5"/>
<text text-anchor="middle" x="189.22" y="-171.3" font-family="Times,serif" font-size="14.00">ARST</text>
<polyline fill="none" stroke="black" points="161.22,-163.5 217.22,-163.5 "/>
<text text-anchor="middle" x="189.22" y="-148.3" font-family="Times,serif" font-size="14.00">CLK</text>
<polyline fill="none" stroke="black" points="161.22,-140.5 217.22,-140.5 "/>
<text text-anchor="middle" x="189.22" y="-125.3" font-family="Times,serif" font-size="14.00">D</text>
<polyline fill="none" stroke="black" points="217.22,-117.5 217.22,-186.5 "/>
<text text-anchor="middle" x="243.72" y="-155.8" font-family="Times,serif" font-size="14.00">$4</text>
<text text-anchor="middle" x="243.72" y="-140.8" font-family="Times,serif" font-size="14.00">$adff</text>
<polyline fill="none" stroke="black" points="270.22,-117.5 270.22,-186.5 "/>
<text text-anchor="middle" x="284.22" y="-148.3" font-family="Times,serif" font-size="14.00">Q</text>
</g>
<!-- n2&#45;&gt;c15 -->
<g id="edge4" class="edge">
<title>n2:e&#45;&gt;c15:w</title>
<path fill="none" stroke="black" d="M90.61,-150C118.33,-150 127.67,-151.56 151.08,-151.92"/>
<polygon fill="black" stroke="black" points="151.2,-155.42 161.22,-152 151.25,-148.43 151.2,-155.42"/>
</g>
<!-- n3 -->
<g id="node3" class="node">
<title>n3</title>
<polygon fill="none" stroke="black" points="124.43,-250.54 124.43,-265.46 88.22,-276 37.01,-276 0.8,-265.46 0.8,-250.54 37.01,-240 88.22,-240 124.43,-250.54"/>
<text text-anchor="middle" x="62.61" y="-254.3" font-family="Times,serif" font-size="14.00">dma_busy</text>
</g>
<!-- n3&#45;&gt;c14 -->
<g id="edge5" class="edge">
<title>n3:e&#45;&gt;c14:w</title>
<path fill="none" stroke="black" d="M125.22,-258C145.3,-258 140.18,-229.88 151.6,-220.22"/>
<polygon fill="black" stroke="black" points="152.85,-223.49 161.22,-217 150.63,-216.85 152.85,-223.49"/>
</g>
<!-- n4 -->
<g id="node4" class="node">
<title>n4</title>
<polygon fill="none" stroke="black" points="125.33,-88.54 125.33,-103.46 88.59,-114 36.63,-114 -0.11,-103.46 -0.11,-88.54 36.63,-78 88.59,-78 125.33,-88.54"/>
<text text-anchor="middle" x="62.61" y="-92.3" font-family="Times,serif" font-size="14.00">dma_done</text>
</g>
<!-- n4&#45;&gt;c15 -->
<g id="edge6" class="edge">
<title>n4:e&#45;&gt;c15:w</title>
<path fill="none" stroke="black" d="M125.22,-96C142.69,-96 141.3,-117.37 151.4,-125.72"/>
<polygon fill="black" stroke="black" points="150.63,-129.15 161.22,-129 152.85,-122.51 150.63,-129.15"/>
</g>
<!-- n5 -->
<g id="node5" class="node">
<title>n5</title>
<polygon fill="none" stroke="black" points="449.78,-144.54 449.78,-159.46 415.88,-170 367.94,-170 334.03,-159.46 334.03,-144.54 367.94,-134 415.88,-134 449.78,-144.54"/>
<text text-anchor="middle" x="391.91" y="-148.3" font-family="Times,serif" font-size="14.00">done_reg</text>
</g>
<!-- n6 -->
<g id="node6" class="node">
<title>n6</title>
<polygon fill="none" stroke="black" points="89.61,-196.54 89.61,-211.46 73.79,-222 51.43,-222 35.61,-211.46 35.61,-196.54 51.43,-186 73.79,-186 89.61,-196.54"/>
<text text-anchor="middle" x="62.61" y="-200.3" font-family="Times,serif" font-size="14.00">rst</text>
</g>
<!-- n6&#45;&gt;c13 -->
<g id="edge8" class="edge">
<title>n6:e&#45;&gt;c13:w</title>
<path fill="none" stroke="black" d="M90.61,-204C110.12,-204 113.5,-192.6 125.22,-177 148.68,-145.79 123.8,-97.23 151,-88.4"/>
<polygon fill="black" stroke="black" points="151.79,-91.83 161.22,-87 150.84,-84.89 151.79,-91.83"/>
</g>
<!-- n6&#45;&gt;c14 -->
<g id="edge9" class="edge">
<title>n6:e&#45;&gt;c14:w</title>
<path fill="none" stroke="black" d="M90.61,-204C110.12,-204 110.23,-218.51 125.22,-231 138.59,-242.13 139.87,-256.3 151.36,-261.22"/>
<polygon fill="black" stroke="black" points="150.76,-264.67 161.22,-263 152,-257.78 150.76,-264.67"/>
</g>
<!-- n6&#45;&gt;c15 -->
<g id="edge10" class="edge">
<title>n6:e&#45;&gt;c15:w</title>
<path fill="none" stroke="black" d="M90.61,-204C120.83,-204 126.32,-181 151.13,-175.96"/>
<polygon fill="black" stroke="black" points="151.6,-179.44 161.22,-175 150.93,-172.47 151.6,-179.44"/>
</g>
<!-- n7 -->
<g id="node7" class="node">
<title>n7</title>
<polygon fill="none" stroke="black" points="98.37,-33.54 98.37,-48.46 77.42,-59 47.8,-59 26.85,-48.46 26.85,-33.54 47.8,-23 77.42,-23 98.37,-33.54"/>
<text text-anchor="middle" x="62.61" y="-37.3" font-family="Times,serif" font-size="14.00">start</text>
</g>
<!-- n7&#45;&gt;c13 -->
<g id="edge11" class="edge">
<title>n7:e&#45;&gt;c13:w</title>
<path fill="none" stroke="black" d="M99.61,-41C123.25,-41 131.58,-41 151.04,-41"/>
<polygon fill="black" stroke="black" points="151.22,-44.5 161.22,-41 151.22,-37.5 151.22,-44.5"/>
</g>
<!-- n8 -->
<g id="node8" class="node">
<title>n8</title>
<polygon fill="none" stroke="black" points="449.78,-56.54 449.78,-71.46 415.88,-82 367.94,-82 334.03,-71.46 334.03,-56.54 367.94,-46 415.88,-46 449.78,-56.54"/>
<text text-anchor="middle" x="391.91" y="-60.3" font-family="Times,serif" font-size="14.00">start_reg</text>
</g>
<!-- c13&#45;&gt;n8 -->
<g id="edge12" class="edge">
<title>c13:e&#45;&gt;n8:w</title>
<path fill="none" stroke="black" d="M298.22,-64C310.22,-64 315.47,-64 324.1,-64"/>
<polygon fill="black" stroke="black" points="324.22,-67.5 334.22,-64 324.22,-60.5 324.22,-67.5"/>
</g>
<!-- c14&#45;&gt;n1 -->
<g id="edge1" class="edge">
<title>c14:e&#45;&gt;n1:w</title>
<path fill="none" stroke="black" d="M298.22,-240C310.22,-240 315.47,-240 324.1,-240"/>
<polygon fill="black" stroke="black" points="324.22,-243.5 334.22,-240 324.22,-236.5 324.22,-243.5"/>
</g>
<!-- c15&#45;&gt;n5 -->
<g id="edge7" class="edge">
<title>c15:e&#45;&gt;n5:w</title>
<path fill="none" stroke="black" d="M298.22,-152C310.22,-152 315.47,-152 324.1,-152"/>
<polygon fill="black" stroke="black" points="324.22,-155.5 334.22,-152 324.22,-148.5 324.22,-155.5"/>
</g>
</g>
</svg>
