<?xml version="1.0" encoding="UTF-8" standalone="no"?>
<!DOCTYPE svg PUBLIC "-//W3C//DTD SVG 1.1//EN"
 "http://www.w3.org/Graphics/SVG/1.1/DTD/svg11.dtd">
<!-- Generated by graphviz version 2.43.0 (0)
 -->
<!-- Title: dma_transfer_counter Pages: 1 -->
<svg width="1279pt" height="404pt"
 viewBox="0.00 0.00 1278.51 403.75" xmlns="http://www.w3.org/2000/svg" xmlns:xlink="http://www.w3.org/1999/xlink">
<g id="graph0" class="graph" transform="scale(1 1) rotate(0) translate(4 399.75)">
<title>dma_transfer_counter</title>
<polygon fill="white" stroke="transparent" points="-4,4 -4,-399.75 1274.51,-399.75 1274.51,4 -4,4"/>
<text text-anchor="middle" x="635.25" y="-7.8" font-family="Times,serif" font-size="14.00">dma_transfer_counter</text>
<!-- n7 -->
<g id="node1" class="node">
<title>n7</title>
<polygon fill="none" stroke="black" points="54,-211.54 54,-226.46 38.18,-237 15.82,-237 0,-226.46 0,-211.54 15.82,-201 38.18,-201 54,-211.54"/>
<text text-anchor="middle" x="27" y="-215.3" font-family="Times,serif" font-size="14.00">clk</text>
</g>
<!-- c19 -->
<g id="node8" class="node">
<title>c19</title>
<polygon fill="none" stroke="black" points="90,-177 90,-269 235,-269 235,-177 90,-177"/>
<text text-anchor="middle" x="118" y="-253.8" font-family="Times,serif" font-size="14.00">ARST</text>
<polyline fill="none" stroke="black" points="90,-246 146,-246 "/>
<text text-anchor="middle" x="118" y="-230.8" font-family="Times,serif" font-size="14.00">CLK</text>
<polyline fill="none" stroke="black" points="90,-223 146,-223 "/>
<text text-anchor="middle" x="118" y="-207.8" font-family="Times,serif" font-size="14.00">D</text>
<polyline fill="none" stroke="black" points="90,-200 146,-200 "/>
<text text-anchor="middle" x="118" y="-184.8" font-family="Times,serif" font-size="14.00">EN</text>
<polyline fill="none" stroke="black" points="146,-177 146,-269 "/>
<text text-anchor="middle" x="176.5" y="-226.8" font-family="Times,serif" font-size="14.00">$12</text>
<text text-anchor="middle" x="176.5" y="-211.8" font-family="Times,serif" font-size="14.00">$adffe</text>
<polyline fill="none" stroke="black" points="207,-177 207,-269 "/>
<text text-anchor="middle" x="221" y="-219.3" font-family="Times,serif" font-size="14.00">Q</text>
</g>
<!-- n7&#45;&gt;c19 -->
<g id="edge16" class="edge">
<title>n7:e&#45;&gt;c19:w</title>
<path fill="none" stroke="black" d="M54,-219C67.41,-219 71.12,-228.38 79.99,-232.78"/>
<polygon fill="black" stroke="black" points="79.48,-236.25 90,-235 81,-229.41 79.48,-236.25"/>
</g>
<!-- n8 -->
<g id="node2" class="node">
<title>n8</title>
<polygon fill="none" stroke="black" points="349.69,-215.54 349.69,-230.46 326.67,-241 294.12,-241 271.1,-230.46 271.1,-215.54 294.12,-205 326.67,-205 349.69,-215.54"/>
<text text-anchor="middle" x="310.4" y="-219.3" font-family="Times,serif" font-size="14.00">count</text>
</g>
<!-- c23 -->
<g id="node11" class="node">
<title>c23</title>
<polygon fill="none" stroke="black" points="396.79,-316 396.79,-354 537.79,-354 537.79,-316 396.79,-316"/>
<text text-anchor="middle" x="409.79" y="-331.3" font-family="Times,serif" font-size="14.00">A</text>
<polyline fill="none" stroke="black" points="422.79,-316 422.79,-354 "/>
<text text-anchor="middle" x="467.29" y="-338.8" font-family="Times,serif" font-size="14.00">$5</text>
<text text-anchor="middle" x="467.29" y="-323.8" font-family="Times,serif" font-size="14.00">$logic_not</text>
<polyline fill="none" stroke="black" points="511.79,-316 511.79,-354 "/>
<text text-anchor="middle" x="524.79" y="-331.3" font-family="Times,serif" font-size="14.00">Y</text>
</g>
<!-- n8&#45;&gt;c23 -->
<g id="edge18" class="edge">
<title>n8:e&#45;&gt;c23:w</title>
<path fill="none" stroke="black" stroke-width="3" d="M349.79,-223C399.53,-223 350.12,-318.99 385.15,-333.24"/>
<polygon fill="black" stroke="black" stroke-width="3" points="384.84,-336.74 395.29,-335 386.04,-329.84 384.84,-336.74"/>
</g>
<!-- c26 -->
<g id="node13" class="node">
<title>c26</title>
<polygon fill="none" stroke="black" points="385.79,-204 385.79,-242 548.79,-242 548.79,-204 385.79,-204"/>
<text text-anchor="middle" x="398.79" y="-219.3" font-family="Times,serif" font-size="14.00">A</text>
<polyline fill="none" stroke="black" points="411.79,-204 411.79,-242 "/>
<text text-anchor="middle" x="467.29" y="-226.8" font-family="Times,serif" font-size="14.00">$2</text>
<text text-anchor="middle" x="467.29" y="-211.8" font-family="Times,serif" font-size="14.00">$reduce_bool</text>
<polyline fill="none" stroke="black" points="522.79,-204 522.79,-242 "/>
<text text-anchor="middle" x="535.79" y="-219.3" font-family="Times,serif" font-size="14.00">Y</text>
</g>
<!-- n8&#45;&gt;c26 -->
<g id="edge19" class="edge">
<title>n8:e&#45;&gt;c26:w</title>
<path fill="none" stroke="black" stroke-width="3" d="M349.79,-223C361.79,-223 367.04,-223 375.67,-223"/>
<polygon fill="black" stroke="black" stroke-width="3" points="375.79,-226.5 385.79,-223 375.79,-219.5 375.79,-226.5"/>
</g>
<!-- c30 -->
<g id="node19" class="node">
<title>c30</title>
<polygon fill="none" stroke="black" points="415.29,-139 415.29,-185 519.29,-185 519.29,-139 415.29,-139"/>
<text text-anchor="middle" x="428.79" y="-169.8" font-family="Times,serif" font-size="14.00">A</text>
<polyline fill="none" stroke="black" points="415.29,-162 442.29,-162 "/>
<text text-anchor="middle" x="428.79" y="-146.8" font-family="Times,serif" font-size="14.00">B</text>
<polyline fill="none" stroke="black" points="442.29,-139 442.29,-185 "/>
<text text-anchor="middle" x="467.79" y="-165.8" font-family="Times,serif" font-size="14.00">$4</text>
<text text-anchor="middle" x="467.79" y="-150.8" font-family="Times,serif" font-size="14.00">$sub</text>
<polyline fill="none" stroke="black" points="493.29,-139 493.29,-185 "/>
<text text-anchor="middle" x="506.29" y="-158.3" font-family="Times,serif" font-size="14.00">Y</text>
</g>
<!-- n8&#45;&gt;c30 -->
<g id="edge20" class="edge">
<title>n8:e&#45;&gt;c30:w</title>
<path fill="none" stroke="black" stroke-width="3" d="M349.79,-223C381.99,-223 379.39,-183.79 404.25,-175.52"/>
<polygon fill="black" stroke="black" stroke-width="3" points="404.93,-178.96 414.29,-174 403.88,-172.04 404.93,-178.96"/>
</g>
<!-- n9 -->
<g id="node3" class="node">
<title>n9</title>
<polygon fill="none" stroke="black" points="532.64,-271.54 532.64,-286.46 494.36,-297 440.22,-297 401.94,-286.46 401.94,-271.54 440.22,-261 494.36,-261 532.64,-271.54"/>
<text text-anchor="middle" x="467.29" y="-275.3" font-family="Times,serif" font-size="14.00">decrement</text>
</g>
<!-- c25 -->
<g id="node12" class="node">
<title>c25</title>
<polygon fill="none" stroke="black" points="593.9,-212 593.9,-258 738.9,-258 738.9,-212 593.9,-212"/>
<text text-anchor="middle" x="607.4" y="-242.8" font-family="Times,serif" font-size="14.00">A</text>
<polyline fill="none" stroke="black" points="593.9,-235 620.9,-235 "/>
<text text-anchor="middle" x="607.4" y="-219.8" font-family="Times,serif" font-size="14.00">B</text>
<polyline fill="none" stroke="black" points="620.9,-212 620.9,-258 "/>
<text text-anchor="middle" x="666.9" y="-238.8" font-family="Times,serif" font-size="14.00">$3</text>
<text text-anchor="middle" x="666.9" y="-223.8" font-family="Times,serif" font-size="14.00">$logic_and</text>
<polyline fill="none" stroke="black" points="712.9,-212 712.9,-258 "/>
<text text-anchor="middle" x="725.9" y="-231.3" font-family="Times,serif" font-size="14.00">Y</text>
</g>
<!-- n9&#45;&gt;c25 -->
<g id="edge21" class="edge">
<title>n9:e&#45;&gt;c25:w</title>
<path fill="none" stroke="black" d="M533.29,-279C559.31,-279 562.18,-254.72 582.23,-248.46"/>
<polygon fill="black" stroke="black" points="582.99,-251.88 592.4,-247 582,-244.96 582.99,-251.88"/>
</g>
<!-- n10 -->
<g id="node4" class="node">
<title>n10</title>
<polygon fill="none" stroke="black" points="850.19,-33.54 850.19,-48.46 830.79,-59 803.34,-59 783.94,-48.46 783.94,-33.54 803.34,-23 830.79,-23 850.19,-33.54"/>
<text text-anchor="middle" x="817.07" y="-37.3" font-family="Times,serif" font-size="14.00">load</text>
</g>
<!-- x0 -->
<g id="node10" class="node">
<title>x0</title>
<path fill="none" stroke="black" d="M949.97,-139C949.97,-139 1000.97,-139 1000.97,-139 1006.97,-139 1012.97,-145 1012.97,-151 1012.97,-151 1012.97,-173 1012.97,-173 1012.97,-179 1006.97,-185 1000.97,-185 1000.97,-185 949.97,-185 949.97,-185 943.97,-185 937.97,-179 937.97,-173 937.97,-173 937.97,-151 937.97,-151 937.97,-145 943.97,-139 949.97,-139"/>
<text text-anchor="middle" x="975.47" y="-169.8" font-family="Times,serif" font-size="14.00">0:0 &#45; 1:1</text>
<polyline fill="none" stroke="black" points="937.97,-162 1012.97,-162 "/>
<text text-anchor="middle" x="975.47" y="-146.8" font-family="Times,serif" font-size="14.00">0:0 &#45; 0:0</text>
</g>
<!-- n10&#45;&gt;x0 -->
<g id="edge5" class="edge">
<title>n10:e&#45;&gt;x0:w</title>
<path fill="none" stroke="black" d="M850.13,-41C877.51,-41 869.23,-69.46 886.13,-91 905.08,-115.15 902.87,-143.08 926.51,-148.9"/>
<polygon fill="black" stroke="black" points="926.15,-152.39 936.47,-150 926.92,-145.43 926.15,-152.39"/>
</g>
<!-- c29 -->
<g id="node17" class="node">
<title>c29</title>
<polygon fill="none" stroke="black" points="1127.82,-52.5 1127.82,-121.5 1236.82,-121.5 1236.82,-52.5 1127.82,-52.5"/>
<text text-anchor="middle" x="1141.32" y="-106.3" font-family="Times,serif" font-size="14.00">A</text>
<polyline fill="none" stroke="black" points="1127.82,-98.5 1154.82,-98.5 "/>
<text text-anchor="middle" x="1141.32" y="-83.3" font-family="Times,serif" font-size="14.00">B</text>
<polyline fill="none" stroke="black" points="1127.82,-75.5 1154.82,-75.5 "/>
<text text-anchor="middle" x="1141.32" y="-60.3" font-family="Times,serif" font-size="14.00">S</text>
<polyline fill="none" stroke="black" points="1154.82,-52.5 1154.82,-121.5 "/>
<text text-anchor="middle" x="1182.82" y="-90.8" font-family="Times,serif" font-size="14.00">$9</text>
<text text-anchor="middle" x="1182.82" y="-75.8" font-family="Times,serif" font-size="14.00">$mux</text>
<polyline fill="none" stroke="black" points="1210.82,-52.5 1210.82,-121.5 "/>
<text text-anchor="middle" x="1223.82" y="-83.3" font-family="Times,serif" font-size="14.00">Y</text>
</g>
<!-- n10&#45;&gt;c29 -->
<g id="edge4" class="edge">
<title>n10:e&#45;&gt;c29:w</title>
<path fill="none" stroke="black" d="M850.13,-41C866.23,-41 870.06,-37.89 886.13,-37 965.42,-32.61 987.09,-20.69 1064.82,-37 1090.38,-42.36 1095.44,-59.01 1116.3,-63.09"/>
<polygon fill="black" stroke="black" points="1116.04,-66.58 1126.32,-64 1116.67,-59.61 1116.04,-66.58"/>
</g>
<!-- n11 -->
<g id="node5" class="node">
<title>n11</title>
<polygon fill="none" stroke="black" points="54,-265.54 54,-280.46 38.18,-291 15.82,-291 0,-280.46 0,-265.54 15.82,-255 38.18,-255 54,-265.54"/>
<text text-anchor="middle" x="27" y="-269.3" font-family="Times,serif" font-size="14.00">rst</text>
</g>
<!-- n11&#45;&gt;c19 -->
<g id="edge6" class="edge">
<title>n11:e&#45;&gt;c19:w</title>
<path fill="none" stroke="black" d="M54,-273C67.27,-273 71.16,-264.21 80.04,-260.09"/>
<polygon fill="black" stroke="black" points="80.93,-263.47 90,-258 79.49,-256.62 80.93,-263.47"/>
</g>
<!-- n12 -->
<g id="node6" class="node">
<title>n12</title>
<polygon fill="none" stroke="black" points="748.11,-327.54 748.11,-342.46 700.24,-353 632.55,-353 584.69,-342.46 584.69,-327.54 632.55,-317 700.24,-317 748.11,-327.54"/>
<text text-anchor="middle" x="666.4" y="-331.3" font-family="Times,serif" font-size="14.00">transfer_done</text>
</g>
<!-- n13 -->
<g id="node7" class="node">
<title>n13</title>
<polygon fill="none" stroke="black" points="1064.66,-56.54 1064.66,-71.46 1012.42,-82 938.53,-82 886.29,-71.46 886.29,-56.54 938.53,-46 1012.42,-46 1064.66,-56.54"/>
<text text-anchor="middle" x="975.47" y="-60.3" font-family="Times,serif" font-size="14.00">transfer_length</text>
</g>
<!-- n13&#45;&gt;c29 -->
<g id="edge8" class="edge">
<title>n13:e&#45;&gt;c29:w</title>
<path fill="none" stroke="black" stroke-width="3" d="M1064.82,-64C1090.24,-64 1095.89,-81.45 1116.22,-85.95"/>
<polygon fill="black" stroke="black" stroke-width="3" points="1116.01,-89.45 1126.32,-87 1116.73,-82.49 1116.01,-89.45"/>
</g>
<!-- c19&#45;&gt;n8 -->
<g id="edge17" class="edge">
<title>c19:e&#45;&gt;n8:w</title>
<path fill="none" stroke="black" stroke-width="3" d="M235,-223C247,-223 252.25,-223 260.87,-223"/>
<polygon fill="black" stroke="black" stroke-width="3" points="261,-226.5 271,-223 261,-219.5 261,-226.5"/>
</g>
<!-- c22 -->
<g id="node9" class="node">
<title>c22</title>
<polygon fill="none" stroke="black" points="1100.82,-253 1100.82,-291 1263.82,-291 1263.82,-253 1100.82,-253"/>
<text text-anchor="middle" x="1113.82" y="-268.3" font-family="Times,serif" font-size="14.00">A</text>
<polyline fill="none" stroke="black" points="1126.82,-253 1126.82,-291 "/>
<text text-anchor="middle" x="1182.32" y="-275.8" font-family="Times,serif" font-size="14.00">$14</text>
<text text-anchor="middle" x="1182.32" y="-260.8" font-family="Times,serif" font-size="14.00">$reduce_bool</text>
<polyline fill="none" stroke="black" points="1237.82,-253 1237.82,-291 "/>
<text text-anchor="middle" x="1250.82" y="-268.3" font-family="Times,serif" font-size="14.00">Y</text>
</g>
<!-- c22&#45;&gt;c19 -->
<g id="edge9" class="edge">
<title>c22:e&#45;&gt;c19:w</title>
<path fill="none" stroke="black" d="M1265.32,-272C1273.99,-272 1269.97,-284.92 1264.32,-291.5 1132.36,-445.05 1020.53,-383 818.07,-383 466.29,-383 466.29,-383 466.29,-383 429.53,-383 417.93,-381.85 385.79,-364 322.93,-329.1 312.9,-308.43 271,-250 249.8,-220.44 265.86,-195.75 235,-176.5 183.26,-144.23 43.51,-182.24 78.33,-187.43"/>
<polygon fill="black" stroke="black" points="78.32,-190.93 88.5,-188 78.71,-183.94 78.32,-190.93"/>
</g>
<!-- x0&#45;&gt;c22 -->
<g id="edge1" class="edge">
<title>x0:e&#45;&gt;c22:w</title>
<path fill="none" stroke="black" stroke-width="3" d="M1026.6,-163.11C1043.65,-166.61 1050.31,-178.26 1064.82,-195 1086.27,-219.76 1069.18,-259.48 1088.9,-269.6"/>
<polygon fill="none" stroke="black" stroke-width="3" points="1026.42,-163.09 1020.09,-166.53 1014.47,-162 1020.81,-158.56 1026.42,-163.09"/>
<polygon fill="none" stroke="black" stroke-width="3" points="1089.05,-269.63 1095.73,-266.89 1100.82,-272 1094.14,-274.74 1089.05,-269.63"/>
</g>
<!-- c23&#45;&gt;n12 -->
<g id="edge7" class="edge">
<title>c23:e&#45;&gt;n12:w</title>
<path fill="none" stroke="black" d="M539.29,-335C555.56,-335 562.02,-335 574.45,-335"/>
<polygon fill="black" stroke="black" points="574.79,-338.5 584.79,-335 574.79,-331.5 574.79,-338.5"/>
</g>
<!-- n3 -->
<g id="node20" class="node">
<title>n3</title>
<ellipse fill="black" stroke="black" cx="817.07" cy="-197" rx="1.8" ry="1.8"/>
</g>
<!-- c25&#45;&gt;n3 -->
<g id="edge10" class="edge">
<title>c25:e&#45;&gt;n3:w</title>
<path fill="none" stroke="black" d="M740.4,-235C773.5,-235 776.85,-204.33 803.9,-198.1"/>
<polygon fill="black" stroke="black" points="804.5,-201.55 814.07,-197 803.75,-194.59 804.5,-201.55"/>
</g>
<!-- c26&#45;&gt;c25 -->
<g id="edge13" class="edge">
<title>c26:e&#45;&gt;c25:w</title>
<path fill="none" stroke="black" d="M548.79,-223C564.23,-223 570.45,-223 582.14,-223"/>
<polygon fill="black" stroke="black" points="582.4,-226.5 592.4,-223 582.4,-219.5 582.4,-226.5"/>
</g>
<!-- v1 -->
<g id="node14" class="node">
<title>v1</title>
<ellipse fill="none" stroke="black" cx="817.07" cy="-273" rx="30.59" ry="18"/>
<text text-anchor="middle" x="817.07" y="-269.3" font-family="Times,serif" font-size="14.00">16&#39;x</text>
</g>
<!-- c28 -->
<g id="node15" class="node">
<title>c28</title>
<polygon fill="none" stroke="black" points="920.97,-204.5 920.97,-273.5 1029.97,-273.5 1029.97,-204.5 920.97,-204.5"/>
<text text-anchor="middle" x="934.47" y="-258.3" font-family="Times,serif" font-size="14.00">A</text>
<polyline fill="none" stroke="black" points="920.97,-250.5 947.97,-250.5 "/>
<text text-anchor="middle" x="934.47" y="-235.3" font-family="Times,serif" font-size="14.00">B</text>
<polyline fill="none" stroke="black" points="920.97,-227.5 947.97,-227.5 "/>
<text text-anchor="middle" x="934.47" y="-212.3" font-family="Times,serif" font-size="14.00">S</text>
<polyline fill="none" stroke="black" points="947.97,-204.5 947.97,-273.5 "/>
<text text-anchor="middle" x="975.97" y="-242.8" font-family="Times,serif" font-size="14.00">$6</text>
<text text-anchor="middle" x="975.97" y="-227.8" font-family="Times,serif" font-size="14.00">$mux</text>
<polyline fill="none" stroke="black" points="1003.97,-204.5 1003.97,-273.5 "/>
<text text-anchor="middle" x="1016.97" y="-235.3" font-family="Times,serif" font-size="14.00">Y</text>
</g>
<!-- v1&#45;&gt;c28 -->
<g id="edge22" class="edge">
<title>v1:e&#45;&gt;c28:w</title>
<path fill="none" stroke="black" stroke-width="3" d="M849.07,-273C877.03,-273 885.81,-264.43 909.27,-262.42"/>
<polygon fill="black" stroke="black" stroke-width="3" points="909.62,-265.91 919.47,-262 909.34,-258.91 909.62,-265.91"/>
</g>
<!-- c28&#45;&gt;c29 -->
<g id="edge14" class="edge">
<title>c28:e&#45;&gt;c29:w</title>
<path fill="none" stroke="black" stroke-width="3" d="M1031.47,-239C1099.02,-239 1059.67,-122.77 1116.36,-110.96"/>
<polygon fill="black" stroke="black" stroke-width="3" points="1116.7,-114.45 1126.32,-110 1116.03,-107.48 1116.7,-114.45"/>
</g>
<!-- x2 -->
<g id="node16" class="node">
<title>x2</title>
<path fill="none" stroke="black" d="M631.9,-150C631.9,-150 700.9,-150 700.9,-150 706.9,-150 712.9,-156 712.9,-162 712.9,-162 712.9,-174 712.9,-174 712.9,-180 706.9,-186 700.9,-186 700.9,-186 631.9,-186 631.9,-186 625.9,-186 619.9,-180 619.9,-174 619.9,-174 619.9,-162 619.9,-162 619.9,-156 625.9,-150 631.9,-150"/>
<text text-anchor="middle" x="666.4" y="-164.3" font-family="Times,serif" font-size="14.00">15:0 &#45; 15:0</text>
</g>
<!-- x2&#45;&gt;c28 -->
<g id="edge2" class="edge">
<title>x2:e&#45;&gt;c28:w</title>
<path fill="none" stroke="black" stroke-width="3" d="M726.6,-169.26C750.8,-174.73 755.06,-196.67 784,-208 837.58,-228.98 855.3,-237.78 907.42,-238.88"/>
<polygon fill="none" stroke="black" stroke-width="3" points="726.33,-169.23 719.95,-172.59 714.4,-168 720.77,-164.64 726.33,-169.23"/>
<polygon fill="none" stroke="black" stroke-width="3" points="907.47,-238.88 913.51,-234.94 919.47,-239 913.43,-242.94 907.47,-238.88"/>
</g>
<!-- c29&#45;&gt;c19 -->
<g id="edge3" class="edge">
<title>c29:e&#45;&gt;c19:w</title>
<path fill="none" stroke="black" stroke-width="3" d="M1238.32,-87C1253.88,-87 1248.48,-111.15 1237.32,-122 1202.42,-155.92 1176.47,-122.94 1127.82,-122 990.07,-119.33 955.84,-110 818.07,-110 466.29,-110 466.29,-110 466.29,-110 296.24,-110 195.35,-43.41 89.5,-176.5 82.94,-184.75 77.67,-197.97 80.01,-205.42"/>
<polygon fill="black" stroke="black" stroke-width="3" points="78.22,-208.43 88.5,-211 82.07,-202.58 78.22,-208.43"/>
</g>
<!-- v3 -->
<g id="node18" class="node">
<title>v3</title>
<ellipse fill="none" stroke="black" cx="310.4" cy="-156" rx="27" ry="18"/>
<text text-anchor="middle" x="310.4" y="-152.3" font-family="Times,serif" font-size="14.00">1</text>
</g>
<!-- v3&#45;&gt;c30 -->
<g id="edge23" class="edge">
<title>v3:e&#45;&gt;c30:w</title>
<path fill="none" stroke="black" stroke-width="3" d="M338.4,-156C368.53,-156 378.35,-151.24 404.04,-150.2"/>
<polygon fill="black" stroke="black" stroke-width="3" points="404.36,-153.69 414.29,-150 404.22,-146.7 404.36,-153.69"/>
</g>
<!-- c30&#45;&gt;x2 -->
<g id="edge15" class="edge">
<title>c30:e&#45;&gt;x2:w</title>
<path fill="none" stroke="black" stroke-width="3" d="M520.29,-162C560.39,-162 572.73,-167.06 608.27,-167.89"/>
<polygon fill="black" stroke="black" stroke-width="3" points="608.36,-171.39 618.4,-168 608.44,-164.39 608.36,-171.39"/>
</g>
<!-- n3&#45;&gt;x0 -->
<g id="edge12" class="edge">
<title>n3:e&#45;&gt;x0:w</title>
<path fill="none" stroke="black" d="M820.07,-197C869.2,-197 882.05,-177.04 926.22,-174.31"/>
<polygon fill="black" stroke="black" points="926.58,-177.8 936.47,-174 926.37,-170.8 926.58,-177.8"/>
</g>
<!-- n3&#45;&gt;c28 -->
<g id="edge11" class="edge">
<title>n3:e&#45;&gt;c28:w</title>
<path fill="none" stroke="black" d="M820.07,-197C861.36,-197 872.7,-213.01 909.08,-215.64"/>
<polygon fill="black" stroke="black" points="909.36,-219.15 919.47,-216 909.6,-212.15 909.36,-219.15"/>
</g>
</g>
</svg>
