<?xml version="1.0" encoding="UTF-8" standalone="no"?>
<!DOCTYPE svg PUBLIC "-//W3C//DTD SVG 1.1//EN"
 "http://www.w3.org/Graphics/SVG/1.1/DTD/svg11.dtd">
<!-- Generated by graphviz version 2.43.0 (0)
 -->
<!-- Title: forwarding_control_logic Pages: 1 -->
<svg width="796pt" height="442pt"
 viewBox="0.00 0.00 796.24 442.00" xmlns="http://www.w3.org/2000/svg" xmlns:xlink="http://www.w3.org/1999/xlink">
<g id="graph0" class="graph" transform="scale(1 1) rotate(0) translate(4 438)">
<title>forwarding_control_logic</title>
<polygon fill="white" stroke="transparent" points="-4,4 -4,-438 792.24,-438 792.24,4 -4,4"/>
<text text-anchor="middle" x="394.12" y="-7.8" font-family="Times,serif" font-size="14.00">forwarding_control_logic</text>
<!-- n3 -->
<g id="node1" class="node">
<title>n3</title>
<polygon fill="none" stroke="black" points="482.26,-33.54 482.26,-48.46 417.83,-59 326.71,-59 262.28,-48.46 262.28,-33.54 326.71,-23 417.83,-23 482.26,-33.54"/>
<text text-anchor="middle" x="372.27" y="-37.3" font-family="Times,serif" font-size="14.00">ex_mem_match_rs1</text>
</g>
<!-- c14 -->
<g id="node11" class="node">
<title>c14</title>
<polygon fill="none" stroke="black" points="518.01,-60.5 518.01,-129.5 627.01,-129.5 627.01,-60.5 518.01,-60.5"/>
<text text-anchor="middle" x="531.51" y="-114.3" font-family="Times,serif" font-size="14.00">A</text>
<polyline fill="none" stroke="black" points="518.01,-106.5 545.01,-106.5 "/>
<text text-anchor="middle" x="531.51" y="-91.3" font-family="Times,serif" font-size="14.00">B</text>
<polyline fill="none" stroke="black" points="518.01,-83.5 545.01,-83.5 "/>
<text text-anchor="middle" x="531.51" y="-68.3" font-family="Times,serif" font-size="14.00">S</text>
<polyline fill="none" stroke="black" points="545.01,-60.5 545.01,-129.5 "/>
<text text-anchor="middle" x="573.01" y="-98.8" font-family="Times,serif" font-size="14.00">$18</text>
<text text-anchor="middle" x="573.01" y="-83.8" font-family="Times,serif" font-size="14.00">$mux</text>
<polyline fill="none" stroke="black" points="601.01,-60.5 601.01,-129.5 "/>
<text text-anchor="middle" x="614.01" y="-91.3" font-family="Times,serif" font-size="14.00">Y</text>
</g>
<!-- n3&#45;&gt;c14 -->
<g id="edge3" class="edge">
<title>n3:e&#45;&gt;c14:w</title>
<path fill="none" stroke="black" d="M482.01,-41C499,-41 498.29,-61.07 508.36,-68.91"/>
<polygon fill="black" stroke="black" points="507.42,-72.29 518.01,-72 509.56,-65.62 507.42,-72.29"/>
</g>
<!-- n4 -->
<g id="node2" class="node">
<title>n4</title>
<polygon fill="none" stroke="black" points="482.26,-229.54 482.26,-244.46 417.83,-255 326.71,-255 262.28,-244.46 262.28,-229.54 326.71,-219 417.83,-219 482.26,-229.54"/>
<text text-anchor="middle" x="372.27" y="-233.3" font-family="Times,serif" font-size="14.00">ex_mem_match_rs2</text>
</g>
<!-- c16 -->
<g id="node16" class="node">
<title>c16</title>
<polygon fill="none" stroke="black" points="518.01,-256.5 518.01,-325.5 627.01,-325.5 627.01,-256.5 518.01,-256.5"/>
<text text-anchor="middle" x="531.51" y="-310.3" font-family="Times,serif" font-size="14.00">A</text>
<polyline fill="none" stroke="black" points="518.01,-302.5 545.01,-302.5 "/>
<text text-anchor="middle" x="531.51" y="-287.3" font-family="Times,serif" font-size="14.00">B</text>
<polyline fill="none" stroke="black" points="518.01,-279.5 545.01,-279.5 "/>
<text text-anchor="middle" x="531.51" y="-264.3" font-family="Times,serif" font-size="14.00">S</text>
<polyline fill="none" stroke="black" points="545.01,-256.5 545.01,-325.5 "/>
<text text-anchor="middle" x="573.01" y="-294.8" font-family="Times,serif" font-size="14.00">$9</text>
<text text-anchor="middle" x="573.01" y="-279.8" font-family="Times,serif" font-size="14.00">$mux</text>
<polyline fill="none" stroke="black" points="601.01,-256.5 601.01,-325.5 "/>
<text text-anchor="middle" x="614.01" y="-287.3" font-family="Times,serif" font-size="14.00">Y</text>
</g>
<!-- n4&#45;&gt;c16 -->
<g id="edge4" class="edge">
<title>n4:e&#45;&gt;c16:w</title>
<path fill="none" stroke="black" d="M482.01,-237C499,-237 498.29,-257.07 508.36,-264.91"/>
<polygon fill="black" stroke="black" points="507.42,-268.29 518.01,-268 509.56,-261.62 507.42,-268.29"/>
</g>
<!-- n5 -->
<g id="node3" class="node">
<title>n5</title>
<polygon fill="none" stroke="black" points="787.44,-87.54 787.44,-102.46 751.23,-113 700.02,-113 663.81,-102.46 663.81,-87.54 700.02,-77 751.23,-77 787.44,-87.54"/>
<text text-anchor="middle" x="725.63" y="-91.3" font-family="Times,serif" font-size="14.00">forward_a</text>
</g>
<!-- n6 -->
<g id="node4" class="node">
<title>n6</title>
<polygon fill="none" stroke="black" points="788.35,-283.54 788.35,-298.46 751.61,-309 699.64,-309 662.9,-298.46 662.9,-283.54 699.64,-273 751.61,-273 788.35,-283.54"/>
<text text-anchor="middle" x="725.63" y="-287.3" font-family="Times,serif" font-size="14.00">forward_b</text>
</g>
<!-- n7 -->
<g id="node5" class="node">
<title>n7</title>
<polygon fill="none" stroke="black" points="226.29,-104.54 226.29,-119.46 160.08,-130 66.45,-130 0.24,-119.46 0.24,-104.54 66.45,-94 160.08,-94 226.29,-104.54"/>
<text text-anchor="middle" x="113.26" y="-108.3" font-family="Times,serif" font-size="14.00">mem_wb_match_rs1</text>
</g>
<!-- c13 -->
<g id="node9" class="node">
<title>c13</title>
<polygon fill="none" stroke="black" points="317.77,-131.5 317.77,-200.5 426.77,-200.5 426.77,-131.5 317.77,-131.5"/>
<text text-anchor="middle" x="331.27" y="-185.3" font-family="Times,serif" font-size="14.00">A</text>
<polyline fill="none" stroke="black" points="317.77,-177.5 344.77,-177.5 "/>
<text text-anchor="middle" x="331.27" y="-162.3" font-family="Times,serif" font-size="14.00">B</text>
<polyline fill="none" stroke="black" points="317.77,-154.5 344.77,-154.5 "/>
<text text-anchor="middle" x="331.27" y="-139.3" font-family="Times,serif" font-size="14.00">S</text>
<polyline fill="none" stroke="black" points="344.77,-131.5 344.77,-200.5 "/>
<text text-anchor="middle" x="372.77" y="-169.8" font-family="Times,serif" font-size="14.00">$12</text>
<text text-anchor="middle" x="372.77" y="-154.8" font-family="Times,serif" font-size="14.00">$mux</text>
<polyline fill="none" stroke="black" points="400.77,-131.5 400.77,-200.5 "/>
<text text-anchor="middle" x="413.77" y="-162.3" font-family="Times,serif" font-size="14.00">Y</text>
</g>
<!-- n7&#45;&gt;c13 -->
<g id="edge7" class="edge">
<title>n7:e&#45;&gt;c13:w</title>
<path fill="none" stroke="black" d="M226.52,-112C244.74,-112 282.66,-135.1 306.27,-141.42"/>
<polygon fill="black" stroke="black" points="305.85,-144.9 316.27,-143 306.94,-137.98 305.85,-144.9"/>
</g>
<!-- n8 -->
<g id="node6" class="node">
<title>n8</title>
<polygon fill="none" stroke="black" points="226.29,-300.54 226.29,-315.46 160.08,-326 66.45,-326 0.24,-315.46 0.24,-300.54 66.45,-290 160.08,-290 226.29,-300.54"/>
<text text-anchor="middle" x="113.26" y="-304.3" font-family="Times,serif" font-size="14.00">mem_wb_match_rs2</text>
</g>
<!-- c15 -->
<g id="node14" class="node">
<title>c15</title>
<polygon fill="none" stroke="black" points="317.77,-327.5 317.77,-396.5 426.77,-396.5 426.77,-327.5 317.77,-327.5"/>
<text text-anchor="middle" x="331.27" y="-381.3" font-family="Times,serif" font-size="14.00">A</text>
<polyline fill="none" stroke="black" points="317.77,-373.5 344.77,-373.5 "/>
<text text-anchor="middle" x="331.27" y="-358.3" font-family="Times,serif" font-size="14.00">B</text>
<polyline fill="none" stroke="black" points="317.77,-350.5 344.77,-350.5 "/>
<text text-anchor="middle" x="331.27" y="-335.3" font-family="Times,serif" font-size="14.00">S</text>
<polyline fill="none" stroke="black" points="344.77,-327.5 344.77,-396.5 "/>
<text text-anchor="middle" x="372.77" y="-365.8" font-family="Times,serif" font-size="14.00">$3</text>
<text text-anchor="middle" x="372.77" y="-350.8" font-family="Times,serif" font-size="14.00">$mux</text>
<polyline fill="none" stroke="black" points="400.77,-327.5 400.77,-396.5 "/>
<text text-anchor="middle" x="413.77" y="-358.3" font-family="Times,serif" font-size="14.00">Y</text>
</g>
<!-- n8&#45;&gt;c15 -->
<g id="edge8" class="edge">
<title>n8:e&#45;&gt;c15:w</title>
<path fill="none" stroke="black" d="M226.52,-308C244.74,-308 282.66,-331.1 306.27,-337.42"/>
<polygon fill="black" stroke="black" points="305.85,-340.9 316.27,-339 306.94,-333.98 305.85,-340.9"/>
</g>
<!-- v0 -->
<g id="node7" class="node">
<title>v0</title>
<ellipse fill="none" stroke="black" cx="113.26" cy="-220" rx="30.59" ry="18"/>
<text text-anchor="middle" x="113.26" y="-216.3" font-family="Times,serif" font-size="14.00">2&#39;00</text>
</g>
<!-- v0&#45;&gt;c13 -->
<g id="edge9" class="edge">
<title>v0:e&#45;&gt;c13:w</title>
<path fill="none" stroke="black" stroke-width="3" d="M145.26,-220C219.03,-220 237.42,-191.72 306.22,-189.18"/>
<polygon fill="black" stroke="black" stroke-width="3" points="306.33,-192.68 316.27,-189 306.21,-185.68 306.33,-192.68"/>
</g>
<!-- v1 -->
<g id="node8" class="node">
<title>v1</title>
<ellipse fill="none" stroke="black" cx="113.26" cy="-166" rx="30.59" ry="18"/>
<text text-anchor="middle" x="113.26" y="-162.3" font-family="Times,serif" font-size="14.00">2&#39;01</text>
</g>
<!-- v1&#45;&gt;c13 -->
<g id="edge10" class="edge">
<title>v1:e&#45;&gt;c13:w</title>
<path fill="none" stroke="black" stroke-width="3" d="M145.26,-166C217.7,-166 238.36,-166 305.95,-166"/>
<polygon fill="black" stroke="black" stroke-width="3" points="306.27,-169.5 316.27,-166 306.27,-162.5 306.27,-169.5"/>
</g>
<!-- c13&#45;&gt;c14 -->
<g id="edge1" class="edge">
<title>c13:e&#45;&gt;c14:w</title>
<path fill="none" stroke="black" stroke-width="3" d="M428.27,-166C469.79,-166 472.59,-125.55 507.76,-118.92"/>
<polygon fill="black" stroke="black" stroke-width="3" points="508.37,-122.38 518.01,-118 507.74,-115.4 508.37,-122.38"/>
</g>
<!-- v2 -->
<g id="node10" class="node">
<title>v2</title>
<ellipse fill="none" stroke="black" cx="372.27" cy="-95" rx="30.59" ry="18"/>
<text text-anchor="middle" x="372.27" y="-91.3" font-family="Times,serif" font-size="14.00">2&#39;10</text>
</g>
<!-- v2&#45;&gt;c14 -->
<g id="edge11" class="edge">
<title>v2:e&#45;&gt;c14:w</title>
<path fill="none" stroke="black" stroke-width="3" d="M404.27,-95C451.27,-95 465.5,-95 507.89,-95"/>
<polygon fill="black" stroke="black" stroke-width="3" points="508.01,-98.5 518.01,-95 508.01,-91.5 508.01,-98.5"/>
</g>
<!-- c14&#45;&gt;n5 -->
<g id="edge5" class="edge">
<title>c14:e&#45;&gt;n5:w</title>
<path fill="none" stroke="black" stroke-width="3" d="M627.01,-95C639.01,-95 644.26,-95 652.89,-95"/>
<polygon fill="black" stroke="black" stroke-width="3" points="653.01,-98.5 663.01,-95 653.01,-91.5 653.01,-98.5"/>
</g>
<!-- v3 -->
<g id="node12" class="node">
<title>v3</title>
<ellipse fill="none" stroke="black" cx="113.26" cy="-416" rx="30.59" ry="18"/>
<text text-anchor="middle" x="113.26" y="-412.3" font-family="Times,serif" font-size="14.00">2&#39;00</text>
</g>
<!-- v3&#45;&gt;c15 -->
<g id="edge12" class="edge">
<title>v3:e&#45;&gt;c15:w</title>
<path fill="none" stroke="black" stroke-width="3" d="M145.26,-416C219.03,-416 237.42,-387.72 306.22,-385.18"/>
<polygon fill="black" stroke="black" stroke-width="3" points="306.33,-388.68 316.27,-385 306.21,-381.68 306.33,-388.68"/>
</g>
<!-- v4 -->
<g id="node13" class="node">
<title>v4</title>
<ellipse fill="none" stroke="black" cx="113.26" cy="-362" rx="30.59" ry="18"/>
<text text-anchor="middle" x="113.26" y="-358.3" font-family="Times,serif" font-size="14.00">2&#39;01</text>
</g>
<!-- v4&#45;&gt;c15 -->
<g id="edge13" class="edge">
<title>v4:e&#45;&gt;c15:w</title>
<path fill="none" stroke="black" stroke-width="3" d="M145.26,-362C217.7,-362 238.36,-362 305.95,-362"/>
<polygon fill="black" stroke="black" stroke-width="3" points="306.27,-365.5 316.27,-362 306.27,-358.5 306.27,-365.5"/>
</g>
<!-- c15&#45;&gt;c16 -->
<g id="edge2" class="edge">
<title>c15:e&#45;&gt;c16:w</title>
<path fill="none" stroke="black" stroke-width="3" d="M428.27,-362C469.79,-362 472.59,-321.55 507.76,-314.92"/>
<polygon fill="black" stroke="black" stroke-width="3" points="508.37,-318.38 518.01,-314 507.74,-311.4 508.37,-318.38"/>
</g>
<!-- v5 -->
<g id="node15" class="node">
<title>v5</title>
<ellipse fill="none" stroke="black" cx="372.27" cy="-291" rx="30.59" ry="18"/>
<text text-anchor="middle" x="372.27" y="-287.3" font-family="Times,serif" font-size="14.00">2&#39;10</text>
</g>
<!-- v5&#45;&gt;c16 -->
<g id="edge14" class="edge">
<title>v5:e&#45;&gt;c16:w</title>
<path fill="none" stroke="black" stroke-width="3" d="M404.27,-291C451.27,-291 465.5,-291 507.89,-291"/>
<polygon fill="black" stroke="black" stroke-width="3" points="508.01,-294.5 518.01,-291 508.01,-287.5 508.01,-294.5"/>
</g>
<!-- c16&#45;&gt;n6 -->
<g id="edge6" class="edge">
<title>c16:e&#45;&gt;n6:w</title>
<path fill="none" stroke="black" stroke-width="3" d="M627.01,-291C639.01,-291 644.26,-291 652.89,-291"/>
<polygon fill="black" stroke="black" stroke-width="3" points="653.01,-294.5 663.01,-291 653.01,-287.5 653.01,-294.5"/>
</g>
</g>
</svg>
